<svg xmlns="http://www.w3.org/2000/svg" viewBox="0 0 873.28 509"><defs><style>.cls-1,.cls-2,.cls-3{fill:none;stroke:#000;stroke-miterlimit:10;}.cls-1{stroke-width:2.22px;}.cls-2{stroke-width:2.27px;}.cls-3{stroke-width:2px;}</style></defs><g id="Ebene_2" data-name="Ebene 2"><g id="Background"><line class="cls-1" x1="136.69" y1="0.94" x2="137.35" y2="508.49"/><line class="cls-1" x1="182.64" y1="0.95" x2="183.29" y2="508.51"/><line class="cls-1" x1="229.48" y1="0.96" x2="230.13" y2="508.52"/><line class="cls-1" x1="43.76" y1="0.94" x2="44.41" y2="508.49"/><line class="cls-1" x1="89.7" y1="0.95" x2="90.36" y2="508.51"/><line class="cls-1" x1="276.67" y1="0.98" x2="277.33" y2="508.53"/><line class="cls-1" x1="323.54" y1="0.99" x2="324.2" y2="508.55"/><line class="cls-1" x1="369.14" y1="1.01" x2="369.8" y2="508.56"/><line class="cls-1" x1="416.01" y1="1.02" x2="416.66" y2="508.58"/><line class="cls-1" x1="463.16" y1="1.03" x2="463.81" y2="508.59"/><line class="cls-1" x1="508.92" y1="1.05" x2="509.58" y2="508.6"/><line class="cls-1" x1="554.79" y1="1.06" x2="555.44" y2="508.62"/><line class="cls-1" x1="601.66" y1="1.07" x2="602.31" y2="508.63"/><line class="cls-1" x1="648.8" y1="1.09" x2="649.45" y2="508.64"/><line class="cls-1" x1="694.57" y1="1.1" x2="695.22" y2="508.66"/><line class="cls-1" x1="740.43" y1="1.12" x2="741.09" y2="508.67"/><line class="cls-1" x1="785.46" y1="1.1" x2="786.12" y2="508.66"/><line class="cls-1" x1="831.33" y1="1.12" x2="831.98" y2="508.67"/><line class="cls-2" y1="418.59" x2="872.12" y2="417.47"/><line class="cls-2" x1="1.16" y1="463.95" x2="873.28" y2="462.83"/><line class="cls-2" x1="1.16" y1="507.87" x2="873.28" y2="506.75"/><line class="cls-2" x1="0.07" y1="372.65" x2="872.18" y2="371.52"/><line class="cls-2" x1="0.13" y1="325.81" x2="872.25" y2="324.68"/><line class="cls-2" x1="0.2" y1="278.61" x2="872.32" y2="277.49"/><line class="cls-2" x1="0.27" y1="231.74" x2="872.39" y2="230.62"/><line class="cls-2" x1="0.34" y1="186.14" x2="872.45" y2="185.02"/><line class="cls-2" x1="0.4" y1="139.27" x2="872.52" y2="138.15"/><line class="cls-2" x1="0.47" y1="92.13" x2="872.59" y2="91.01"/><line class="cls-2" x1="0.49" y1="47.19" x2="872.6" y2="46.07"/><line class="cls-2" x1="0.49" y1="2.26" x2="872.6" y2="1.13"/><path class="cls-3" d="M323.8,231.86c0,73.28-6.33,126.89,64.27,137.88"/><path class="cls-3" d="M340.47,346.35C372,352.73,393,339,393,303.34V195.83H359.59a.46.46,0,0,1-.31-.8L463.1,91.26,565,194.9a.46.46,0,0,1-.32.79l-28.35.14V303.48h0c-2.16,75-73.88,68.22-122.89,68.22a163.85,163.85,0,0,1-25.32-2"/></g></g></svg>