<svg xmlns="http://www.w3.org/2000/svg" viewBox="0 0 694.91 509.47"><defs><style>.cls-1,.cls-2,.cls-3{fill:none;stroke:#000;stroke-miterlimit:10;}.cls-1{stroke-width:2.22px;}.cls-2{stroke-width:2.02px;}.cls-3{stroke-width:2px;}</style></defs><g id="Ebene_2" data-name="Ebene 2"><g id="Ebene_1-2" data-name="Ebene 1"><line class="cls-1" x1="46.05" y1="1.72" x2="46.7" y2="509.28"/><line class="cls-1" x1="1.11" y1="1.72" x2="1.76" y2="509.27"/><line class="cls-1" x1="91.99" y1="1.74" x2="92.65" y2="509.29"/><line class="cls-1" x1="138.83" y1="1.75" x2="139.49" y2="509.31"/><line class="cls-1" x1="186.03" y1="1.76" x2="186.68" y2="509.32"/><line class="cls-1" x1="232.9" y1="1.78" x2="233.55" y2="509.33"/><line class="cls-1" x1="278.5" y1="1.79" x2="279.15" y2="509.35"/><line class="cls-1" x1="325.36" y1="1.81" x2="326.02" y2="509.36"/><line class="cls-1" x1="372.51" y1="1.82" x2="373.16" y2="509.38"/><line class="cls-1" x1="418.28" y1="1.83" x2="418.93" y2="509.39"/><line class="cls-1" x1="418.54" y1="1.83" x2="419.2" y2="509.39"/><line class="cls-1" x1="464.14" y1="1.85" x2="464.8" y2="509.4"/><line class="cls-1" x1="511.01" y1="1.86" x2="511.66" y2="509.42"/><line class="cls-1" x1="558.15" y1="1.87" x2="558.81" y2="509.43"/><line class="cls-1" x1="603.92" y1="1.89" x2="604.58" y2="509.44"/><line class="cls-1" x1="649.79" y1="1.9" x2="650.44" y2="509.46"/><line class="cls-1" x1="692.68" y1="1.91" x2="693.33" y2="509.46"/><line class="cls-2" x1="0.58" y1="419.26" x2="693.98" y2="418.37"/><line class="cls-2" x1="1.52" y1="464.62" x2="694.91" y2="463.73"/><line class="cls-2" x1="1.52" y1="508.2" x2="694.91" y2="507.3"/><line class="cls-2" x1="0.62" y1="373.32" x2="694.02" y2="372.42"/><line class="cls-2" x1="0.66" y1="326.47" x2="694.06" y2="325.58"/><line class="cls-2" x1="0.71" y1="279.28" x2="694.1" y2="278.39"/><line class="cls-2" x1="0.75" y1="232.41" x2="694.14" y2="231.52"/><line class="cls-2" x1="0.79" y1="186.81" x2="694.18" y2="185.92"/><line class="cls-2" x1="0.83" y1="139.94" x2="694.22" y2="139.05"/><line class="cls-2" x1="0.87" y1="92.8" x2="694.26" y2="91.9"/><line class="cls-2" x1="0.87" y1="47.86" x2="694.26" y2="46.97"/><line class="cls-2" x1="0.87" y1="1.9" x2="694.27" y2="1.01"/><path class="cls-3" d="M233.16,232.65c0,73.28-6.33,126.89,64.26,137.88"/><path class="cls-3" d="M249.82,347.14c31.54,6.38,52.48-7.33,52.48-43V196.61H269a.46.46,0,0,1-.32-.79L372.45,92.05,474.31,195.69a.46.46,0,0,1-.33.79l-28.34.13V304.27h0c-2.17,75-73.88,68.22-122.9,68.22a165.2,165.2,0,0,1-25.32-2"/></g></g></svg>