<svg xmlns="http://www.w3.org/2000/svg" viewBox="0 0 678.43 412.31"><defs><style>.cls-1{fill:none;stroke:#000;stroke-miterlimit:10;stroke-width:2px;}</style></defs><g id="Ebene_2" data-name="Ebene 2"><g id="Ebene_1-2" data-name="Ebene 1"><line class="cls-1" x1="76.22" x2="76.75" y2="412.31"/><line class="cls-1" x1="123.06" x2="123.59" y2="412.31"/><line class="cls-1" x1="170.25" x2="170.79" y2="412.31"/><line class="cls-1" x1="217.13" x2="217.66" y2="412.31"/><line class="cls-1" x1="262.72" x2="263.26" y2="412.31"/><line class="cls-1" x1="309.59" x2="310.12" y2="412.31"/><line class="cls-1" x1="356.74" x2="357.27" y2="412.31"/><line class="cls-1" x1="402.51" x2="403.04" y2="412.31"/><line class="cls-1" x1="402.77" x2="403.3" y2="412.31"/><line class="cls-1" x1="448.37" x2="448.9" y2="412.31"/><line class="cls-1" x1="495.24" x2="495.77" y2="412.31"/><line class="cls-1" x1="542.38" x2="542.91" y2="412.31"/><line class="cls-1" x1="588.15" x2="588.68" y2="412.31"/><line class="cls-1" x1="634.01" x2="634.55" y2="412.31"/><line class="cls-1" y1="371.9" x2="678.16" y2="371.03"/><line class="cls-1" x1="0.04" y1="325.95" x2="678.2" y2="325.08"/><line class="cls-1" x1="0.08" y1="279.11" x2="678.24" y2="278.24"/><line class="cls-1" x1="0.12" y1="231.92" x2="678.28" y2="231.05"/><line class="cls-1" x1="0.16" y1="185.05" x2="678.32" y2="184.17"/><line class="cls-1" x1="0.19" y1="139.45" x2="678.35" y2="138.58"/><line class="cls-1" x1="0.23" y1="92.58" x2="678.39" y2="91.71"/><line class="cls-1" x1="0.27" y1="45.44" x2="678.43" y2="44.56"/><path class="cls-1" d="M217.33,185.3c0,73.29-6.34,126.9,64.26,137.89"/><path class="cls-1" d="M234,299.8c31.54,6.38,52.48-7.33,52.48-43V149.27H253.11a.46.46,0,0,1-.31-.79L356.62,44.71,458.47,148.35a.46.46,0,0,1-.32.79l-28.35.13V256.93h0c-2.16,75-73.88,68.22-122.89,68.22a165.1,165.1,0,0,1-25.32-2"/></g></g></svg>