<svg xmlns="http://www.w3.org/2000/svg" viewBox="0 0 474.08 642.47"><defs><style>.cls-1{fill:#e0e4e1;}.cls-2{fill:#1d1d1b;}.cls-3,.cls-4,.cls-5,.cls-6{fill:none;stroke-miterlimit:10;}.cls-3{stroke:#1d1d1b;stroke-width:2px;}.cls-4,.cls-5,.cls-6{stroke:#acc0b2;}.cls-4{stroke-width:3.45px;}.cls-5{stroke-width:2.07px;}.cls-6{stroke-width:5.42px;}</style></defs><g id="Ebene_2" data-name="Ebene 2"><g id="Ebene_1-2" data-name="Ebene 1"><circle class="cls-1" cx="133.9" cy="76.91" r="76.89"/><path class="cls-2" d="M79.45,61.93h2V78.15h.09L95.71,61.93h2.43L88.82,72.75l10.6,18.38H97.08L87.42,74.31l-5.93,6.77v10h-2Z"/><path class="cls-2" d="M103.39,83.5V69.85h2V83.24c0,4.51,1.43,6.66,4.85,6.66,2.53,0,4.37-1.33,6.86-4.35V69.85h2V91.13h-1.66l-.21-3.57h-.1c-2.09,2.45-4.29,4.1-7.23,4.1C105.43,91.66,103.39,89,103.39,83.5Z"/><path class="cls-2" d="M127.61,69.85h1.66l.21,3.3h.1c2.17-2.17,4.38-3.83,7.32-3.83,4.39,0,6.43,2.66,6.43,8.16V91.13h-2V77.74c0-4.52-1.43-6.66-4.85-6.66-2.53,0-4.37,1.34-7,4v16h-2Z"/><path class="cls-2" d="M149.85,80.53c0-6.87,4.36-11.21,9.44-11.21,2.55,0,4.29,1,6.41,2.61L165.6,68V59.25h2V91.13H165.9l-.21-2.76h-.1a10,10,0,0,1-6.94,3.29C153.31,91.66,149.85,87.71,149.85,80.53Zm15.75,5.88V73.79c-2.24-2-4.12-2.74-6.21-2.74-4.22,0-7.49,4.13-7.49,9.47,0,5.66,2.52,9.4,7,9.4C161.28,89.92,163.36,88.69,165.6,86.41Z"/><path class="cls-2" d="M174.38,80.53c0-6.94,4.51-11.21,9.27-11.21,5,0,8.15,3.59,8.15,9.84a9.57,9.57,0,0,1-.11,1.6h-15.3c.07,5.37,3.21,9.21,8,9.21a9.6,9.6,0,0,0,5.71-1.89l.81,1.49a11.68,11.68,0,0,1-6.71,2.09C178.78,91.66,174.38,87.48,174.38,80.53ZM190,79.14c0-5.43-2.47-8.13-6.29-8.13-3.6,0-6.85,3-7.29,8.13Z"/><path class="cls-2" d="M167.83,346.33h1.65l.22,3.3h.09c2.18-2.17,4.39-3.83,7.32-3.83,4.4,0,6.44,2.67,6.44,8.16v13.65h-2V354.22c0-4.51-1.43-6.66-4.85-6.66-2.53,0-4.37,1.34-7,4v16.05h-2Z"/><path class="cls-2" d="M190.05,357c0-6.94,4.51-11.21,9.28-11.21,5,0,8.14,3.59,8.14,9.84a8.55,8.55,0,0,1-.11,1.6h-15.3c.07,5.37,3.22,9.21,8,9.21a9.63,9.63,0,0,0,5.72-1.89l.81,1.49a11.71,11.71,0,0,1-6.71,2.09C194.45,368.14,190.05,364,190.05,357Zm15.58-1.38c0-5.44-2.46-8.14-6.28-8.14-3.6,0-6.85,3.05-7.3,8.14Z"/><path class="cls-2" d="M211,365.2l1.14-1.43a9.81,9.81,0,0,0,6.76,2.69c3.35,0,5.09-1.95,5.09-4.2,0-2.66-2.76-3.83-5.22-4.72-3.2-1.14-6.78-2.45-6.78-6.08,0-3.07,2.43-5.66,6.86-5.66A10,10,0,0,1,225,348l-1.05,1.41a8.14,8.14,0,0,0-5.08-1.94c-3.32,0-4.82,1.91-4.82,3.88,0,2.42,2.51,3.35,5,4.3,3.3,1.26,6.95,2.34,6.95,6.49,0,3.21-2.56,6-7.17,6A12.19,12.19,0,0,1,211,365.2Z"/><path class="cls-2" d="M231.73,360V346.33h2v13.39c0,4.51,1.43,6.66,4.85,6.66,2.53,0,4.37-1.33,6.86-4.35v-15.7h2v21.28H245.7l-.21-3.56h-.1c-2.09,2.44-4.29,4.09-7.22,4.09C233.77,368.14,231.73,365.47,231.73,360Z"/><path class="cls-2" d="M256.44,361.73V348h-3.32v-1.52l3.37-.19.25-6.16h1.66v6.16h6.17V348H258.4v13.84c0,2.71.69,4.55,3.62,4.55a7.83,7.83,0,0,0,2.67-.67l.51,1.58a12,12,0,0,1-3.47.8C257.64,368.14,256.44,365.54,256.44,361.73Z"/><path class="cls-2" d="M267.94,357c0-7.12,4.44-11.21,9.55-11.21S287,349.89,287,357s-4.44,11.13-9.55,11.13S267.94,364.05,267.94,357ZM285,357c0-5.6-3.2-9.48-7.5-9.48S270,351.41,270,357s3.2,9.4,7.5,9.4S285,362.61,285,357Z"/><line class="cls-3" x1="159.12" y1="153.1" x2="212.26" y2="318.17"/><polygon class="cls-2" points="153.37 161.92 155.18 162.77 159.35 153.84 167.96 158.65 168.94 156.91 158.45 151.04 153.37 161.92"/><polygon class="cls-2" points="202.44 314.37 203.42 312.62 212.02 317.44 216.2 308.5 218.01 309.35 212.92 320.23 202.44 314.37"/><line class="cls-3" x1="288.71" y1="384.22" x2="414.31" y2="436.55"/><line class="cls-3" x1="259.04" y1="404.23" x2="315.68" y2="527.94"/><line class="cls-3" x1="195.13" y1="402.3" x2="131.22" y2="522.42"/><line class="cls-3" x1="156.31" y1="388.12" x2="49.57" y2="472.5"/><circle class="cls-3" cx="330.84" cy="561.06" r="37.01"/><circle class="cls-3" cx="443.1" cy="448.55" r="29.97"/><circle class="cls-3" cx="110.7" cy="579.8" r="61.66"/><circle class="cls-3" cx="27.9" cy="488.08" r="26.89"/><circle class="cls-4" cx="222.13" cy="358.14" r="101.29"/><path class="cls-5" d="M336.57,278.32a101.21,101.21,0,1,1-102.52-55.53"/><ellipse class="cls-5" cx="214.89" cy="344.99" rx="104.19" ry="101.29" transform="translate(-101.18 89.46) rotate(-19.13)"/><ellipse class="cls-5" cx="243.48" cy="355.59" rx="104.19" ry="101.29" transform="translate(-103.08 99.42) rotate(-19.13)"/><path class="cls-5" d="M147.28,397a101.22,101.22,0,1,1,87.16,77.45"/><ellipse class="cls-5" cx="230.69" cy="349.77" rx="101.29" ry="104.19" transform="translate(-44.31 33.65) rotate(-7.61)"/><ellipse class="cls-6" cx="224.63" cy="362.39" rx="101.29" ry="104.19" transform="translate(-46.03 32.95) rotate(-7.61)"/><path class="cls-5" d="M161.6,268.24a101.21,101.21,0,1,1-63,98.13"/></g></g></svg>