<svg xmlns="http://www.w3.org/2000/svg" viewBox="0 0 556.2 484.65"><defs><style>.cls-1{fill:#acc0b3;}.cls-2{fill:#1d1d1b;}.cls-3,.cls-4,.cls-5,.cls-6,.cls-7,.cls-8{fill:none;stroke-miterlimit:10;}.cls-3,.cls-4{stroke:#1d1d1b;}.cls-3{stroke-width:1.59px;}.cls-4{stroke-width:1.5px;}.cls-5,.cls-6,.cls-7,.cls-8{stroke:#acc0b2;}.cls-5{stroke-width:3.45px;}.cls-6{stroke-width:2.07px;}.cls-8{stroke-width:4px;}</style></defs><g id="Ebene_2" data-name="Ebene 2"><g id="Ebene_1-2" data-name="Ebene 1"><circle class="cls-1" cx="76.91" cy="76.91" r="76.89"/><path class="cls-2" d="M22.46,61.93h2V78.15h.09L38.72,61.93h2.43L31.83,72.75l10.6,18.38H40.08L30.43,74.31,24.5,81.08v10h-2Z"/><path class="cls-2" d="M46.4,83.5V69.85h2V83.24c0,4.51,1.42,6.66,4.85,6.66,2.53,0,4.37-1.33,6.86-4.35V69.85h2V91.13H60.37l-.22-3.57h-.09c-2.1,2.45-4.29,4.1-7.23,4.1C48.44,91.66,46.4,89,46.4,83.5Z"/><path class="cls-2" d="M70.62,69.85h1.65l.22,3.3h.09C74.75,71,77,69.32,79.9,69.32c4.4,0,6.44,2.66,6.44,8.16V91.13h-2V77.74c0-4.52-1.43-6.66-4.85-6.66-2.53,0-4.37,1.34-7,4v16h-2Z"/><path class="cls-2" d="M92.86,80.53c0-6.87,4.36-11.21,9.44-11.21,2.55,0,4.29,1,6.41,2.61l-.1-3.91V59.25h2V91.13h-1.65l-.22-2.76h-.09a10,10,0,0,1-6.94,3.29C96.32,91.66,92.86,87.71,92.86,80.53Zm15.75,5.88V73.79c-2.25-2-4.12-2.74-6.21-2.74-4.23,0-7.49,4.13-7.49,9.47,0,5.66,2.52,9.4,7,9.4C104.29,89.92,106.37,88.69,108.61,86.41Z"/><path class="cls-2" d="M117.38,80.53c0-6.94,4.51-11.21,9.28-11.21,5.05,0,8.15,3.59,8.15,9.84a9.57,9.57,0,0,1-.11,1.6H119.4c.07,5.37,3.21,9.21,8,9.21a9.6,9.6,0,0,0,5.71-1.89l.81,1.49a11.71,11.71,0,0,1-6.71,2.09C121.79,91.66,117.38,87.48,117.38,80.53ZM133,79.14c0-5.43-2.46-8.13-6.28-8.13-3.6,0-6.85,3-7.29,8.13Z"/><path class="cls-2" d="M245.9,231.44h1.66l.21,3.29h.1c2.17-2.16,4.38-3.83,7.32-3.83,4.39,0,6.43,2.67,6.43,8.17v13.64h-2V239.32c0-4.51-1.42-6.65-4.85-6.65-2.53,0-4.37,1.34-6.95,4v16.05h-2Z"/><path class="cls-2" d="M268.12,242.11c0-6.93,4.51-11.21,9.28-11.21,5,0,8.14,3.59,8.14,9.85a8.51,8.51,0,0,1-.11,1.59h-15.3c.07,5.38,3.22,9.21,8,9.21a9.6,9.6,0,0,0,5.72-1.88l.81,1.48a11.63,11.63,0,0,1-6.71,2.1C272.53,253.25,268.12,249.07,268.12,242.11Zm15.58-1.38c0-5.43-2.46-8.13-6.28-8.13-3.6,0-6.85,3.05-7.3,8.13Z"/><path class="cls-2" d="M289.1,250.3l1.14-1.42a9.86,9.86,0,0,0,6.76,2.69c3.35,0,5.09-2,5.09-4.2,0-2.67-2.76-3.84-5.21-4.72-3.21-1.14-6.78-2.45-6.78-6.08,0-3.07,2.42-5.67,6.86-5.67a10,10,0,0,1,6.08,2.21L302,234.52a8.11,8.11,0,0,0-5.08-1.94c-3.32,0-4.82,1.91-4.82,3.87,0,2.43,2.51,3.35,5,4.31,3.3,1.25,6.95,2.34,6.95,6.49,0,3.2-2.56,6-7.17,6A12.14,12.14,0,0,1,289.1,250.3Z"/><path class="cls-2" d="M309.8,245.08V231.44h2v13.39c0,4.51,1.43,6.65,4.85,6.65,2.53,0,4.37-1.33,6.86-4.34v-15.7h2v21.27h-1.66l-.21-3.56h-.1c-2.09,2.45-4.29,4.1-7.22,4.1C311.84,253.25,309.8,250.58,309.8,245.08Z"/><path class="cls-2" d="M334.52,246.84V233.15h-3.33v-1.53l3.37-.18.25-6.16h1.66v6.16h6.17v1.71h-6.17V247c0,2.72.69,4.56,3.62,4.56a7.63,7.63,0,0,0,2.67-.68l.51,1.59a12.38,12.38,0,0,1-3.47.8C335.71,253.25,334.52,250.65,334.52,246.84Z"/><path class="cls-2" d="M346,242.11c0-7.11,4.44-11.21,9.55-11.21s9.56,4.1,9.56,11.21-4.44,11.14-9.56,11.14S346,249.15,346,242.11Zm17.05,0c0-5.6-3.2-9.48-7.5-9.48s-7.49,3.88-7.49,9.48,3.19,9.41,7.49,9.41S363.06,247.72,363.06,242.11Z"/><line class="cls-3" x1="393.07" y1="229.57" x2="485.26" y2="173.51"/><line class="cls-4" x1="392.05" y1="257.93" x2="497.79" y2="279.4"/><line class="cls-4" x1="360.97" y1="298" x2="408.12" y2="395.05"/><line class="cls-4" x1="333.75" y1="316.26" x2="338" y2="424.08"/><circle class="cls-4" cx="526.1" cy="285.15" r="29.35"/><circle class="cls-4" cx="506.4" cy="160.65" r="23.77"/><circle class="cls-4" cx="435.32" cy="434.99" r="48.89"/><circle class="cls-4" cx="337.64" cy="445.08" r="21.6"/><circle class="cls-5" cx="307.35" cy="243.5" r="101.29"/><path class="cls-6" d="M410.55,170.32A101.2,101.2,0,1,1,308,114.79"/><ellipse class="cls-6" cx="297.04" cy="225.24" rx="104.19" ry="101.29" transform="translate(-57.41 109.77) rotate(-19.13)"/><ellipse class="cls-7" cx="325.64" cy="235.85" rx="104.19" ry="101.29" transform="translate(-59.3 119.73) rotate(-19.13)"/><path class="cls-7" d="M229.43,277.27a101.18,101.18,0,1,1,87.16,77.45"/><ellipse class="cls-6" cx="312.84" cy="230.02" rx="101.29" ry="104.19" transform="translate(-27.72 43.48) rotate(-7.61)"/><ellipse class="cls-8" cx="306.78" cy="242.65" rx="101.29" ry="104.19" transform="matrix(0.99, -0.13, 0.13, 0.99, -29.44, 42.78)"/><path class="cls-6" d="M243.76,148.49a101.19,101.19,0,1,1-63,98.14"/><line class="cls-4" x1="143.37" y1="119.06" x2="209.34" y2="167.19"/><polygon class="cls-2" points="143.77 126.95 145.25 126.66 143.84 119.4 151.18 118.53 151 117.04 142.06 118.11 143.77 126.95"/><polygon class="cls-2" points="201.71 169.21 201.53 167.72 208.88 166.85 207.47 159.59 208.94 159.3 210.65 168.15 201.71 169.21"/></g></g></svg>