<svg xmlns="http://www.w3.org/2000/svg" viewBox="0 0 474.15 642.5"><defs><style>.cls-1{fill:#e0e4e1;}.cls-2{fill:#1d1d1b;}.cls-3,.cls-5,.cls-6{fill:none;stroke:#acc0b2;stroke-miterlimit:10;}.cls-3{stroke-width:2.07px;}.cls-4{fill:#acc0b2;}.cls-5{stroke-width:3.45px;}.cls-6{stroke-width:5.42px;}</style></defs><g id="Ebene_2" data-name="Ebene 2"><g id="Ebene_1-2" data-name="Ebene 1"><circle class="cls-1" cx="133.94" cy="76.91" r="76.89"/><path class="cls-2" d="M79.48,61.93h2V78.15h.1L95.75,61.93h2.42L88.86,72.75l10.6,18.38H97.11L87.46,74.31l-5.94,6.77v10h-2Z"/><path class="cls-2" d="M103.43,83.5V69.85h1.95V83.24c0,4.51,1.43,6.66,4.85,6.66,2.54,0,4.37-1.33,6.86-4.35V69.85h2V91.13h-1.66l-.21-3.57h-.1c-2.09,2.45-4.29,4.1-7.22,4.1C105.46,91.66,103.43,89,103.43,83.5Z"/><path class="cls-2" d="M127.64,69.85h1.66l.21,3.3h.1c2.17-2.17,4.39-3.83,7.32-3.83,4.4,0,6.43,2.66,6.43,8.16V91.13h-2V77.74c0-4.52-1.43-6.66-4.85-6.66-2.54,0-4.37,1.34-7,4v16h-2Z"/><path class="cls-2" d="M149.88,80.53c0-6.87,4.36-11.21,9.44-11.21,2.55,0,4.29,1,6.42,2.61L165.63,68V59.25h2V91.13h-1.66l-.21-2.76h-.1a10,10,0,0,1-6.94,3.29C153.35,91.66,149.88,87.71,149.88,80.53Zm15.75,5.88V73.79c-2.24-2-4.11-2.74-6.2-2.74-4.23,0-7.49,4.13-7.49,9.47,0,5.66,2.52,9.4,7,9.4C161.32,89.92,163.4,88.69,165.63,86.41Z"/><path class="cls-2" d="M174.41,80.53c0-6.94,4.51-11.21,9.28-11.21,5,0,8.14,3.59,8.14,9.84a8.61,8.61,0,0,1-.11,1.6h-15.3c.07,5.37,3.22,9.21,8,9.21a9.63,9.63,0,0,0,5.72-1.89l.81,1.49a11.71,11.71,0,0,1-6.71,2.09C178.82,91.66,174.41,87.48,174.41,80.53ZM190,79.14c0-5.43-2.46-8.13-6.28-8.13-3.6,0-6.85,3-7.3,8.13Z"/><path class="cls-2" d="M167.86,346.33h1.66l.21,3.3h.1c2.17-2.17,4.39-3.83,7.32-3.83,4.39,0,6.43,2.67,6.43,8.16v13.65h-2V354.22c0-4.51-1.42-6.66-4.84-6.66-2.54,0-4.37,1.34-7,4v16.05h-2Z"/><path class="cls-2" d="M190.08,357c0-6.94,4.52-11.21,9.28-11.21,5,0,8.15,3.59,8.15,9.84a9.57,9.57,0,0,1-.11,1.6H192.1c.07,5.37,3.21,9.21,8,9.21a9.6,9.6,0,0,0,5.71-1.89l.81,1.49a11.68,11.68,0,0,1-6.71,2.09C194.49,368.14,190.08,364,190.08,357Zm15.58-1.38c0-5.44-2.46-8.14-6.28-8.14-3.6,0-6.85,3.05-7.29,8.14Z"/><path class="cls-2" d="M211.07,365.2l1.13-1.43a9.83,9.83,0,0,0,6.76,2.69c3.35,0,5.09-1.95,5.09-4.2,0-2.66-2.76-3.83-5.21-4.72-3.21-1.14-6.78-2.45-6.78-6.08,0-3.07,2.43-5.66,6.86-5.66A10,10,0,0,1,225,348l-1.06,1.41a8.09,8.09,0,0,0-5.07-1.94c-3.32,0-4.83,1.91-4.83,3.88,0,2.42,2.51,3.35,5.05,4.3,3.29,1.26,6.95,2.34,6.95,6.49,0,3.21-2.57,6-7.17,6A12.15,12.15,0,0,1,211.07,365.2Z"/><path class="cls-2" d="M231.77,360V346.33h1.95v13.39c0,4.51,1.43,6.66,4.85,6.66,2.54,0,4.37-1.33,6.86-4.35v-15.7h2v21.28h-1.66l-.21-3.56h-.1c-2.09,2.44-4.29,4.09-7.22,4.09C233.8,368.14,231.77,365.47,231.77,360Z"/><path class="cls-2" d="M256.48,361.73V348h-3.32v-1.52l3.36-.19.25-6.16h1.67v6.16h6.17V348h-6.17v13.84c0,2.71.68,4.55,3.61,4.55a7.83,7.83,0,0,0,2.67-.67l.52,1.58a12.17,12.17,0,0,1-3.48.8C257.68,368.14,256.48,365.54,256.48,361.73Z"/><path class="cls-2" d="M268,357c0-7.12,4.44-11.21,9.56-11.21s9.55,4.09,9.55,11.21-4.44,11.13-9.55,11.13S268,364.05,268,357Zm17,0c0-5.6-3.2-9.48-7.49-9.48S270,351.41,270,357s3.2,9.4,7.5,9.4S285,362.61,285,357Z"/><line class="cls-3" x1="159.18" y1="153.18" x2="212.27" y2="318.09"/><polygon class="cls-4" points="153.22 162.3 155.1 163.18 159.42 153.93 168.33 158.92 169.34 157.11 158.49 151.04 153.22 162.3"/><polygon class="cls-4" points="202.11 314.16 203.12 312.35 212.03 317.34 216.35 308.09 218.23 308.97 212.96 320.23 202.11 314.16"/><line class="cls-3" x1="288.74" y1="384.22" x2="414.34" y2="436.55"/><line class="cls-3" x1="259.08" y1="404.23" x2="315.71" y2="527.94"/><line class="cls-3" x1="195.17" y1="402.3" x2="131.26" y2="522.42"/><line class="cls-3" x1="156.34" y1="388.12" x2="49.6" y2="472.5"/><circle class="cls-3" cx="330.87" cy="561.06" r="37.01"/><circle class="cls-3" cx="443.13" cy="448.55" r="29.97"/><circle class="cls-3" cx="110.74" cy="579.8" r="61.66"/><circle class="cls-3" cx="27.93" cy="488.08" r="26.89"/><circle class="cls-5" cx="222.16" cy="358.14" r="101.29"/><path class="cls-3" d="M336.6,278.32a101.2,101.2,0,1,1-102.52-55.53"/><ellipse class="cls-3" cx="214.92" cy="344.99" rx="104.19" ry="101.29" transform="translate(-101.18 89.47) rotate(-19.13)"/><ellipse class="cls-3" cx="243.52" cy="355.59" rx="104.19" ry="101.29" transform="translate(-103.07 99.43) rotate(-19.13)"/><path class="cls-3" d="M147.31,397a101.22,101.22,0,1,1,87.16,77.45"/><ellipse class="cls-3" cx="230.72" cy="349.77" rx="101.29" ry="104.19" transform="translate(-44.31 33.65) rotate(-7.61)"/><ellipse class="cls-6" cx="224.66" cy="362.39" rx="101.29" ry="104.19" transform="translate(-46.03 32.96) rotate(-7.61)"/><path class="cls-3" d="M161.64,268.24a101.18,101.18,0,1,1-63,98.13"/></g></g></svg>