<svg xmlns="http://www.w3.org/2000/svg" viewBox="0 0 42.77 42.77"><defs><style>.cls-1{fill:#1d1d1b;}</style></defs><g id="Ebene_2" data-name="Ebene 2"><g id="Ebene_1-2" data-name="Ebene 1"><path class="cls-1" d="M42.77,21.42c0,5.65,0,11.29,0,16.94a4.3,4.3,0,0,1-4.43,4.41H4.41A4.33,4.33,0,0,1,0,39a4,4,0,0,1,0-.6v-34A4.31,4.31,0,0,1,4.38,0h34a4.3,4.3,0,0,1,4.39,4.39C42.78,10.07,42.77,15.75,42.77,21.42ZM23.53,19.54c0-.69,0-1.39,0-2.09,0-.28-.08-.34-.35-.34-1.91,0-3.81,0-5.72,0-.26,0-.35.06-.35.35q0,9.27,0,18.54c0,.28.08.35.35.35h5.65c.33,0,.43-.07.43-.42,0-3.54,0-7.08,0-10.62A3.58,3.58,0,0,1,24,23.37,3.19,3.19,0,0,1,27.66,22a3.29,3.29,0,0,1,2.28,3.27q0,5.36,0,10.73c0,.31.08.38.39.38H36c.32,0,.38-.1.38-.39,0-3.87,0-7.74,0-11.61a7.22,7.22,0,0,0-.14-1.6,7.48,7.48,0,0,0-4.52-5.48,6.18,6.18,0,0,0-5.51.12A8.06,8.06,0,0,0,23.53,19.54ZM6.43,26.71c0,3.1,0,6.19,0,9.29,0,.27.08.35.35.35h5.71c.28,0,.36-.08.36-.35q0-9.27,0-18.54c0-.28-.08-.35-.36-.35q-2.84,0-5.67,0c-.32,0-.39.09-.39.39Q6.44,22.11,6.43,26.71Zm7-17.07A3.78,3.78,0,0,0,9.62,5.79,3.75,3.75,0,0,0,5.79,9.61a3.78,3.78,0,0,0,3.8,3.85A3.82,3.82,0,0,0,13.46,9.64Z"/></g></g></svg>