<svg xmlns="http://www.w3.org/2000/svg" viewBox="0 0 52.61 52.42"><defs><style>.cls-1{fill:#1d1d1b;}</style></defs><g id="Ebene_2" data-name="Ebene 2"><g id="Ebene_1-2" data-name="Ebene 1"><path class="cls-1" d="M52.61,26.27A26.31,26.31,0,1,1,26.43,0,26.18,26.18,0,0,1,52.61,26.27ZM26.15,37.82H40.32c1.76,0,2.11-.33,2.11-2.06q0-9.55,0-19.12c0-1.68-.36-2-2-2H12.24c-1.72,0-2,.29-2,2,0,6.42,0,12.84,0,19.26,0,1.68.3,2,2,2Z"/><path class="cls-1" d="M37.48,17.78c-2.83,2.47-5.06,4.71-7.74,7.2-1,.93-2.26,2.34-3.5,2.21-1.09-.11-2.06-1.38-3.07-2.39-2.18-2.16-4.64-4-7-6.05-.29-.26-1-.46-1.1-1Z"/><path class="cls-1" d="M37.25,35.09H15.46L19,32,21,30.14c2-1.79,2.06-1.81,4.12-.1A1.63,1.63,0,0,0,27.54,30c2-1.73,2.06-1.71,4,0C33.38,31.62,35.17,33.24,37.25,35.09Z"/><path class="cls-1" d="M12.85,33.85V19.66c.43-.19.59.18.81.37,2.21,1.92,4.4,3.86,6.63,5.76.61.52.79.8.05,1.42C17.88,29.31,15.5,31.49,12.85,33.85Z"/><path class="cls-1" d="M39.74,19.33v14.4l-3.38-3c-1.37-1.22-2.72-2.46-4.12-3.64-.58-.49-.54-.8,0-1.28C34.7,23.75,37.1,21.63,39.74,19.33Z"/></g></g></svg>