<svg xmlns="http://www.w3.org/2000/svg" viewBox="0 0 53.54 53.36"><defs><style>.cls-1{fill:#1d1d1b;}</style></defs><g id="Ebene_2" data-name="Ebene 2"><g id="Ebene_1-2" data-name="Ebene 1"><path class="cls-1" d="M26.9,53.36h-.5A26.41,26.41,0,0,1,0,26.94v-.53A26.4,26.4,0,0,1,26.41,0h.72A26.4,26.4,0,0,1,53.54,26.41v.66A26.28,26.28,0,0,1,27.26,53.36Zm0-41.26c-2.18,0-4.36,0-6.53.13a9.39,9.39,0,0,0-3.46.83,7.41,7.41,0,0,0-4.15,5.1,16,16,0,0,0-.4,3.9q-.09,4.62,0,9.25a17.29,17.29,0,0,0,.31,3.51,7.51,7.51,0,0,0,6,6,17.88,17.88,0,0,0,4,.34c2.84,0,5.69,0,8.53,0A18.23,18.23,0,0,0,35,40.9a7.52,7.52,0,0,0,6.14-6.18,19.21,19.21,0,0,0,.3-3.86q0-4.18,0-8.36a19.09,19.09,0,0,0-.31-3.92,7.49,7.49,0,0,0-5.46-6,15.49,15.49,0,0,0-4-.47C30.08,12.1,28.49,12.1,26.91,12.1Z"/><path class="cls-1" d="M26.91,14.71c1.74,0,3.48,0,5.22,0a11.76,11.76,0,0,1,2.9.37A4.89,4.89,0,0,1,38.55,19a12.48,12.48,0,0,1,.26,2.58c.09,3.42.09,6.83,0,10.25a11.36,11.36,0,0,1-.32,2.84,5,5,0,0,1-4.1,3.73,12.7,12.7,0,0,1-2.3.21c-3.17.09-6.34.08-9.51,0a21.81,21.81,0,0,1-2.92-.19A5.15,5.15,0,0,1,16,36.2a5.66,5.66,0,0,1-.86-2.52,46,46,0,0,1-.19-5.5c0-2.22,0-4.44.05-6.65a11.61,11.61,0,0,1,.37-3A4.89,4.89,0,0,1,19.15,15a13.31,13.31,0,0,1,2.52-.27C23.41,14.69,25.16,14.73,26.91,14.71Zm-7.48,12a7.48,7.48,0,1,0,7.45-7.47A7.47,7.47,0,0,0,19.43,26.67Zm15.2-6a1.74,1.74,0,1,0-1.71-1.76A1.75,1.75,0,0,0,34.63,20.65Z"/><path class="cls-1" d="M26.9,31.54a4.87,4.87,0,1,1,4.87-4.87A4.86,4.86,0,0,1,26.9,31.54Z"/></g></g></svg>