<svg xmlns="http://www.w3.org/2000/svg" viewBox="0 0 309.39 301.06"><defs><style>.cls-1{fill:#acc0b3;}.cls-2{fill:#c6d2ca;}.cls-3{fill:#17161b;}.cls-4{fill:#333;}.cls-5{fill:#e0e4e1;}</style></defs><g id="Ebene_2" data-name="Ebene 2"><g id="Ebene_1-2" data-name="Ebene 1"><path class="cls-1" d="M78.59,165.75S77,161.94,76.33,162s-.08,7.16,1.32,9.43S78.59,165.75,78.59,165.75Z"/><path class="cls-2" d="M76.16,142.28c-2.45,1.55-4.51,4.11-4.22,7.18a4.69,4.69,0,0,0,5.37,4.38c.32-.06.18-.54-.13-.48-2.69.53-4.77-1.93-4.77-4.45,0-2.68,1.84-4.83,4-6.2.27-.17,0-.6-.25-.43Z"/><path class="cls-2" d="M74.8,142.59a6.49,6.49,0,0,0-4.43,8c1.13,3.84,5.24,5.28,8.68,6.3a.25.25,0,0,0,.14-.48c-3.13-.93-6.93-2.16-8.2-5.52a6,6,0,0,1,3.94-7.82c.3-.09.17-.57-.13-.48Z"/><path class="cls-3" d="M76.69,121.82a7.48,7.48,0,0,0-1.47,7.88c.12.29.6.16.48-.13a7,7,0,0,1,1.34-7.4c.22-.23-.13-.59-.35-.35Z"/><path class="cls-3" d="M77.65,118.62a7.61,7.61,0,0,0-3,12.17c.21.24.56-.11.35-.35a7.13,7.13,0,0,1,2.77-11.35c.29-.11.16-.59-.13-.47Z"/><path class="cls-3" d="M78.22,115.37a9.4,9.4,0,0,0-4,15.57c.22.23.57-.12.35-.35a8.91,8.91,0,0,1,3.77-14.74.25.25,0,0,0-.13-.48Z"/><path class="cls-3" d="M82.89,196A32.06,32.06,0,0,1,69,215.57c-.27.17,0,.6.25.43a32.55,32.55,0,0,0,14.08-19.88c.07-.31-.41-.44-.48-.13Z"/><path class="cls-3" d="M74.93,141.26a8.1,8.1,0,0,0-6.41,9.26c.79,4.64,5.32,7.25,9.68,7.62.32,0,.32-.47,0-.5-4.07-.35-8.27-2.71-9.15-7a7.6,7.6,0,0,1,6-8.9c.32-.06.18-.54-.13-.48Z"/><path class="cls-3" d="M79.17,158.44c-.58-1.12-1.81-2.85-3.3-1.95-1.29.78-.71,2.72-.47,3.87.41,2,.75,4,1.26,6a6.3,6.3,0,0,0,2.22,3.75c.26.18.51-.25.25-.43a5.52,5.52,0,0,1-1.92-3.17c-.39-1.38-.62-2.81-.91-4.22L75.82,160a7.31,7.31,0,0,1-.25-1.91c.06-.91.71-1.53,1.64-1.17a3.4,3.4,0,0,1,1.53,1.8c.14.28.57,0,.43-.25Z"/><path class="cls-3" d="M76.29,161.92c3.15.13,3.33,4.27,3.2,6.6-.15,2.65-.87,5.23-1.26,7.85-.55,3.67-.36,7.67,2.39,10.46.22.23.57-.12.35-.35-4.08-4.14-2.11-10.25-1.3-15.24.48-3,1.15-9.64-3.38-9.82-.32,0-.32.49,0,.5Z"/><path class="cls-3" d="M76.85,141.93a12,12,0,0,0-4.48,3.73,5.34,5.34,0,0,0-.46,4.62c1.28,3.54,5,5,8.43,5.43.31,0,.44-.44.13-.48-3.19-.43-6.72-1.65-8-4.89a4.88,4.88,0,0,1,.45-4.61,12,12,0,0,1,4.19-3.37.25.25,0,0,0-.25-.43Z"/><path class="cls-3" d="M81.19,168.4l2-2.56a.25.25,0,1,0-.43-.25l-1.95,2.56a.26.26,0,0,0,.09.34.25.25,0,0,0,.34-.09Z"/><path class="cls-3" d="M81.67,166.25l1.39-3.34a.25.25,0,0,0-.48-.13l-1.39,3.34a.25.25,0,0,0,.17.3.26.26,0,0,0,.31-.17Z"/><path class="cls-3" d="M81.53,163.14l1.71-2.94a.24.24,0,0,0-.42-.25l-1.72,2.94a.25.25,0,0,0,.43.25Z"/><path class="cls-3" d="M82,160.38a12.65,12.65,0,0,0,1.43-3.46.25.25,0,0,0-.48-.13,12.21,12.21,0,0,1-1.38,3.34c-.17.28.26.52.43.25Z"/><path class="cls-3" d="M81.69,158.15A15.4,15.4,0,0,0,83.93,154c.11-.3-.36-.43-.47-.13a15.3,15.3,0,0,1-2.2,4,.25.25,0,0,0,.09.34.27.27,0,0,0,.34-.09Z"/><path class="cls-3" d="M81.77,114.13a32.67,32.67,0,0,0-3.22,21.59c.06.31.54.18.48-.13a32.12,32.12,0,0,1,3.17-21.21c.15-.28-.28-.53-.43-.25Z"/><path class="cls-4" d="M146.49,271.5A131.13,131.13,0,0,1,51.54,50a131.13,131.13,0,0,1,190.08,180.7,130.25,130.25,0,0,1-91.73,40.74C148.76,271.49,147.62,271.5,146.49,271.5Zm.17-261.12c-1.12,0-2.24,0-3.37,0C71.64,12.24,14.82,72,16.63,143.66c1.79,70.53,59.74,126.69,129.9,126.7,1.11,0,2.22,0,3.33-.05A130,130,0,0,0,236.14,46.16,129.13,129.13,0,0,0,146.66,10.38Z"/><path class="cls-4" d="M119.05,240.06A119.27,119.27,0,0,1,0,122.32H1a118.07,118.07,0,1,0,76.9-112l-.36-1A119.09,119.09,0,0,1,227.4,170.46a119.4,119.4,0,0,1-108.35,69.6Z"/><path class="cls-4" d="M147.18,271.12a117.44,117.44,0,0,1-63.63-18.91A125,125,0,0,1,44.28,83.51a116.76,116.76,0,0,1,164-38.19,123.48,123.48,0,0,1,53.61,76.44h0A123.43,123.43,0,0,1,247.59,214a116.9,116.9,0,0,1-100.41,57.11Zm-2.5-243.67a115.79,115.79,0,0,0-26.28,3C55,45.24,15.78,110.31,31,175.53,44.06,231.77,93.41,270,147.4,270.05a115.7,115.7,0,0,0,99.3-56.57A123.91,123.91,0,0,0,207.75,46.2,116.34,116.34,0,0,0,144.68,27.45Z"/><path class="cls-4" d="M145.22,284.73a117.41,117.41,0,0,1-63.63-18.91A125,125,0,0,1,42.31,97.12a116.77,116.77,0,0,1,164-38.19A123.46,123.46,0,0,1,260,135.37h0a123.46,123.46,0,0,1-14.33,92.26,116.91,116.91,0,0,1-100.4,57.1ZM142.71,41.06A115.95,115.95,0,0,0,43.2,97.66a123.91,123.91,0,0,0,39,167.28,116.42,116.42,0,0,0,63.07,18.75,115.95,115.95,0,0,0,99.51-56.6A123.91,123.91,0,0,0,205.78,59.81,116.37,116.37,0,0,0,142.71,41.06Z"/><path class="cls-4" d="M161.07,252.74a117.44,117.44,0,0,1-63.63-18.91A125,125,0,0,1,58.16,65.14a116.76,116.76,0,0,1,164-38.2,123.48,123.48,0,0,1,53.61,76.44h0a123.5,123.5,0,0,1-14.33,92.26,116.91,116.91,0,0,1-100.41,57.1ZM158.35,9.1A115.68,115.68,0,0,0,59.06,65.67a122.42,122.42,0,0,0-14.21,91.49C60,222.37,124,263.43,187.36,248.67s102.62-79.83,87.43-145C261.7,47.38,212.35,9.1,158.35,9.1Z"/><path class="cls-4" d="M176.7,249.06A119.11,119.11,0,0,1,82.8,57a119.12,119.12,0,0,1,210.43,98.73l-1-.23a118.08,118.08,0,1,0-100.43,91.55l.14,1A120.38,120.38,0,0,1,176.7,249.06Z"/><path class="cls-4" d="M167.48,254.85A120.27,120.27,0,0,1,146.41,253,119.09,119.09,0,0,1,99,38.1,119.09,119.09,0,0,1,235.42,233.36,118.29,118.29,0,0,1,167.48,254.85Zm-.31-237.18a118.21,118.21,0,1,0,20.68,1.83A118.25,118.25,0,0,0,167.17,17.67Z"/><path class="cls-4" d="M190,238.22a119.11,119.11,0,0,1-96-189.28A119.23,119.23,0,0,1,212.66,2.11l-.19,1a118.07,118.07,0,0,0-91.76,211.35A118,118,0,0,0,306.9,100.85l1-.16a119.09,119.09,0,0,1-99.24,136.07A120.31,120.31,0,0,1,190,238.22Z"/><path class="cls-4" d="M150.37,264.85a123.32,123.32,0,0,1-84-32.51A116.77,116.77,0,0,1,61.74,64a125,125,0,0,1,173.14-4.81,116.78,116.78,0,0,1,4.68,168.36A123.49,123.49,0,0,1,154,264.8C152.76,264.83,151.56,264.85,150.37,264.85Zm3.56-1.09v0C220.86,261.9,273.85,207.45,272,142.38S214.3,25.9,147.37,27.75,27.44,84.06,29.25,149.13,87,265.61,153.93,263.76Z"/><path class="cls-4" d="M142.23,259.16a123.3,123.3,0,0,1-83.95-32.51A116.76,116.76,0,0,1,53.6,58.29a125,125,0,0,1,173.14-4.81,116.76,116.76,0,0,1,4.68,168.36,123.48,123.48,0,0,1-85.6,37.27l0-.53,0,.53C144.62,259.14,143.42,259.16,142.23,259.16ZM142.75,22c-1.17,0-2.34,0-3.52,0C72.29,23.92,19.3,78.37,21.11,143.44S78.85,259.91,145.79,258.06a122.4,122.4,0,0,0,84.88-36.95,115.59,115.59,0,0,0,33.23-84.42C262.13,72.77,208.11,22,142.75,22Z"/><path class="cls-4" d="M165.43,279.89a123.34,123.34,0,0,1-83.95-32.5A116.77,116.77,0,0,1,76.8,79a125,125,0,0,1,173.14-4.81,116.78,116.78,0,0,1,4.68,168.36A123.44,123.44,0,0,1,169,279.84l0-.52,0,.52C167.82,279.87,166.62,279.89,165.43,279.89ZM166,42.75c-1.17,0-2.34,0-3.52,0C95.49,44.66,42.5,99.11,44.31,164.17c1.78,63.93,55.79,114.68,121.16,114.68,1.17,0,2.34,0,3.52-.05a122.4,122.4,0,0,0,84.88-37,115.62,115.62,0,0,0,33.23-84.42C285.33,93.5,231.31,42.75,166,42.75Z"/><path class="cls-4" d="M162.14,301.06q-4.53,0-9.09-.35a118.74,118.74,0,0,1-39.58-9.94l.43-.95A118.07,118.07,0,1,0,44.24,173.14l-1-.08a119.07,119.07,0,1,1,118.94,128Z"/><circle class="cls-4" cx="155.42" cy="141.35" r="127.02"/><path class="cls-5" d="M115.36,215.68s-6.79,37.73-34.75,37.42a256.28,256.28,0,0,0,36.59,17.1c25.17,9.25,59.88,4.66,81.48-2.55,21.14-7.07,25.63-12.52,25.63-12.52s-12.56.4-25.38-19.87c-3.39-5.35-6.49-21-5.9-25.14s-43.28,19.69-53.49,15.69S115.36,215.68,115.36,215.68Z"/><path class="cls-2" d="M121.69,203.78c1.71,5.9,3.45,11.86,6.37,17.27s7.16,10.3,12.73,12.91c10.15,4.75,22.65.84,31.05-6.58s13.57-17.72,18.54-27.76"/><path class="cls-2" d="M112.12,206.42c2.31,8,4.77,16.27,9.53,23.16,5,7.26,12,13.37,20.77,15.42,16.48,3.84,33-4.79,43-17.64,5.49-7.06,9.62-14.75,13.58-22.73a10.56,10.56,0,0,0,1-7.65,9.92,9.92,0,0,0-12.2-6.93,9.87,9.87,0,0,0-5.93,4.56c-3.55,7.16-7.16,14.35-12,20.72l1.55-2a48.69,48.69,0,0,1-8.29,8.5l2-1.55a37.71,37.71,0,0,1-8,4.69l2.37-1a33,33,0,0,1-8.09,2.25l2.63-.35a27.47,27.47,0,0,1-6.72,0l2.63.35a23.59,23.59,0,0,1-5.77-1.56l2.37,1a24.55,24.55,0,0,1-5-3l2,1.55a30.39,30.39,0,0,1-5.21-5.3l1.55,2a43,43,0,0,1-5.19-9.11l1,2.37a120.91,120.91,0,0,1-4.39-13.12,10.29,10.29,0,0,0-4.56-5.93,10.14,10.14,0,0,0-7.64-1c-5.06,1.64-8.48,6.87-6.93,12.21Z"/><path class="cls-5" d="M138,37S99.3,50.09,93.18,84.61c0,0-1.82,33.67-1.89,36.37s-5.94.15-2.16,10.6,2.9,13,3.38,16.14,3.06,8.84,3.06,8.84,2,31.44,9.15,43.83,18.36,28.32,28.08,35.78,22.22,12.82,37.32.88,30.12-27.72,32.85-39.76A239.38,239.38,0,0,1,211,171.14a9.44,9.44,0,0,0,5.57-8c.36-6,1.29-9.46,3.24-12.34s-.66-6.17,2.27-10.5,2.7-17.3-1.3-15.28c0,0,6.69-21.22.95-26.61s4.64-20.77-2.25-28.8-22-27.9-41.21-30.25c0,0-9.88-11.24-14.61-11.12s-12.61-14-25.91.66A5.34,5.34,0,0,0,138,37Z"/><path class="cls-1" d="M137.71,217.1c10.47,6.89,25.21,2.46,33.47-5.87a1,1,0,0,0-1.4-1.4c-7.66,7.72-21.33,12-31.07,5.55-1.07-.7-2.07,1-1,1.72Z"/><path class="cls-2" d="M142,191.27l-1.65-1.39a3.83,3.83,0,0,0-1-.73,1.38,1.38,0,0,0-1.52.27,1.33,1.33,0,0,0-.15,1.62,2.05,2.05,0,0,0,1.14.77l.12.05s-.18-.08-.08,0l.17.09.41.2c.25.15.49.31.73.48s0,0-.05,0l.11.08.19.17c.12.1.24.22.35.33s.23.24.33.36.18.22.09.1,0,0,0,0l.09.13a1,1,0,0,0,1.36.36,1,1,0,0,0,.36-1.36,10.56,10.56,0,0,0-2-2.87,3.46,3.46,0,0,0-1.61-1,2,2,0,0,0-2,.57l1.56,1.2.06-.11c.1-.16-.1.11,0,0l.08-.09c.07-.06.15-.08,0,0l.21-.13c.15-.09-.16,0,0,0l.14,0a1,1,0,1,0-.52-1.91,2.54,2.54,0,0,0-1.58,1.21,1,1,0,0,0,.25,1.28,1,1,0,0,0,1.3-.08l.1-.1c.07-.09-.2.12,0,0s-.22.05,0,0l.11,0c-.2.07-.16,0,0,0s-.18-.05-.06,0l.14,0c.17.05-.13-.07,0,0l.28.17c.1.06-.16-.14,0,0l.12.11a6.14,6.14,0,0,1,.51.51c.16.17.31.35.46.53s-.08-.11,0,0a1.71,1.71,0,0,1,.11.14l.2.28a10.62,10.62,0,0,1,.72,1.27l1.72-1a7.81,7.81,0,0,0-3.16-2.65l-.63-.26c-.2-.07.2.11,0,0l.06,0a.64.64,0,0,1,.13.26.71.71,0,0,1-.46.82l-.16,0a.55.55,0,0,1-.28-.07.41.41,0,0,1,.11.07l0,0,.21.18,1.8,1.52a1,1,0,0,0,1.4,0,1,1,0,0,0,0-1.41Z"/><path class="cls-2" d="M161.53,146s-7.13,1.26-5.33,8.24,3.74,24.91,4.63,28c0,0,5.16-4.32,7.37.22,0,0,1.2-.57-2.35-7.38s-7.33-17.45-5.76-22S160.73,146.39,161.53,146Z"/><path class="cls-2" d="M137.31,154.05a14.94,14.94,0,0,1-9.15,6.87s9.43.18,10.62-3.29S138.55,153.85,137.31,154.05Z"/><path class="cls-2" d="M132.89,141s13.91,7.75,11,16.17l-7,7.72s5.42-4.8,4.35-9.71S134.86,141.31,132.89,141Z"/><path class="cls-2" d="M202.15,116.73s-4.86,8.33-2.66,10.91,4.5,1.71,6,7.45,1.93,23.84,1.93,23.84,5.57-16.12,4.7-30.39S207.63,105,206.19,108,202.15,116.73,202.15,116.73Z"/><path class="cls-1" d="M95.06,147s2.7-10.88,1.44-34.09S107.37,77.73,113,75s24.94-8.06,33-.83c0,0,8.3-8.73,23.72-2.76S204.2,88,210,113.93c0,0,1.79,23.33,2.43,25.65s3.23.53,3.76-2.63,2.25-11,4.66-12.08-.28-7.09.17-9.13,3.17-27.24-.8-31.6,7.29-12.55-10.37-25.39S185.59,39,179,37.94s-9.27-10.1-16.53-10.38-7.07-16.95-26.15,2.19c0,0-5.25,8.69-4.66,12.13,0,0-33.28,10.83-40.31,42.69S91.7,121,92.38,126.4,95.06,147,95.06,147Z"/><path class="cls-1" d="M219.69,134a59.36,59.36,0,0,1,1.71,6.38c0,1,3-7.85,1.11-9.49S219.69,134,219.69,134Z"/><path class="cls-1" d="M215.1,150.25s-.61,2.76.81,2.72,2.5-2.85,2.06-3.7C216.84,147.07,215.1,150.25,215.1,150.25Z"/><path class="cls-1" d="M136.29,139.11s.72-6-6.65-8.82-15.87-5.28-19-5.4-10.41,2.23-10.25,8.78c0,0-1.61,3,1.32,1.31s1.9-4.91,9.68-4.43S127.44,134,136.29,139.11Z"/><path class="cls-1" d="M166.44,139.76s5.15-7.49,12.13-9.56,17.46-7.13,25.11,4c0,0-3.79-2.5-12.83-2.07a35.15,35.15,0,0,0-16.56,5.21C173.09,138,166.44,139.76,166.44,139.76Z"/><path class="cls-1" d="M167.23,149c4-3.91,9.58-5.57,15.07-5.82a17.37,17.37,0,0,1,9,1.69c2.25,1.16,4.33,2.62,6.86,3.07.31.06.44-.42.13-.48-3-.54-5.39-2.54-8.17-3.69a18.9,18.9,0,0,0-8.57-1c-5.36.37-10.73,2.1-14.63,5.92a.25.25,0,0,0,.35.35Z"/><path class="cls-1" d="M167.56,150.22a1.24,1.24,0,0,0-.87,1,3.75,3.75,0,0,0-.09.75.54.54,0,0,0,.37.57,1.66,1.66,0,0,0,1.44-.07,4.43,4.43,0,0,1,.62-.3,2.49,2.49,0,0,1,.76-.14c.32,0,.32-.51,0-.5a3,3,0,0,0-1.19.28,2.09,2.09,0,0,1-1.07.37,1.22,1.22,0,0,1-.26-.06s-.16,0-.18-.06a.77.77,0,0,1,0-.3,1.27,1.27,0,0,1,0-.28c.06-.32.2-.67.56-.74s.18-.55-.14-.48Z"/><path class="cls-1" d="M133.6,144.84c-3.14-3.88-8.12-5.2-12.93-5.35a30.57,30.57,0,0,0-8.1.59c-2.62.64-5.11,2.19-7.52,3.34-.29.14,0,.57.25.43,2.31-1.1,4.69-2.56,7.17-3.23a27.91,27.91,0,0,1,7.74-.65c4.83.09,9.87,1.3,13,5.22.2.25.55-.11.35-.35Z"/><path class="cls-1" d="M133.68,148.29a14,14,0,0,1,1.43,1.11c.23.2.45.41.66.62a1.06,1.06,0,0,1,.36.69,1.21,1.21,0,0,0,0,.19s0,.08,0,0,0,0,0,0a3,3,0,0,0-.32-.07,3.46,3.46,0,0,1-.62-.28c-.41-.24-.79-.52-1.19-.77a3.44,3.44,0,0,0-1.48-.54c-.31,0-.31.46,0,.49,1.07.1,1.84,1,2.78,1.43.39.18,1.32.5,1.3-.24a1.59,1.59,0,0,0-.23-.88,4.09,4.09,0,0,0-.67-.71,14.93,14.93,0,0,0-1.81-1.45c-.26-.18-.51.25-.25.43Z"/><path class="cls-1" d="M163.44,182.32a2.07,2.07,0,0,1,2.79-1.63,3.2,3.2,0,0,1,1.66,2.38,10.37,10.37,0,0,1-.24,6.47,5.1,5.1,0,0,1-1.86,2.25,6.68,6.68,0,0,1-3.07.83c-1.82.15-3.74.11-5.28,1.24-.26.19,0,.62.25.43,1.67-1.23,3.79-1,5.74-1.25a5.54,5.54,0,0,0,4.26-2.52,8.88,8.88,0,0,0,1-5.68c-.16-1.49-.38-3.36-1.7-4.31a2.56,2.56,0,0,0-4,1.65c-.06.32.41.45.47.14Z"/><path class="cls-1" d="M135.91,181.29a5.25,5.25,0,0,0-1.3,4.86,5.33,5.33,0,0,0,1.22,2.25,5,5,0,0,1,1.58,2.51c0,.31.52.18.48-.13-.24-1.75-2.07-2.66-2.65-4.26a4.73,4.73,0,0,1,1-4.88c.23-.23-.13-.58-.35-.35Z"/><path class="cls-1" d="M138,190.46a1,1,0,0,1,0-1.45,1.44,1.44,0,0,1,1.6-.14,8.09,8.09,0,0,1,2.39,2.48c1.26,1.65,2.55,3.37,4.57,4.13.3.11.43-.37.13-.48-2.72-1-3.91-3.87-5.85-5.8a2.43,2.43,0,0,0-2.82-.8,1.48,1.48,0,0,0-.35,2.41c.24.21.59-.14.35-.35Z"/><path class="cls-1" d="M124.47,156.12a9,9,0,0,0,7-.83.25.25,0,0,0-.25-.43,8.45,8.45,0,0,1-6.63.78.25.25,0,0,0-.13.48Z"/><path class="cls-1" d="M215.15,166a4,4,0,0,1,.36,5.14,3.68,3.68,0,0,1-5,1.1c-.27-.17-.52.26-.25.43a4.12,4.12,0,0,0,4.64-.21,4.76,4.76,0,0,0,1.79-4.32,4,4,0,0,0-1.22-2.49c-.24-.21-.59.14-.35.35Z"/><path class="cls-1" d="M213.24,165.56a3.22,3.22,0,0,0-1.77,1.15,1.36,1.36,0,0,0,.18,1.79,1.56,1.56,0,0,0,1.9.09,2.12,2.12,0,0,0,.91-1.75,1.28,1.28,0,0,0-.49-1,1,1,0,0,0-1-.11.25.25,0,0,0-.09.34.26.26,0,0,0,.34.09.52.52,0,0,1,.49.11.81.81,0,0,1,.24.63,1.62,1.62,0,0,1-.63,1.25,1.1,1.1,0,0,1-1.3,0,.89.89,0,0,1-.13-1.22,2.77,2.77,0,0,1,1.47-.93.24.24,0,0,0,.18-.3.25.25,0,0,0-.31-.17Z"/><path class="cls-1" d="M212.8,140.27a32.06,32.06,0,0,1-.15,13.72c-.07.31.41.44.48.13a32.68,32.68,0,0,0,.15-14c-.07-.31-.55-.18-.48.14Z"/><path class="cls-2" d="M220.68,111.61a25.09,25.09,0,0,1,21,28.76c-.05.31.43.45.47.13a25.59,25.59,0,0,0-21.35-29.37c-.31,0-.44.42-.13.48Z"/><path class="cls-2" d="M220.91,117.94l2-4.54c.13-.29-.3-.54-.43-.25l-2,4.54c-.12.29.31.54.43.25Z"/><path class="cls-2" d="M220.86,119.39a28.4,28.4,0,0,0,3.39-5.84c.13-.29-.3-.54-.43-.25a28.4,28.4,0,0,1-3.39,5.84c-.19.25.24.5.43.25Z"/><path class="cls-2" d="M220.74,120.47c1.31.27,2.27-.75,2.91-1.76.78-1.26,1.53-2.54,2.29-3.81a.24.24,0,0,0-.42-.25c-.69,1.13-1.37,2.27-2.05,3.4-.55.91-1.35,2.2-2.6,2-.31-.07-.44.41-.13.47Z"/><path class="cls-2" d="M222.41,108.84c5.66,4.07,13.08,5.66,17.88,10.93,6,6.6,5.32,16.23,4.61,24.46,0,.32.47.32.49,0,.71-8.15,1.35-17.47-4.23-24.22-4.77-5.76-12.61-7.36-18.5-11.6-.26-.18-.51.25-.25.43Z"/><path class="cls-2" d="M221.66,107c5,4.84,11.8,6.81,17.82,10a24.66,24.66,0,0,1,8.35,6.64A20.85,20.85,0,0,1,251.58,134c.5,4.68-.16,9.4-.8,14,0,.31.43.45.48.13,1-7.49,2.1-15.67-1.67-22.62-3.43-6.31-10.27-9.22-16.48-12-4-1.8-7.93-3.75-11.1-6.81-.23-.22-.58.13-.35.35Z"/><path class="cls-1" d="M214.61,53.82a15.65,15.65,0,0,1,6.85,11.75c.58,5.39-1.13,10.72-3.37,15.54-.13.29.3.54.43.26,2.36-5.09,4.14-10.73,3.37-16.39a16,16,0,0,0-7-11.59c-.27-.17-.52.26-.25.43Z"/><path class="cls-1" d="M175.82,146.89a5.66,5.66,0,0,0,1.44,5.56,5.5,5.5,0,0,0,9.24-3,3.7,3.7,0,0,0-.69-3,4.19,4.19,0,0,0-2.86-1.29,11.16,11.16,0,0,0-7,1.64c-1.08.67-.08,2.39,1,1.71a9.29,9.29,0,0,1,4.66-1.42c1.12,0,3,0,3,1.49a3.47,3.47,0,0,1-1.89,3.05,3.52,3.52,0,0,1-4.95-4.2,1,1,0,0,0-1.92-.53Z"/><path class="cls-1" d="M177,148.61a5,5,0,0,0,1.49,2.66,2.7,2.7,0,0,0,3.16.3,4,4,0,0,0,1.44-3.23,2,2,0,0,0-2.78-1.65,2.14,2.14,0,0,0-1.13,1.47,3.57,3.57,0,0,0,.36,2.22l1.12-1.46-.3-.11c.13.05-.12-.07-.15-.08s-.26-.17-.14-.08c0,0-.2-.22-.1-.08,0,0-.17-.23-.06-.09,0-.12,0-.12,0,0l0,.09c0-.17,0,0-.06.06.11-.16-.08,0,.07-.06s-.1,0,.1-.05l.26-.07q.31-.08.63-.12l.19,0h.34c.12,0,.15,0,.07,0l.11,0,.22.05.05,0c-.1,0,.13.08.16.1s.05,0,0,0l.1.09s.2.21.14.14.08.13.1.16.12.26.09.16,0,.15.05.18a.68.68,0,0,1,0,.14c0-.1,0-.12,0,0s0,.3,0,.18,0,.14,0,.18a.93.93,0,0,1,0,.13c0-.09,0-.1,0,0s-.09.15-.14.23,0,.05,0,0l-.09.1s-.21.2-.13.14-.13.08-.16.1l-.12.06h0l-.31.08a1,1,0,0,0,0,1.91,2.66,2.66,0,0,0,3.09-1.28A5.31,5.31,0,0,0,185,148l-1.85.5a1.88,1.88,0,0,1,.16.39,1.57,1.57,0,0,0,0,.2s0,0,0,0,0,.06,0,0l0,.08,0-.07c-.05.09-.05.1,0,0h0c-.11,0,.07,0,.09-.06h-.12c.07,0,0,0-.1,0l-.25,0-.62-.1-1.25-.2a1,1,0,0,0-1.22.7,1,1,0,0,0,.69,1.22l1.75.27a3,3,0,0,0,2,0,1.88,1.88,0,0,0,.95-1.45,3.35,3.35,0,0,0-.44-1.88,1,1,0,0,0-1.84.5c0,.35.05.7,0,1.06,0,.09,0,.19,0,.29s0,.31,0,.11c0,.17-.08.33-.13.49s.06-.1,0,.06-.09.15-.15.23c.11-.14-.06.05-.09.08s0,0-.07,0-.19.1-.06,0a1.43,1.43,0,0,1-.28.07c.2,0-.09,0-.11,0,.17,0-.06,0-.11,0v1.91a3.13,3.13,0,0,0,2.26-2,3,3,0,0,0-.59-3,3.23,3.23,0,0,0-2.94-1c-1.07.13-2.44.39-2.79,1.6a2.1,2.1,0,0,0,.47,1.9,3.73,3.73,0,0,0,1.67,1,1,1,0,0,0,1-.35,1,1,0,0,0,.08-1.1c.05.1,0-.16-.06-.18s-.07-.22-.09-.33c0,.13,0-.17,0-.17v-.09s0,0,0-.06c-.12.16,0-.09.06-.1-.14.19.12-.15,0,0q.13-.06,0,0c-.06,0,0,0,.05,0-.08,0-.24,0-.09,0-.08,0-.16-.15-.07,0-.09-.14,0,.05.05.09-.08-.14,0,.05,0,.11,0-.15,0,0,0,.09h0a.94.94,0,0,1,0,.16c0,.06-.07.25-.07.25a4.07,4.07,0,0,1-.26.5s-.13.2-.05.1-.22.21-.1.12c-.06.05-.24.11-.08.06-.08,0-.25,0-.07,0h-.27c.21,0,0,0-.08,0s-.27-.12-.1,0l-.24-.14c.15.09-.05-.05-.08-.07a2.2,2.2,0,0,1-.2-.23l-.08-.12c-.05-.09-.1-.18-.14-.27s-.13-.28-.07-.13l-.09-.24c-.07-.21-.14-.42-.2-.63a1,1,0,0,0-1.91.53Z"/><path class="cls-1" d="M117.69,143.84a7.14,7.14,0,0,0,.58,3.68,3.72,3.72,0,0,0,2.55,2,25.24,25.24,0,0,0,3.89.23c1.2.05,2.47.14,3.31-.88a5.5,5.5,0,0,0,1-3,2.62,2.62,0,0,0-1.74-2.66,13.6,13.6,0,0,0-7.29-1c-1.35.18-2.61.84-2.75,2.34s.87,2.48,2,3.25c.66.46,1.45-.18,1.5-.86l.06-1,0-.45v-.18c0-.23,0-.24,0,0l-.35.35c-.13.09-.41,0-.09.06l.36.06.81.15,1.53.27,1.53.27a7.62,7.62,0,0,0,.84.18,1.93,1.93,0,0,1,0-.34l-.4,0c-.52,0-1,0-1.57,0l-1.6,0h-1.38c-.2,0-.1,0,.32.19l.13.5c0-.23.29-.47.53-.57a2.17,2.17,0,0,1,1.26-.08c1.11.22,2.12.79,3.23,1l.53-1.91-4.76-.64.69,1.22c.21-.62,1.19-.51,1.68-.4a9,9,0,0,1,1.35.38c.26.11.51.24.58.51a1,1,0,0,0,1.91-.52c-.41-1.59-2.23-2.11-3.66-2.35s-3.23.22-3.77,1.85a1,1,0,0,0,.69,1.22l4.76.64a1,1,0,1,0,.53-1.91c-1.93-.4-3.76-1.71-5.77-.85a2.72,2.72,0,0,0-1.76,2.15,1.37,1.37,0,0,0,.62,1.29,3,3,0,0,0,1.54.25l3.19,0c1,0,2.2,0,2.81-.94a1.75,1.75,0,0,0-.8-2.49,11,11,0,0,0-2.9-.64l-1.71-.3a4.75,4.75,0,0,0-1.79-.2,1.4,1.4,0,0,0-1.06,1.4c0,.6-.07,1.21-.11,1.81l1.49-.86c-.4-.28-1.11-.82-1-1.41s1.05-.52,1.46-.56a12.14,12.14,0,0,1,5.21.66c.55.2,1.21.34,1.16,1a3.46,3.46,0,0,1-.53,1.78c-.38.47-1.47.22-2,.2-.92,0-1.85,0-2.77-.11a1.92,1.92,0,0,1-1.75-1.07,5.42,5.42,0,0,1-.34-2.74c.07-1.28-1.92-1.27-2,0Z"/><path class="cls-1" d="M177,188.79a1.75,1.75,0,0,0,3.24.36,1.79,1.79,0,0,0,.11-1.36,1.93,1.93,0,0,0-.81-1,2,2,0,0,0-1.16-.29,2.54,2.54,0,0,0-.61.12,2.34,2.34,0,0,0-.73.43,2.07,2.07,0,0,0-.64,1,1.86,1.86,0,0,0,1.28,2.33,1,1,0,0,0,.77-.1,1,1,0,0,0,.45-.59,1,1,0,0,0-.69-1.22l-.13,0,.23.1-.16-.1.2.15a.62.62,0,0,1-.14-.14l.15.2a1.59,1.59,0,0,1-.13-.22l.1.24a.9.9,0,0,1-.06-.22l0,.26a1,1,0,0,1,0-.24l0,.27a1.05,1.05,0,0,1,.06-.24l-.1.24a1.4,1.4,0,0,1,.16-.26l-.16.2a1.26,1.26,0,0,1,.2-.2l-.2.15a1.75,1.75,0,0,1,.27-.16l-.24.1a1.57,1.57,0,0,1,.31-.08l-.27,0a1.15,1.15,0,0,1,.32,0l-.27,0a.89.89,0,0,1,.28.07l-.24-.1a1.13,1.13,0,0,1,.21.12l-.2-.15a1.85,1.85,0,0,1,.14.14l-.16-.2a.92.92,0,0,1,.13.21l-.1-.23a1.05,1.05,0,0,1,.06.24l0-.26a.81.81,0,0,1,0,.22l0-.27a1.05,1.05,0,0,1-.05.19l.1-.24a.6.6,0,0,1-.09.15l.16-.2a1,1,0,0,1-.15.14l.2-.15a.77.77,0,0,1-.18.1l.24-.1-.2,0,.27,0a.54.54,0,0,1-.18,0l.26,0-.19,0,.23.1-.17-.11.2.16-.14-.15.15.2-.09-.15.1.24,0-.12a1,1,0,0,0-1.22-.69,1,1,0,0,0-.59.46,1.05,1.05,0,0,0-.1.76Z"/><path class="cls-1" d="M111.12,161.58a1,1,0,0,0,0-2,1,1,0,0,0,0,2Z"/><path class="cls-2" d="M130.61,206.28c1.65,3,3.13,6.39,5.49,8.95s5.32,3.37,8.54,3.71c6.59.7,14.1,1,19.62-3.23,2.8-2.15,5.14-5.11,8.53-6.35,1.19-.44.68-2.36-.53-1.92-3.49,1.28-5.9,4-8.72,6.32-3.37,2.73-7.35,3.52-11.6,3.54-2,0-4.06-.09-6.07-.23a14.77,14.77,0,0,1-6.14-1.46c-3.69-2-5.49-6.82-7.41-10.33-.62-1.12-2.33-.12-1.71,1Z"/><path class="cls-2" d="M128.66,205.77a14.46,14.46,0,0,1,1.24.79c-.09-.06-.12-.1,0,0l.13.11c.09.07.18.16.27.24s.36.34.53.52.31.35.45.53-.13-.18,0,0l.1.14.21.3a8.92,8.92,0,0,1,.7,1.29,1,1,0,0,0,1.35.36,1,1,0,0,0,.36-1.36,9.77,9.77,0,0,0-4.34-4.64,1,1,0,0,0-1,1.72Z"/><path class="cls-2" d="M130.52,206.66c3.44.87,6.84.08,10.31-.17a13.36,13.36,0,0,1,5.11.46,13,13,0,0,0,5.27,1,24.74,24.74,0,0,1,6.08,0c1.86.29,3.69.76,5.53,1.16,3.54.77,7.22,1.24,10.72.05,1.21-.4.69-2.32-.52-1.91-3.65,1.23-7.4.46-11.05-.36-1.73-.39-3.45-.78-5.21-1a26.4,26.4,0,0,0-5.55,0c-1.91.16-3.37-.59-5.16-1.09a14.62,14.62,0,0,0-4.8-.43c-3.4.19-6.83,1.12-10.21.27a1,1,0,0,0-.52,1.91Z"/><path class="cls-2" d="M134.11,208.66a50.53,50.53,0,0,1,16.85,1,87.38,87.38,0,0,0,16.45,1.71c1.31,0,1.24-1.83,0-2l-14.34-1.7v2l6.79-.31v-2a130.69,130.69,0,0,1-19.08-.54,21.08,21.08,0,0,0-4.35,0c-.91.11-2.07.25-2.5,1.2-.54,1.17.49,2.16,1.19,3l3.19,3.84,1.2-1.56a11.2,11.2,0,0,1-3.64-4.29l-1.36,1.36,6.59,3.45c.8.43,2-.49,1.35-1.36a11.6,11.6,0,0,0-6.38-4.51,1,1,0,0,0-.52,1.91,83.3,83.3,0,0,0,13,3.42,1,1,0,0,0,.52-1.91l-10.15-3.15-.26,1.95a160.11,160.11,0,0,1,19.38,2.56l.26-1.95L144,209.74c-1.44-.11-3.59-.58-4.54.91s.39,3.11,1.62,4l.24-1.81a1.91,1.91,0,0,1-1.43,0c-1-.42-2,.69-1.2,1.56a10.38,10.38,0,0,0,9.85,2.87c1.18-.28.77-1.83-.27-1.95a43.26,43.26,0,0,1-9.63-2.34c-1.08-.39-1.72,1.26-.77,1.82,9,5.26,19.87,2.78,28.15-2.67l-1.2-1.56c-5.86,7-15.79,5-22.84,1.17-.83-.45-1.92.49-1.35,1.36a4.5,4.5,0,0,0,6.07,1.47,1,1,0,0,0,0-1.71,17.05,17.05,0,0,0-8.05-3,1,1,0,0,0-.71,1.7,16.43,16.43,0,0,0,15.07,3,1,1,0,0,0-.27-2l-6.38-.26.26,1.94,7.1-1-.53-1.91-3.25.89a1,1,0,0,0,.26,1.95l8,.05-.27-2-6.34,1.55a1,1,0,0,0,.26,1.95,18.17,18.17,0,0,0,10.82-3.46l-1-1.71a4.09,4.09,0,0,1-4.78.32l-.5,1.84,4-.38c.76-.07,1.43-1.09.7-1.69a7.83,7.83,0,0,0-4.18-1.82c-1.26-.16-1.25,1.82,0,2a5.32,5.32,0,0,1,2.78,1.23l.7-1.69-4,.38a1,1,0,0,0-.5,1.85,6,6,0,0,0,6.78-.32c1-.76,0-2.47-1-1.71a16.49,16.49,0,0,1-9.82,3.19l.27,1.95,6.34-1.56a1,1,0,0,0-.26-1.95l-8-.05.26,2,3.26-.89c1.27-.35.69-2.08-.53-1.91l-7.1,1c-1.15.16-.8,1.91.27,1.95l6.38.27-.26-1.95a14.34,14.34,0,0,1-13.13-2.54l-.7,1.7a15,15,0,0,1,7.05,2.76v-1.71a2.49,2.49,0,0,1-3.36-.76l-1.36,1.35c4.24,2.3,9,4.05,13.89,3.81a15.66,15.66,0,0,0,11.35-5.29c.68-.81-.19-2.22-1.2-1.56-7.69,5.07-17.72,7.59-26.14,2.67l-.77,1.82a46.22,46.22,0,0,0,10.16,2.4l-.26-1.95A8.34,8.34,0,0,1,140,213l-1.2,1.56a4.09,4.09,0,0,0,3,.22,1,1,0,0,0,.23-1.81c-.67-.49-1.36-1.34-.09-1.35.74,0,1.51.11,2.26.16l4.62.35,9.49.7a1,1,0,0,0,.27-1.95,161,161,0,0,0-19.91-2.63c-1.15-.09-1.3,1.62-.27,1.94l10.16,3.15.52-1.91a86.19,86.19,0,0,1-13-3.42l-.52,1.91a9.44,9.44,0,0,1,5.19,3.61l1.36-1.36-6.58-3.46a1,1,0,0,0-1.36,1.36,13.2,13.2,0,0,0,4.35,5c1,.69,1.88-.75,1.2-1.56l-2.55-3.06c-.33-.39-1.25-1.17-1.36-1.65-.17.25-.1.3.21.14a8.25,8.25,0,0,1,1.1-.13,44.92,44.92,0,0,1,7.23.43,110.13,110.13,0,0,0,15.52.2c1.27-.07,1.28-2,0-2l-6.79.3a1,1,0,0,0,0,2l14.34,1.69v-2c-2.81-.06-5.63-.11-8.43-.38a77.17,77.17,0,0,1-8.42-1.46,50.25,50.25,0,0,0-16.45-.91c-1.25.16-1.26,2.14,0,2Z"/><path class="cls-1" d="M126.32,205.25l.31,0-.27,0a4.67,4.67,0,0,1,.91.23s.2.08,0,0h0l.21.11a3.7,3.7,0,0,1,.43.25s.18.09.19.14-.18-.15-.08-.06l.11.08c.11.1.23.21.34.33l.15.17.07.08c-.19-.21-.09-.11-.05-.05a3.62,3.62,0,0,1,.27.41,1,1,0,0,0,1.36.36,1,1,0,0,0,.36-1.36,5.42,5.42,0,0,0-4.34-2.68,1,1,0,0,0-1,1,1,1,0,0,0,1,1Z"/><path class="cls-1" d="M130.47,207.61c3.07,0,5.91,1.15,8.8,2,1.44.44,2.92.66,4.36,1.1a20.17,20.17,0,0,0,4.26,1.08c1.31.09,2.66,0,4-.08a10.88,10.88,0,0,0,3.69-.45,11,11,0,0,1,4.54-.47c1.78,0,3.55.07,5.32.13a1,1,0,0,0,0-2c-1.69-.06-3.38-.1-5.07-.13a14,14,0,0,0-4.48.18,16.75,16.75,0,0,1-1.61.63,13.34,13.34,0,0,1-2.19.1,36.32,36.32,0,0,1-4.17.08,25.59,25.59,0,0,1-4.36-1.19c-1.45-.37-2.91-.65-4.34-1.11-2.86-.91-5.68-1.95-8.72-1.9a1,1,0,0,0,0,2Z"/><path class="cls-1" d="M165.1,210.42a27.11,27.11,0,0,0,8.53-1.82,1,1,0,0,0,.69-1.22,1,1,0,0,0-1.22-.69,25,25,0,0,1-8,1.74,1,1,0,0,0,0,2Z"/><path class="cls-2" d="M147.08,197.65c3.57,2.87,7.75.76,11.28-1a14.53,14.53,0,0,1,3.23-1.23c1-.23,2.1-.28,3.14-.47a5.38,5.38,0,0,0,4.28-3.17c.48-1.19-1.44-1.7-1.91-.53-.66,1.65-2.9,1.8-4.38,2a15.42,15.42,0,0,0-4.69,1.37c-2.71,1.27-6.64,4-9.54,1.63-1-.79-2.4.6-1.41,1.4Z"/><path class="cls-2" d="M186.13,146.9a4.62,4.62,0,0,1-2.42,6.32c-.59.23-.33,1.19.26,1a5.57,5.57,0,0,0,3-7.79c-.29-.57-1.14-.06-.86.51Z"/><path class="cls-2" d="M186.88,147.84a34.18,34.18,0,0,0,5.52,2.74l-.11-.91q-3.49,1.5-7.09,2.68c-.61.19-.35,1.15.26,1,2.48-.81,4.93-1.74,7.33-2.77.43-.19.23-.78-.12-.91a31.84,31.84,0,0,1-5.29-2.64c-.55-.34-1,.52-.5.86Z"/><path class="cls-2" d="M187.38,152.07a7.06,7.06,0,0,0,1.11-3.76.5.5,0,0,0-1-.13l-.83,3.29a.5.5,0,0,0,.9.39l1.59-2.73-.93-.25a2.94,2.94,0,0,1-.33,1.86l.91.38.69-2.05-.83.22c.49.39-.08,1.07-.35,1.42s.29.95.68.68a8.76,8.76,0,0,1,3-1.36l-.38-.91-.82.4c-.09,0-.32.1-.37.18l0,0a.17.17,0,0,1,.12.11.25.25,0,0,1,0,.3.5.5,0,0,0,0-.71.52.52,0,0,0-.7,0c-.56.45,0,1.3.57,1.29a2.13,2.13,0,0,0,.88-.29l.9-.44c.52-.25.15-1-.38-.91a9.58,9.58,0,0,0-3.22,1.46l.68.68a2.83,2.83,0,0,0,.66-1.37,1.41,1.41,0,0,0-.47-1.25.51.51,0,0,0-.83.22l-.69,2a.5.5,0,0,0,.91.39,3.9,3.9,0,0,0,.47-2.36.53.53,0,0,0-.37-.48.5.5,0,0,0-.56.23l-1.58,2.72.9.39.84-3.29-1-.14a6.06,6.06,0,0,1-1,3.26c-.35.54.51,1,.85.5Z"/><path class="cls-2" d="M174.65,146.86a7.27,7.27,0,0,0,2.22,6.42l.48-.83-2.81-1-1.41-.52a11.52,11.52,0,0,1-1.31-.52c-.27-.14-.61-.41-.47-.76s.57-.5.89-.63l2.81-1.05c.59-.22.34-1.18-.26-1-1.1.42-2.25.76-3.31,1.27a1.6,1.6,0,0,0-.81,2.46,2.74,2.74,0,0,0,1.27.8l1.74.65,3.41,1.27c.47.17.83-.51.48-.83a6.28,6.28,0,0,1-2-5.46.51.51,0,0,0-.34-.61.5.5,0,0,0-.61.35Z"/><path class="cls-2" d="M171.34,150.09l.43.35a.5.5,0,0,0,.66,0,.49.49,0,0,0,.12-.64,1.19,1.19,0,0,1-.13-.25s0-.1,0,0,0,0,0,0-.06.08-.16.08a.11.11,0,0,1-.11,0,.24.24,0,0,1-.11-.13,2.37,2.37,0,0,1,.09.34l.38,1.44a.5.5,0,0,0,1-.14,4.82,4.82,0,0,1,.59-2.2l-.9-.12.7,2.34a.5.5,0,0,0,1-.14c0-.67,0-1.35,0-2a1,1,0,0,0-1.26-1.1,1.25,1.25,0,0,0-.86,1.53,3.08,3.08,0,0,0,1,1.49,4.09,4.09,0,0,0,1.73.95.5.5,0,0,0,.26-1,.59.59,0,0,1-.3-.21l-.08-.14s0-.09,0-.13,0,.08,0-.07a1.27,1.27,0,0,0-.18-.6.76.76,0,0,0-.74-.34.94.94,0,0,0-.64.44,1.82,1.82,0,0,0-.19.68.8.8,0,0,1,0,.15c0,.07,0,0,0,0s-.06.06,0,0-.08,0,0,0c-.09,0,0,0,0,0s.06.08,0,0,0,0,0,0,0,0,0,0a.49.49,0,0,0-.85-.5.93.93,0,0,0,.58,1.36,1,1,0,0,0,.88-.22,1.24,1.24,0,0,0,.38-.8,1.18,1.18,0,0,1,0-.26s0-.05,0-.05a.16.16,0,0,1-.12,0,.22.22,0,0,1-.19-.09s0-.08,0,0,0,.15,0,.11,0,0,0,0a.78.78,0,0,1,0,.16.83.83,0,0,0,0,.15,1.65,1.65,0,0,0,1.09,1.1l.26-1a3,3,0,0,1-1.29-.7c-.31-.28-.74-.74-.71-1.15a.41.41,0,0,1,.07-.18c-.07.08.06,0,0,0s.14,0,.05,0h0c.06,0,.06,0,0,0s0,0,0,0,0,0,0,0V149c0,.66,0,1.33,0,2l1-.13-.71-2.34a.5.5,0,0,0-.9-.12,5.88,5.88,0,0,0-.73,2.71l1-.13-.31-1.18c-.09-.39-.14-.86-.52-1.06a.81.81,0,0,0-1.09.36,1.26,1.26,0,0,0,.17,1.25l.78-.6-.44-.35a.51.51,0,0,0-.7,0,.5.5,0,0,0,0,.7Z"/><path class="cls-2" d="M113.49,145.89l4.27,2.27a.5.5,0,0,0,.6-.78,3.77,3.77,0,0,1-.84-3.33.5.5,0,0,0-.61-.61,10.06,10.06,0,0,0-3.14,1.11.51.51,0,0,0,0,.86l2.31,1.23a.5.5,0,0,0,.73-.56l-.47-2c-.11-.45-.89-.5-1,0l-.25,1.65.73-.3-.3-.16c-.57-.3-1.07.56-.5.86l.3.16a.51.51,0,0,0,.73-.3l.25-1.65h-1l.47,2,.73-.56-2.31-1.23v.86a9.46,9.46,0,0,1,2.9-1l-.61-.61a4.81,4.81,0,0,0,1.1,4.3l.6-.78L114,145c-.57-.3-1.07.56-.5.86Z"/><path class="cls-2" d="M117.55,147.74a9.21,9.21,0,0,0,5.27,2.22,35.73,35.73,0,0,0,6.86.17c.63,0,.63-1,0-1a37.87,37.87,0,0,1-6.21-.09,8.78,8.78,0,0,1-5.22-2c-.46-.44-1.16.26-.7.7Z"/><path class="cls-2" d="M135.83,150.08a7.9,7.9,0,0,0-6.92-2.19c-.63.1-.36,1.06.27,1a6.83,6.83,0,0,1,5.94,1.95c.45.45,1.15-.25.71-.71Z"/><path class="cls-2" d="M128.69,145.09a3.83,3.83,0,0,1-.68,3.85.49.49,0,0,0,.7.7,4.79,4.79,0,0,0,.93-4.82.51.51,0,0,0-.61-.35.5.5,0,0,0-.34.62Z"/><path class="cls-2" d="M129.56,145.81l5.92,5.07.6-.78-3.24-1.89c-.52-.3-1.06-.6-1.57-.92s-.83-.53-.88-1l-.93.25.54.87a1.67,1.67,0,0,0,.59.67.75.75,0,0,0,1-1,1.16,1.16,0,0,0-1.47-.46,1.34,1.34,0,0,0-.76,1.52.51.51,0,0,0,.61.35.52.52,0,0,0,.35-.62.32.32,0,0,1,.16-.33c.06,0,.09,0,.17,0s0,0,.06,0a.23.23,0,0,1,0-.24l.22-.13c.15.07.17.06.07,0l-.08-.13-.18-.29-.42-.68c-.24-.38-1-.27-.92.25.15,1.36,1.49,1.92,2.53,2.53l3.65,2.13c.47.27,1-.41.6-.78l-5.92-5.07c-.48-.42-1.19.28-.7.7Z"/><path class="cls-2" d="M129.48,149.53a6.54,6.54,0,0,1,4.45.6c.57.3,1.07-.56.5-.86a7.6,7.6,0,0,0-5.21-.69c-.63.13-.36,1.09.26.95Z"/><path class="cls-2" d="M168.67,152l.51-.41a.37.37,0,0,0,.1-.16.47.47,0,0,0,0-.38.54.54,0,0,0-.1-.16.52.52,0,0,0-.36-.14h-.13a.71.71,0,0,0-.22.13l-.5.41a.36.36,0,0,0-.11.16.47.47,0,0,0,0,.38.42.42,0,0,0,.11.16.46.46,0,0,0,.35.14h.13a.61.61,0,0,0,.22-.13Z"/><path class="cls-2" d="M168.33,151.68l.31-.27.05,0s0,0,.05,0l.15-.12a6.44,6.44,0,0,1,.72-.42l.18-.08c.08,0-.06,0,0,0l.09,0a2.67,2.67,0,0,1,.4-.13,5.3,5.3,0,0,1,.81-.18l-.38-.91-2.13,1.45a.51.51,0,0,0-.2.62.49.49,0,0,0,.58.28l1.93-.35a.49.49,0,0,0,.35-.61.51.51,0,0,0-.61-.34l-1.93.35.38.9,2.13-1.44a.51.51,0,0,0,.2-.62.51.51,0,0,0-.59-.29,5.94,5.94,0,0,0-3.21,1.57.49.49,0,0,0,.7.7Z"/><path class="cls-3" d="M175.79,146.9a4.46,4.46,0,0,0,.82,4.25c1.13,1.24,2.95,1.33,4.52,1.34a5,5,0,0,0,4.13-1.6c1-1.37.89-3.17.55-4.75-.06-.32-.54-.18-.48.13a5.38,5.38,0,0,1-.41,4.25,4.42,4.42,0,0,1-3.79,1.47c-1.38,0-3,0-4.07-1.09a3.91,3.91,0,0,1-.79-3.87.25.25,0,0,0-.48-.13Z"/><path class="cls-3" d="M177.66,146.33a5.73,5.73,0,0,0,3.57-2.83c.15-.28-.27-.53-.42-.25a5.32,5.32,0,0,1-3.28,2.61.24.24,0,0,0,.13.47Z"/><path class="cls-3" d="M179,146a8.63,8.63,0,0,1,5.13,0c.3.1.43-.38.13-.48a9.12,9.12,0,0,0-5.4,0c-.3.1-.17.58.14.48Z"/><path class="cls-3" d="M183.88,145.72a3.65,3.65,0,0,0,1.63-2.07.25.25,0,0,0-.48-.14,3.15,3.15,0,0,1-1.4,1.78.25.25,0,0,0,.25.43Z"/><path class="cls-3" d="M184.53,146l5.15,1.89c.3.11.43-.37.13-.48l-5.15-1.89c-.3-.11-.43.37-.13.48Z"/><path class="cls-3" d="M187.61,147a2.05,2.05,0,0,0,2.42-1.13.27.27,0,0,0-.09-.34.25.25,0,0,0-.34.09,1.58,1.58,0,0,1-1.86.91.24.24,0,0,0-.13.47Z"/><path class="cls-3" d="M189.73,148a2.48,2.48,0,0,0,2.65-1.23c.15-.28-.28-.54-.43-.25a2,2,0,0,1-2.09,1,.24.24,0,0,0-.3.17.25.25,0,0,0,.17.3Z"/><path class="cls-3" d="M189.68,148l2.54,1.26a20.35,20.35,0,0,0,2.41,1.14,2,2,0,0,0,1.93-.28,4.25,4.25,0,0,0,1.22-2c.12-.3-.36-.43-.47-.13a3.64,3.64,0,0,1-1.15,1.79,2,2,0,0,1-2.1-.19c-1.38-.67-2.76-1.36-4.13-2-.29-.14-.54.29-.25.43Z"/><path class="cls-3" d="M192.23,149.17a2.35,2.35,0,0,0,2.46-.58c.22-.23-.13-.58-.35-.35a1.87,1.87,0,0,1-2,.45.27.27,0,0,0-.31.18.25.25,0,0,0,.18.3Z"/><path class="cls-3" d="M176.61,155.42a2.77,2.77,0,0,1,1.29-1.67.25.25,0,0,0-.25-.43,3.3,3.3,0,0,0-1.52,2,.25.25,0,0,0,.17.31.27.27,0,0,0,.31-.18Z"/><path class="cls-3" d="M177.53,153.7a16.39,16.39,0,0,0,8.68,0c2.91-.84,5.38-2.72,8.32-3.46.31-.07.18-.55-.13-.47-2.75.68-5.07,2.4-7.75,3.27a15.81,15.81,0,0,1-9,.23.25.25,0,0,0-.13.48Z"/><path class="cls-3" d="M192.32,149.37l0,.91a.25.25,0,0,0,.22.24.24.24,0,0,0,.27-.18,1.24,1.24,0,0,1,0-.16v0s0,0,0,0l0-.07,0,0,0,0s0,0,0,0l0,0s0,0,0,0l0,0c.05,0,0,0,0,0h.11l0,0s.05,0,0,0h0l0,0,0,0h0a2.16,2.16,0,0,1,.25.27l.24-.41-.89-.25a.25.25,0,0,0-.31.17.26.26,0,0,0,.18.31l.89.25a.25.25,0,0,0,.28-.12.28.28,0,0,0,0-.3,1.06,1.06,0,0,0-.82-.5.65.65,0,0,0-.49.27,1,1,0,0,0-.16.41l.49.07,0-.91a.25.25,0,0,0-.5,0Z"/><path class="cls-3" d="M179.62,154.19l.07,2.4a.26.26,0,0,0,.22.24.24.24,0,0,0,.27-.18,4.53,4.53,0,0,1,.95-2.13.25.25,0,0,0-.3-.39,1.6,1.6,0,0,0-.76,1h.47a1.19,1.19,0,0,1-.13-.48.17.17,0,0,1,.16-.17c.32,0,.31-.48,0-.49a.63.63,0,0,0-.61.44,1.15,1.15,0,0,0,.11.83.25.25,0,0,0,.23.18.26.26,0,0,0,.24-.18,1.18,1.18,0,0,1,.54-.68l-.3-.39a4.88,4.88,0,0,0-1.08,2.35l.49.07-.07-2.4c0-.32-.51-.32-.5,0Z"/><path class="cls-3" d="M182.63,154.31a3.63,3.63,0,0,1,1,2.46h.5l-.17-2c0-.29,0-.66-.3-.8a.41.41,0,0,0-.45,0c-.14.14-.07.32,0,.49s.54.18.47-.13l0-.22-.07.24s-.11,0-.11,0a.51.51,0,0,0,0,.09c0,.11,0,.22,0,.33l.06.65.1,1.34c0,.31.5.32.5,0A4.16,4.16,0,0,0,183,154c-.22-.23-.57.12-.35.35Z"/><path class="cls-3" d="M180.11,145.44a6.3,6.3,0,0,0,1.17-2,.25.25,0,0,0-.48-.13,5.41,5.41,0,0,1-1,1.74.25.25,0,0,0,.35.35Z"/><path class="cls-3" d="M184.68,145.56a4.11,4.11,0,0,0,.67-1.65.25.25,0,0,0-.18-.3.24.24,0,0,0-.3.17,3.54,3.54,0,0,1-.62,1.53.26.26,0,0,0,.09.34.27.27,0,0,0,.34-.09Z"/><path class="cls-3" d="M187.55,146.9a3.67,3.67,0,0,0,2.49-1,.25.25,0,0,0-.35-.35,3.16,3.16,0,0,1-2.14.89.25.25,0,0,0,0,.5Z"/><path class="cls-3" d="M185.08,153.84a5.23,5.23,0,0,1,1,2.23.25.25,0,0,0,.31.17.25.25,0,0,0,.17-.3,5.54,5.54,0,0,0-1-2.36.25.25,0,0,0-.34-.08.24.24,0,0,0-.08.34Z"/><path class="cls-3" d="M185.58,153.74a7.91,7.91,0,0,1,.41,2.32c0,.31.51.32.5,0a8.09,8.09,0,0,0-.44-2.45c-.1-.3-.58-.17-.47.13Z"/><path class="cls-3" d="M188,153.23a2.83,2.83,0,0,1,.8.67,2.63,2.63,0,0,1,.45.9.25.25,0,0,0,.48-.13,3,3,0,0,0-1.48-1.86.25.25,0,0,0-.34.08.24.24,0,0,0,.09.34Z"/><path class="cls-3" d="M186.67,153.63s0,0,0,0l0,0,.09.07.15.15.15.18h0l0,0a.61.61,0,0,0,.07.1,3.72,3.72,0,0,1,.21.39s0,0,0,0l0,.06,0,.1a2,2,0,0,1,.07.23.24.24,0,0,0,.3.17.25.25,0,0,0,.18-.3,3,3,0,0,0-1.12-1.69.25.25,0,0,0-.34.09.26.26,0,0,0,.09.34Z"/><path class="cls-3" d="M189.37,152.53a4.06,4.06,0,0,1,1.87,1.34.25.25,0,0,0,.35,0,.26.26,0,0,0,0-.35,4.52,4.52,0,0,0-2.08-1.47.25.25,0,0,0-.31.18.25.25,0,0,0,.17.3Z"/><path class="cls-3" d="M190.85,151.82a3.89,3.89,0,0,1,2,1c.23.22.58-.13.35-.35a4.38,4.38,0,0,0-2.23-1.14.25.25,0,0,0-.31.17.26.26,0,0,0,.17.31Z"/><path class="cls-3" d="M192.54,151.07h.29s-.06,0,0,0l.11,0,.21.06.06,0h0l.12.06.19.11.15.11c.06,0,.11.11.17.17l0,0s0,0,0,0l.08.1a.26.26,0,0,0,.34.09.25.25,0,0,0,.08-.34,2.13,2.13,0,0,0-1.87-1,.25.25,0,0,0,0,.5Z"/><path class="cls-3" d="M180,147.07l-.63.4c-.18.11-.41.22-.48.43-.16.46.44.74.77.89a4.11,4.11,0,0,0,1.28.38,1.2,1.2,0,0,0,1.16-.31,1.17,1.17,0,0,0,.23-1,1.3,1.3,0,0,0-.78-.84,1.68,1.68,0,0,0-1.23,0,3.36,3.36,0,0,0-.6.3.84.84,0,0,0-.4.49.44.44,0,0,0,.39.52.67.67,0,0,0,.61-.35l.1-.12,0,0s0,0,0,0,0,0,0,0l0,.08a.36.36,0,0,1-.38.09c-.29-.14-.54.27-.25.42a4.31,4.31,0,0,0,1,.42,4.77,4.77,0,0,0,.51.13,1.63,1.63,0,0,0,.49,0,.45.45,0,0,0,.27-.74c-.22-.32-.49-.6-.73-.9l0,.39c.08,0,.16,0,.18.07s-.05,0,0,0h0s0,.06,0,0l-.42.17s0,0,0,0,0,0,0,0,0,0,0,0,0,0,0,0c.21.08.17.39.16.56l.46-.12a.3.3,0,0,1,0-.16.25.25,0,0,1,0-.07h0s0,0,0-.05,0,0,0,0l.3,0s0,.07,0,0c.11-.31-.37-.44-.48-.14a.47.47,0,0,0,.12.49.24.24,0,0,0,.3,0,.46.46,0,0,0-.22-.85.55.55,0,0,0-.51.3.8.8,0,0,0,0,.69c.11.24.45.09.46-.13a1,1,0,0,0-.34-1,.54.54,0,0,0-.82.28.51.51,0,0,0,.6.63.52.52,0,0,0,.25-.86.26.26,0,0,0-.43.18.51.51,0,0,0,.41.5.49.49,0,0,0,.57-.34.56.56,0,0,0-.21-.64.64.64,0,0,0-.68,0,.25.25,0,0,0-.05.39l.54.66.11.13,0,.07s0,0,.06-.06h-.08l-.16,0a4.65,4.65,0,0,1-1.41-.5l-.25.42a.84.84,0,0,0,.92-.11c.26-.21.4-.67.07-.88a.5.5,0,0,0-.49,0,1.24,1.24,0,0,0-.36.36c-.05.06-.16.07-.06.13s0,0,0,0,.06-.06.08-.08a2.25,2.25,0,0,1,.47-.28,1.31,1.31,0,0,1,1,0,.78.78,0,0,1,.51.59.62.62,0,0,1-.26.6.84.84,0,0,1-.47.06,3.84,3.84,0,0,1-.59-.11,3.27,3.27,0,0,1-1.11-.5l-.06-.05s0,0,0,0,0,.05,0,0a2.07,2.07,0,0,0,.25-.15l.63-.4c.27-.17,0-.6-.25-.43Z"/><path class="cls-3" d="M180.81,145.5a2,2,0,0,0,1.37.94,2,2,0,0,0,1.69-.54.26.26,0,0,0-.18-.43l-2.3-.21a.23.23,0,0,0-.24.21.24.24,0,0,0,.18.27l1,.42c.29.11.7.13.86-.21a.27.27,0,0,0-.09-.34.26.26,0,0,0-.34.09c0,.06-.08.05-.14,0a2.74,2.74,0,0,1-.4-.15l-.79-.32-.07.49,2.3.22-.18-.42a1.44,1.44,0,0,1-2.27-.3.25.25,0,0,0-.43.25Z"/><path class="cls-3" d="M167.1,150.82a1.64,1.64,0,0,0-.53,1.16.84.84,0,0,0,.8.8,3.4,3.4,0,0,0,1.29-.25,5.29,5.29,0,0,0,1.24-.61c.26-.17,0-.6-.25-.43a4.69,4.69,0,0,1-2,.78c-.25,0-.55,0-.6-.28s.2-.6.39-.82a.25.25,0,0,0-.35-.35Z"/><path class="cls-3" d="M166.84,151.28a.91.91,0,0,0,.66,1.08,7.51,7.51,0,0,0,1.5,0,.25.25,0,0,0,.25-.25.25.25,0,0,0-.25-.25c-.4,0-.81.09-1.21,0a.63.63,0,0,1-.4-.19.53.53,0,0,1-.08-.15.43.43,0,0,1,0,0h0a.13.13,0,0,1,0-.09.25.25,0,0,0-.48-.14Z"/><path class="cls-3" d="M172.5,134.3l2.74-1.83c.27-.18,0-.61-.25-.43l-2.74,1.83c-.27.18,0,.61.25.43Z"/><path class="cls-3" d="M201.93,132.34l1.89,2.39.35-.35a5.18,5.18,0,0,0-3.3-1.64.26.26,0,0,0-.25.25.25.25,0,0,0,.25.25,4.65,4.65,0,0,1,2.95,1.49.25.25,0,0,0,.35,0,.26.26,0,0,0,0-.35L202.28,132a.25.25,0,0,0-.35.35Z"/><path class="cls-3" d="M196.1,132.28l1.53.42a.26.26,0,0,0,.3-.18.25.25,0,0,0-.17-.3l-1.53-.42a.25.25,0,0,0-.3.17.26.26,0,0,0,.17.31Z"/><path class="cls-3" d="M188,127.58a2.16,2.16,0,0,0,1.23,1,.24.24,0,1,0,.13-.47l-.15-.06c-.06,0,.05,0,0,0h0l-.07,0-.15-.08-.07-.05,0,0s0,0,0,0h0l0,0-.06,0-.11-.12-.06-.06,0,0s0,0,0,0l-.1-.15a.25.25,0,1,0-.43.25Z"/><path class="cls-3" d="M195.41,127a2.88,2.88,0,0,1,1.46,1.89.25.25,0,1,0,.48-.14,3.41,3.41,0,0,0-1.69-2.18.25.25,0,1,0-.25.43Z"/><path class="cls-3" d="M197.68,127.21a3.22,3.22,0,0,1,1,2.17.25.25,0,0,0,.5,0,3.68,3.68,0,0,0-1.11-2.52c-.23-.22-.58.13-.35.35Z"/><path class="cls-3" d="M184.82,134c2.16.65,4-1.07,6.16-1a.25.25,0,0,0,0-.5,8.67,8.67,0,0,0-3,.72,4.88,4.88,0,0,1-3,.34.25.25,0,0,0-.14.48Z"/><path class="cls-3" d="M181.18,128.35a3,3,0,0,0,2.76.83c.31-.07.18-.55-.13-.48a2.53,2.53,0,0,1-2.28-.7.25.25,0,0,0-.35.35Z"/><path class="cls-3" d="M180.28,128.92a4.76,4.76,0,0,0,2.91,1.1c.32,0,.32-.49,0-.5a4.19,4.19,0,0,1-2.56-1,.26.26,0,0,0-.35,0,.25.25,0,0,0,0,.36Z"/><path class="cls-3" d="M178.88,133.87c2.33-.05,3.9-2,6.06-2.58a.25.25,0,0,0-.13-.48c-2.1.53-3.69,2.52-5.93,2.57a.25.25,0,0,0,0,.49Z"/><path class="cls-3" d="M186,129.79a8.11,8.11,0,0,1,6.2,1.46c.26.19.5-.24.25-.42a8.58,8.58,0,0,0-6.58-1.52c-.32.06-.18.53.13.48Z"/><path class="cls-3" d="M177.1,133.5a19,19,0,0,1,3.38-2.15c.29-.14,0-.57-.25-.43a19.8,19.8,0,0,0-3.48,2.23.24.24,0,0,0,0,.35.26.26,0,0,0,.35,0Z"/><path class="cls-3" d="M133.61,136.84c-1-3.61-5.62-4.59-8.67-5.78-3.74-1.45-7.73-3.07-11.76-1.82a.25.25,0,0,0,.13.48c3.69-1.15,7.35.21,10.79,1.54,1.72.67,3.48,1.29,5.18,2s3.31,1.8,3.85,3.68c.09.3.57.17.48-.13Z"/><path class="cls-3" d="M130.62,136.29c-4.85-4-10.4-8.49-17.14-7.82-.31,0-.31.53,0,.5,6.61-.66,12,3.7,16.79,7.67.25.2.6-.15.35-.35Z"/><path class="cls-3" d="M110.47,125.48a5,5,0,0,0-4.33,1.7c-.2.25.15.6.36.35a4.56,4.56,0,0,1,4-1.56c.32,0,.31-.46,0-.49Z"/><path class="cls-3" d="M109,124.84a7.09,7.09,0,0,0-4.62,2.43c-.2.24.15.59.35.35a6.51,6.51,0,0,1,4.27-2.28c.31,0,.32-.54,0-.5Z"/><path class="cls-3" d="M103.94,126.73a15.63,15.63,0,0,0-3,5.39.25.25,0,0,0,.47.14,15.16,15.16,0,0,1,2.91-5.18c.2-.24-.15-.59-.35-.35Z"/><path class="cls-3" d="M105.2,130.32a8,8,0,0,1,9.87-1.67.25.25,0,0,0,.25-.43A8.48,8.48,0,0,0,104.85,130c-.21.24.14.59.35.35Z"/><path class="cls-3" d="M113,125.83c2.16,1.83,5,2,7.67,2.24a18.42,18.42,0,0,1,9,3c.27.18.52-.25.25-.43a17.56,17.56,0,0,0-7.71-2.88c-3-.37-6.42-.15-8.9-2.25-.25-.21-.6.14-.35.35Z"/><path class="cls-3" d="M135.64,137.14a9,9,0,0,0-4.59-6.15c-.28-.15-.54.28-.25.43a8.56,8.56,0,0,1,4.36,5.85c.06.31.54.18.48-.13Z"/><path class="cls-3" d="M135.51,138c-7.49.31-12.5-7-19.81-7.55-.32,0-.32.47,0,.49,7.3.59,12.27,7.87,19.81,7.56.32,0,.32-.51,0-.5Z"/><path class="cls-3" d="M119.79,132c-4.31-.11-9.23-4.4-13.33-1.25-.24.19,0,.62.25.43,1.91-1.47,4.37-1.14,6.51-.45s4.25,1.71,6.57,1.77c.32,0,.32-.49,0-.5Z"/><path class="cls-3" d="M118.49,143.58a4.1,4.1,0,0,0,.47,4.16A4.92,4.92,0,0,0,123,149.4c1.45,0,3.15.08,4.29-1a4.87,4.87,0,0,0,1.14-4.35c-.05-.32-.53-.18-.48.13a4.3,4.3,0,0,1-1.07,3.92c-1,.88-2.47.81-3.71.8a4.83,4.83,0,0,1-3.62-1.19,3.57,3.57,0,0,1-.67-3.89c.12-.29-.3-.54-.43-.25Z"/><path class="cls-3" d="M122.57,145.28l1.16-.74a1,1,0,0,1,.46-.2.83.83,0,0,1,.45.15l.2.15s.12.09.13.14h0s0,.06,0,.07a1.18,1.18,0,0,1-.21.18,1.83,1.83,0,0,1-.9.47,1,1,0,0,1-.8-.3l-.07-.1s-.08.11-.08.11,0,0,0,0,.08.11.08.11a2.75,2.75,0,0,1,.14.3.93.93,0,0,0,1.72-.16.94.94,0,0,0-.47-1.07,4,4,0,0,0-1.28-.3v.63a2.5,2.5,0,0,1,2,.24l.17-.61-1.65.18a.34.34,0,0,0-.32.33c0,.16.15.35.32.33l1.65-.19a.33.33,0,0,0,.16-.61,3.16,3.16,0,0,0-2.55-.3.33.33,0,0,0-.24.31.32.32,0,0,0,.24.32l.7.11a1.19,1.19,0,0,1,.49.17.26.26,0,0,1,.11.26.27.27,0,0,1-.17.22.31.31,0,0,1-.28-.06c-.14-.13-.16-.35-.27-.51a.69.69,0,0,0-.57-.34.55.55,0,0,0-.55.4c-.12.45.34.87.71,1a1.6,1.6,0,0,0,1.27.05,2.52,2.52,0,0,0,.6-.33,3.45,3.45,0,0,0,.51-.42.74.74,0,0,0,.2-.69,1.11,1.11,0,0,0-.41-.52,1.41,1.41,0,0,0-1.51-.28,4.43,4.43,0,0,0-.69.43l-.75.48c-.36.22,0,.79.33.56Z"/><path class="cls-3" d="M109.72,146.27a4.11,4.11,0,0,1-4.06-.75c-.24-.21-.6.14-.35.35a4.62,4.62,0,0,0,4.55.88c.3-.1.17-.58-.14-.48Z"/><path class="cls-3" d="M106.47,144.37a4.49,4.49,0,0,0,3.85,2.19.25.25,0,0,0,0-.49,4,4,0,0,1-3.42-1.95.25.25,0,0,0-.43.25Z"/><path class="cls-3" d="M108.93,143.85a2.6,2.6,0,0,0,1.28,2,4.08,4.08,0,0,0,2.66.39.25.25,0,0,0,.17-.31.25.25,0,0,0-.3-.17,3.5,3.5,0,0,1-2.23-.31,2.08,2.08,0,0,1-1.08-1.55c0-.32-.52-.32-.5,0Z"/><path class="cls-3" d="M109.16,144.14a4.42,4.42,0,0,0,3.68,1.61l-.07-.49a3.89,3.89,0,0,1-2.92-.68c-.26-.19-.51.24-.25.43a4.39,4.39,0,0,0,3.3.73c.28-.05.21-.51-.06-.49a3.92,3.92,0,0,1-3.32-1.46.25.25,0,0,0-.36,0,.26.26,0,0,0,0,.35Z"/><path class="cls-3" d="M111.07,142.51a5.31,5.31,0,0,0,2.35,2.47c.28.15.53-.28.25-.43a4.94,4.94,0,0,1-2.18-2.29.24.24,0,0,0-.33-.09.25.25,0,0,0-.09.34Z"/><path class="cls-3" d="M111.16,142.42a8.86,8.86,0,0,0,4,1.91v-.47a5.92,5.92,0,0,0-2.51,1.5l.42.18c0-.16.13-.24.24-.31a2.3,2.3,0,0,0,.34-.28.65.65,0,0,0,0-.85,6.8,6.8,0,0,0-.85-.75l-1-.79c-.24-.2-.57.12-.35.35a5.1,5.1,0,0,0,3.07,1.57V144l-.81.06c-.31,0-.32.52,0,.5l.81-.06a.25.25,0,0,0,0-.5,4.6,4.6,0,0,1-2.72-1.42l-.35.35c.56.47,1.15.92,1.68,1.42.07.07.19.16.14.27s-.18.17-.26.23a.81.81,0,0,0-.45.71.25.25,0,0,0,.43.17,5.45,5.45,0,0,1,2.29-1.38.24.24,0,0,0,0-.47,8.38,8.38,0,0,1-3.78-1.79c-.24-.21-.6.14-.35.35Z"/><path class="cls-3" d="M114.17,142.19a5.27,5.27,0,0,0,4,1.44c.31,0,.32-.52,0-.5a4.79,4.79,0,0,1-3.64-1.29c-.23-.22-.59.13-.35.35Z"/><path class="cls-3" d="M115.31,144l2.72-.37a.25.25,0,0,0,0-.5l-2.72.37a.25.25,0,0,0,0,.5Z"/><path class="cls-3" d="M115.69,143.48l.42-.07a.15.15,0,0,0,.09,0,.13.13,0,0,0,.06-.07.25.25,0,0,0,0-.19.26.26,0,0,0-.12-.15l-.06,0a.15.15,0,0,0-.13,0l-.43.06a.12.12,0,0,0-.08,0l-.07.07a.25.25,0,0,0,0,.19.28.28,0,0,0,.11.15l.06,0a.33.33,0,0,0,.14,0Z"/><path class="cls-3" d="M116.82,141a4.41,4.41,0,0,0,2.4,2v-.48l-1.66.47c-.22.07-.25.44,0,.48a.92.92,0,0,0,.89-.16.68.68,0,0,0,0-.84c-.33-.55-.67-1.1-1-1.65-.17-.27-.6,0-.43.25l.79,1.3.2.31c0,.07.12.17.11.25s-.32.08-.4.06v.48l1.65-.47a.25.25,0,0,0,0-.48,3.88,3.88,0,0,1-2.1-1.74.25.25,0,0,0-.43.25Z"/><path class="cls-3" d="M128.42,143.69c-.85-.38-1.72-.74-2.56-1.17a5.52,5.52,0,0,1-1.94-1.48c-.19-.25-.54.11-.35.35a5.71,5.71,0,0,0,2,1.53c.85.44,1.74.81,2.62,1.2.29.13.54-.3.25-.43Z"/><path class="cls-3" d="M125.13,142.26a4.6,4.6,0,0,1-4.85-1.8c-.18-.25-.62,0-.43.25a5.14,5.14,0,0,0,5.41,2,.25.25,0,0,0-.13-.48Z"/><path class="cls-3" d="M122.3,142.18a8.38,8.38,0,0,0-4.19,0c-.31.07-.18.55.14.48a7.66,7.66,0,0,1,3.92,0,.25.25,0,0,0,.13-.48Z"/><path class="cls-3" d="M118,142.71a7.34,7.34,0,0,1-2.06-1.52c-.22-.24-.57.11-.35.35a7.73,7.73,0,0,0,2.16,1.6.25.25,0,1,0,.25-.43Z"/><path class="cls-3" d="M111.64,147.78a4.3,4.3,0,0,0-2.94,2.67.25.25,0,0,0,.17.31.27.27,0,0,0,.31-.18,3.79,3.79,0,0,1,2.59-2.32.25.25,0,0,0-.13-.48Z"/><path class="cls-3" d="M112.88,148.19a4.61,4.61,0,0,0-1.62,3c0,.24.37.35.46.13a3.68,3.68,0,0,1,2.64-2.17c.31-.07.18-.54-.14-.48a4.14,4.14,0,0,0-2.93,2.4l.46.12a4.16,4.16,0,0,1,1.48-2.65.26.26,0,0,0,0-.35.24.24,0,0,0-.35,0Z"/><path class="cls-3" d="M115.42,149.2a3.15,3.15,0,0,0-1.72,2.8.25.25,0,0,0,.5,0,2.64,2.64,0,0,1,1.47-2.37.25.25,0,0,0-.25-.43Z"/><path class="cls-3" d="M116.68,149.66a3.58,3.58,0,0,0-1.18,2.9.25.25,0,0,0,.5,0,2.75,2.75,0,0,1,1.2-2.17c.27-.18,0-.61-.25-.43a3.29,3.29,0,0,0-1.45,2.6h.5a3.12,3.12,0,0,1,1-2.55c.24-.22-.11-.57-.35-.35Z"/><path class="cls-3" d="M118.9,150.49a2.87,2.87,0,0,0-1.52,2.44c0,.32.49.32.5,0a2.37,2.37,0,0,1,1.27-2c.28-.14,0-.57-.25-.42Z"/><path class="cls-3" d="M123.11,151.3a7.21,7.21,0,0,0-1.84,2.53l.47.12a2,2,0,0,1,1.26-2.17.26.26,0,0,0,.18-.31.25.25,0,0,0-.31-.17,2.5,2.5,0,0,0-1.63,2.65.26.26,0,0,0,.18.24.24.24,0,0,0,.28-.11,7,7,0,0,1,1.76-2.43c.24-.22-.12-.57-.35-.35Z"/><path class="cls-3" d="M120.87,150.73a3.55,3.55,0,0,0-1.94,2.39c-.07.31.41.44.48.13a3.06,3.06,0,0,1,1.71-2.09.26.26,0,0,0,.09-.34.25.25,0,0,0-.34-.09Z"/><path class="cls-3" d="M110.06,146.49a3.73,3.73,0,0,1-4.74.32c-.26-.19-.51.24-.25.43a4.23,4.23,0,0,0,5.34-.4c.24-.22-.12-.57-.35-.35Z"/><path class="cls-3" d="M194.11,149.84a2.73,2.73,0,0,0,1.65-.72,2.66,2.66,0,0,0,.81-1.57.26.26,0,0,0-.17-.31c-.11,0-.29,0-.3.18a2.29,2.29,0,0,1-.66,1.32,2.24,2.24,0,0,1-1.33.61.25.25,0,0,0,0,.49Z"/><path class="cls-3" d="M185.48,146.24a7.85,7.85,0,0,0,3.52-1.31l-.34-.34a2.61,2.61,0,0,1-2,1.43l.12.47.8-.53a.25.25,0,0,0-.19-.45l-1.36.21a.26.26,0,0,0-.17.31.26.26,0,0,0,.31.17l1.35-.21-.19-.45-.8.52c-.18.12-.14.49.13.46a3.08,3.08,0,0,0,2.38-1.68c.11-.2-.11-.49-.34-.34a7.26,7.26,0,0,1-3.26,1.24.27.27,0,0,0-.25.25.26.26,0,0,0,.25.25Z"/><path class="cls-3" d="M168.1,138c5.31-4.07,10.83-8.29,17.47-9.86,6.15-1.45,13.23-.11,17.1,5.27.18.26.61,0,.43-.25-3.6-5-10-6.75-15.88-5.84-7.43,1.14-13.57,5.8-19.37,10.26-.25.19,0,.62.25.42Z"/><path class="cls-3" d="M172.37,136.21c5,.36,9.1-3.43,13.81-4.58a21,21,0,0,1,14.83,2c.28.15.53-.28.25-.43a21.53,21.53,0,0,0-13.59-2.32,23.68,23.68,0,0,0-6.84,2.34c-2.68,1.34-5.37,2.77-8.46,2.55-.32,0-.31.47,0,.49Z"/><path class="cls-3" d="M189,129.27a14.36,14.36,0,0,1,12.61,4.93c.21.24.56-.11.35-.35a14.81,14.81,0,0,0-13-5.08c-.31,0-.32.54,0,.5Z"/><path class="cls-3" d="M170.07,149.5a2.92,2.92,0,0,0,.82,1.91c.22.22.57-.13.35-.35a2.44,2.44,0,0,1-.68-1.56.25.25,0,0,0-.25-.25.24.24,0,0,0-.24.25Z"/><path class="cls-3" d="M169.71,149.74a29,29,0,0,1,7.5-3.62.25.25,0,0,0-.13-.48,30.16,30.16,0,0,0-7.63,3.67c-.26.18,0,.61.26.43Z"/><path class="cls-3" d="M174,154.06a19.72,19.72,0,0,0,3.83,1.52.25.25,0,0,0,.13-.48,19.11,19.11,0,0,1-3.71-1.47c-.28-.14-.54.28-.25.43Z"/><path class="cls-3" d="M112.91,146.13a12.9,12.9,0,0,0,4.17,2.1.25.25,0,0,0,.13-.48,12.69,12.69,0,0,1-4-2.05c-.25-.19-.5.24-.25.43Z"/><path class="cls-3" d="M112,147.83l2.23,1.29a.25.25,0,0,0,.26-.43l-2.24-1.29a.25.25,0,0,0-.25.43Z"/><path class="cls-3" d="M124.75,151.52l-.2,1.39H125c0-.06,0-.12,0-.18v0h0v-.07a1.28,1.28,0,0,1,0-.19.38.38,0,0,0,0-.1v0s0,0,0,0a3.37,3.37,0,0,1,.09-.34s0-.09,0,0l0-.09a.86.86,0,0,1,.1-.16.26.26,0,0,0-.09-.34.24.24,0,0,0-.34.09,2,2,0,0,0-.25,1.64.26.26,0,0,0,.24.19c.1,0,.23-.08.24-.19l.2-1.39a.25.25,0,0,0-.17-.3.25.25,0,0,0-.31.17Z"/><path class="cls-3" d="M132.53,148.22a3.25,3.25,0,0,0-.19,1.69.24.24,0,0,0,.3.17.26.26,0,0,0,.18-.3s0,0,0,0v-.06a.22.22,0,0,1,0-.08c0-.07,0-.13,0-.2a2.31,2.31,0,0,1,0-.37s0-.05,0-.05,0-.06,0-.09,0-.12,0-.18a2.43,2.43,0,0,1,.13-.38.27.27,0,0,0-.18-.31.26.26,0,0,0-.3.18Z"/><path class="cls-3" d="M132.37,146.08l-4.71-2.69a.25.25,0,0,0-.25.43l4.71,2.69a.25.25,0,0,0,.25-.43Z"/><path class="cls-3" d="M126.2,151.89l.14.08.06,0,0,0h0c.07.07.15.14.22.22l0,0,0,0s0,0,0,0l.08.12.08.14,0,.06h0v0a.29.29,0,0,0,.12.15.25.25,0,0,0,.36-.28,2,2,0,0,0-.94-1.09.25.25,0,1,0-.25.43Z"/><path class="cls-3" d="M128.46,204.58a71.45,71.45,0,0,0,47,3.11.25.25,0,0,0-.13-.48,70.87,70.87,0,0,1-46.6-3.06c-.3-.13-.55.3-.26.43Z"/><path class="cls-3" d="M125.09,203.79c1.19-.22,2.53-.45,3.58.31.26.19.51-.24.25-.43-1.16-.84-2.65-.6-4-.36-.31.06-.18.54.13.48Z"/><path class="cls-3" d="M175.55,207.63l1.17-.94a.25.25,0,1,0-.35-.35l-1.17.94a.25.25,0,0,0,.35.35Z"/><path class="cls-3" d="M221.7,100.83a8.44,8.44,0,0,1,2.73,9.41c-.1.3.38.43.48.13a8.91,8.91,0,0,0-2.86-9.89c-.25-.2-.61.15-.35.35Z"/><path class="cls-3" d="M222.24,99.87a9.7,9.7,0,0,1,6.08,10.9c-.06.31.42.45.48.13a10.22,10.22,0,0,0-6.43-11.51c-.3-.11-.43.37-.13.48Z"/><path class="cls-3" d="M222.22,100.53A8.39,8.39,0,0,1,226,111.09c-.12.3.36.43.48.13a8.88,8.88,0,0,0-4-11.12.25.25,0,0,0-.25.43Z"/><path class="cls-3" d="M221.76,70.55a11.83,11.83,0,0,1-1.52,12.58c-.2.24.14.6.35.35a12.36,12.36,0,0,0,1.6-13.18c-.14-.29-.57,0-.43.25Z"/><path class="cls-3" d="M221.94,69.31a13.82,13.82,0,0,1-.81,16c-.2.24.15.6.35.35a14.32,14.32,0,0,0,.89-16.65c-.17-.27-.6,0-.43.25Z"/><path class="cls-3" d="M116.78,50.48c.24-2.72,2.76-4.43,5.3-4.69,2.86-.29,5.57.86,8.14,2,.29.12.54-.3.25-.43-2.88-1.24-6-2.52-9.17-1.91a5.94,5.94,0,0,0-5,5.07c0,.32.47.31.5,0Z"/><path class="cls-3" d="M129.72,45.81a8.78,8.78,0,0,0-13.59,4.57.24.24,0,0,0,.47.13,8.3,8.3,0,0,1,12.87-4.27c.26.19.51-.24.25-.43Z"/><path class="cls-3" d="M223.64,113.2c4.49,3.54,10.59,3.6,15.23,6.81,6.32,4.35,5.93,12.77,5.39,19.53,0,.32.47.32.49,0,.52-6.46.93-14.3-4.43-19-4.64-4.1-11.5-3.85-16.32-7.66-.25-.19-.61.16-.36.35Z"/><path class="cls-3" d="M225.73,112.09c6.26,4.55,14.73,5.81,18.87,13,4.61,8,2.69,17.54.75,26-.07.31.41.44.48.13,1.94-8.5,3.82-18-.61-26.06a19.47,19.47,0,0,0-8.3-7.7c-3.65-1.94-7.58-3.36-10.94-5.81-.26-.18-.51.25-.25.43Z"/><path class="cls-3" d="M216.17,138.27a27.68,27.68,0,0,1,3.7-10.18c.43-.7,1.34-2.32,2.4-2.07l1.15.87a5.2,5.2,0,0,1,.09,1c0,.37,0,.75,0,1.12,0,1.8.07,3.6,0,5.39a15.69,15.69,0,0,1-1.42,5.67,17.57,17.57,0,0,0-1.52,4.68c-.47,3.27-.09,7.38-3.19,9.49-.26.18,0,.61.25.43,3.4-2.32,2.88-6.66,3.49-10.23.4-2.37,1.73-4.38,2.38-6.66a23.39,23.39,0,0,0,.54-6.52c0-1.12,0-2.25,0-3.37a2.7,2.7,0,0,0-.46-1.8c-.87-1-2.29-.46-3.06.34a16.54,16.54,0,0,0-2.87,5,28.22,28.22,0,0,0-1.92,6.74c-.05.31.43.45.48.13Z"/><path class="cls-3" d="M210.29,171.91a8.09,8.09,0,0,0,5.54-3.16c.19-.25-.24-.5-.43-.25a7.53,7.53,0,0,1-5.11,2.91c-.31,0-.32.53,0,.5Z"/><path class="cls-3" d="M216.77,166.34c.87-2-.1-3.86-.29-5.83a8.38,8.38,0,0,1,1.59-5.73c.19-.26-.24-.51-.43-.25a8.87,8.87,0,0,0-1.69,5.23c0,2.08,1.3,4.31.39,6.32-.13.29.3.55.43.26Z"/><path class="cls-3" d="M220.43,136.74a5.5,5.5,0,0,1,.17-3.29,1.79,1.79,0,0,1,2.29-1c.29.15.54-.28.25-.42a2.22,2.22,0,0,0-2.86,1,5.69,5.69,0,0,0-.33,3.86c0,.32.52.18.48-.13Z"/><path class="cls-3" d="M213.76,148.65a30.12,30.12,0,0,1-2.21,14.5c-.12.29.36.42.48.13a30.54,30.54,0,0,0,2.23-14.63c0-.31-.53-.32-.5,0Z"/><path class="cls-3" d="M105,81.52a7.82,7.82,0,0,0-4.82-5.46c-3.08-1.32-6.57-1-9.82-.65-.32,0-.32.52,0,.49,3-.3,6.25-.64,9.18.44a7.44,7.44,0,0,1,5,5.31c.06.32.54.18.48-.13Z"/><path class="cls-3" d="M93,74a11.24,11.24,0,0,1,12.69,6.12c.14.29.57,0,.43-.25A11.72,11.72,0,0,0,92.9,73.55c-.32.07-.18.55.13.47Z"/><path class="cls-3" d="M94.84,70.18a14,14,0,0,1,12.61,10.07.25.25,0,0,0,.48-.13A14.48,14.48,0,0,0,94.84,69.68c-.32,0-.32.48,0,.5Z"/><path class="cls-3" d="M151.2,72.93c-5.35-5.43-8.42-13.29-7-20.91,1.27-6.91,6.71-12.92,13.91-13.58.32,0,.32-.53,0-.5-7.25.66-12.87,6.56-14.3,13.53-1.63,7.91,1.49,16.15,7.06,21.81.22.22.57-.13.35-.35Z"/><path class="cls-3" d="M152.39,71.89c-2.54-6.33-4.84-13.19-3.52-20.09,1.17-6.14,5.7-11.84,12.27-12.34.31,0,.32-.52,0-.5-6.28.48-10.95,5.58-12.47,11.45-1.9,7.35.51,14.82,3.24,21.62.12.29.6.16.48-.14Z"/><path class="cls-3" d="M155.4,70c-3-10.94-1.93-24.44,8.43-31.18.27-.18,0-.61-.25-.43a22.53,22.53,0,0,0-9.1,12.67c-1.83,6.23-1.23,12.88.44,19.07a.25.25,0,0,0,.48-.13Z"/><path class="cls-3" d="M197.52,85.4a19,19,0,0,0,13-22.85c-.08-.31-.56-.17-.48.14a18.47,18.47,0,0,1-12.65,22.23.25.25,0,0,0,.13.48Z"/><path class="cls-3" d="M203.82,85.29a30,30,0,0,0,12.56-22.08c0-.32-.48-.32-.5,0a29.47,29.47,0,0,1-12.31,21.66c-.26.18,0,.61.25.42Z"/><path class="cls-3" d="M206.84,86.54a19.93,19.93,0,0,0,11.22-18.07.25.25,0,0,0-.49,0,19.47,19.47,0,0,1-11,17.64c-.29.14,0,.56.25.43Z"/><path class="cls-3" d="M109.61,76.91a15.4,15.4,0,0,0-11.46-8.8c-.31,0-.45.43-.13.48a14.92,14.92,0,0,1,11.16,8.57c.13.29.56,0,.43-.25Z"/><path class="cls-3" d="M124.54,70.13a49.84,49.84,0,0,1-7-19c0-.31-.53-.18-.48.13a50.31,50.31,0,0,0,7,19.09c.17.27.6,0,.43-.25Z"/><path class="cls-3" d="M138.16,71.3c-4.28-3.79-5.1-10.19-4.69-15.59a29.94,29.94,0,0,1,6.06-15.85c.2-.25-.23-.5-.42-.25a30.35,30.35,0,0,0-6.17,16.52c-.34,5.41.6,11.74,4.87,15.52.24.21.59-.14.35-.35Z"/><path class="cls-3" d="M146.12,71.32c-4.58-3.89-6-10.83-5.65-16.56a26.48,26.48,0,0,1,6.87-16.28c.22-.23-.13-.58-.35-.35a27.06,27.06,0,0,0-7,16.63c-.31,5.86,1.12,12.94,5.8,16.91.24.2.59-.15.35-.35Z"/><path class="cls-3" d="M182.24,75.12a29,29,0,0,0,14.41-27.44c0-.32-.52-.32-.49,0a28.57,28.57,0,0,1-14.17,27c-.28.15,0,.58.25.43Z"/><path class="cls-3" d="M186.47,75.51a48.06,48.06,0,0,0,12.72-26.15c.05-.31-.43-.45-.47-.13a47.69,47.69,0,0,1-12.6,25.93c-.22.23.13.59.35.35Z"/><path class="cls-3" d="M189,76.83A33.69,33.69,0,0,0,200.28,50.9a.25.25,0,0,0-.49,0,33.23,33.23,0,0,1-11.14,25.58c-.24.21.12.56.35.35Z"/><path class="cls-3" d="M159.18,70.16a27.74,27.74,0,0,1,2.28-19.89c2.9-5.45,7.74-10.21,13.66-12.19.3-.1.17-.58-.13-.47-6.05,2-11,6.85-14,12.4a28.22,28.22,0,0,0-2.32,20.28c.07.31.55.18.47-.13Z"/><path class="cls-3" d="M133.66,69.9a31.74,31.74,0,0,1,8-33.35c.23-.22-.12-.57-.35-.35A32.24,32.24,0,0,0,133.18,70c.11.3.59.17.48-.13Z"/><path class="cls-3" d="M165.43,69a30.93,30.93,0,0,0,18.68-25.73c0-.32-.47-.32-.5,0a30.45,30.45,0,0,1-18.43,25.3c-.29.13,0,.55.25.43Z"/><path class="cls-3" d="M168.56,69.88A34.25,34.25,0,0,0,187.3,42.46c0-.32-.47-.32-.5,0a33.71,33.71,0,0,1-18.49,27c-.28.14,0,.57.25.43Z"/><path class="cls-3" d="M174,70.14a32.09,32.09,0,0,0,15.15-27.07.25.25,0,0,0-.49,0,31.57,31.57,0,0,1-14.91,26.64c-.27.17,0,.6.25.43Z"/><path class="cls-3" d="M178.92,70.16a30.78,30.78,0,0,0,13-26.18c0-.32-.51-.32-.5,0a30.3,30.3,0,0,1-12.77,25.76c-.26.18,0,.61.25.42Z"/><path class="cls-3" d="M208.65,90.56a13.3,13.3,0,0,0,12,1c.29-.12.16-.6-.14-.48a12.82,12.82,0,0,1-11.6-.9c-.27-.17-.52.26-.25.43Z"/><path class="cls-3" d="M208.72,92.9a17.44,17.44,0,0,0,13.41,2.82c.31-.07.18-.54-.13-.48a17,17,0,0,1-13-2.77c-.26-.18-.51.25-.25.43Z"/><path class="cls-3" d="M211.57,96.38a13.56,13.56,0,0,0,11.61,2.88c.31-.06.18-.54-.13-.47A13.07,13.07,0,0,1,211.92,96c-.24-.2-.59.15-.35.35Z"/><path class="cls-3" d="M213.14,100.42a11.37,11.37,0,0,0,8.4,6.25c.32,0,.45-.43.14-.48a10.92,10.92,0,0,1-8.11-6c-.14-.28-.57,0-.43.25Z"/><path class="cls-3" d="M215.6,106c1.49,2.41,3.15,5,5.92,6,.3.11.42-.37.13-.48-2.63-1-4.21-3.52-5.62-5.81a.25.25,0,0,0-.43.25Z"/><path class="cls-3" d="M216,110.39c2.92,2.16,3.38,6,3.72,9.4,0,.31.53.32.49,0-.35-3.56-.87-7.54-4-9.83-.26-.19-.51.24-.25.43Z"/><path class="cls-3" d="M221.77,121.09a36,36,0,0,0,3-8.85c.06-.31-.42-.44-.48-.13a35.53,35.53,0,0,1-2.95,8.73c-.14.29.29.54.43.25Z"/><path class="cls-3" d="M222.48,121.6l2.32-4.67c.14-.29-.29-.54-.43-.25l-2.32,4.67c-.14.28.29.54.43.25Z"/><path class="cls-3" d="M222.7,123.52a13.7,13.7,0,0,0,4.75-7.54c.07-.31-.4-.45-.48-.13a13.31,13.31,0,0,1-4.62,7.32c-.25.2.1.55.35.35Z"/><path class="cls-3" d="M213.85,132.2l3.42,2.57a.25.25,0,0,0,.25-.43l-3.42-2.57a.25.25,0,1,0-.25.43Z"/><path class="cls-3" d="M214.49,128.52l3.42,2.56a.25.25,0,0,0,.25-.43l-3.42-2.56a.25.25,0,1,0-.25.43Z"/><path class="cls-3" d="M215.22,124a7.39,7.39,0,0,0,3.24,4.16c.27.17.52-.26.25-.43a6.83,6.83,0,0,1-3-3.86.25.25,0,0,0-.48.13Z"/><path class="cls-3" d="M213.27,113.23a17.61,17.61,0,0,1,3.17,8.78c0,.31.52.32.49,0a18,18,0,0,0-3.23-9c-.18-.26-.61,0-.43.25Z"/><path class="cls-3" d="M213.27,110.59a20.44,20.44,0,0,1,4.89,11.11c0,.31.53.32.5,0a21,21,0,0,0-5-11.47c-.21-.24-.56.12-.35.36Z"/><path class="cls-3" d="M139.34,70.26a23.78,23.78,0,0,1,9.11,5.88c.22.23.57-.12.35-.35a24.39,24.39,0,0,0-9.33-6c-.3-.11-.43.37-.13.48Z"/><path class="cls-3" d="M149,76.46a19.58,19.58,0,0,1,15-6.39.25.25,0,0,0,0-.49,20,20,0,0,0-15.34,6.53c-.21.24.14.59.35.35Z"/><path class="cls-3" d="M181.82,42.48a15.77,15.77,0,0,1,10.94,1.81,15.33,15.33,0,0,1,4,3.25,47,47,0,0,0,3.43,4.26A12.13,12.13,0,0,0,204.49,54a21.28,21.28,0,0,1,5,2.37,19.36,19.36,0,0,1,7.14,8.66c.12.29.6.17.48-.13a20.06,20.06,0,0,0-6.45-8.32A19.51,19.51,0,0,0,206,54.06c-2.18-.85-4.4-1.38-6.06-3.16-1.33-1.43-2.27-3.15-3.65-4.53a15.91,15.91,0,0,0-4.28-3A16.36,16.36,0,0,0,181.68,42c-.31.06-.18.54.14.48Z"/><path class="cls-3" d="M97.08,71.92a6.83,6.83,0,0,1,6.21-5.58.26.26,0,0,0,.24-.18,21.28,21.28,0,0,1,11-13.5c.29-.14,0-.57-.25-.43a21.82,21.82,0,0,0-10,10.29c-.24.51-.45,1-.65,1.55s-.24,1.34-.54,1.67-1.05.26-1.38.36a7,7,0,0,0-1.45.6,7.34,7.34,0,0,0-3.69,5.09c-.06.31.42.45.48.13Z"/><path class="cls-3" d="M201.82,98.33c4.16,5.36,8.5,11,10.17,17.71.91,3.64.56,7.26.54,11,0,3.14.39,6.35,2.26,9,.19.26.62,0,.43-.25-2.23-3.13-2.27-7-2.15-10.68a31,31,0,0,0-.93-10.34c-1.9-6.29-6-11.62-10-16.74-.19-.25-.54.11-.35.36Z"/></g></g></svg>