<svg xmlns="http://www.w3.org/2000/svg" viewBox="0 0 309.39 301.06"><defs><style>.cls-1{fill:#333;}.cls-2{fill:#e0e4e1;}.cls-3{fill:#c6d2ca;}.cls-4{fill:#acc0b3;}.cls-5{fill:#17161b;}</style></defs><g id="Ebene_2" data-name="Ebene 2"><g id="Ebene_1-2" data-name="Ebene 1"><path class="cls-1" d="M146.49,271.5A131.13,131.13,0,0,1,51.54,50a131.13,131.13,0,0,1,190.08,180.7,130.25,130.25,0,0,1-91.73,40.74C148.76,271.49,147.62,271.5,146.49,271.5Zm.17-261.12c-1.12,0-2.24,0-3.37,0C71.64,12.24,14.82,72,16.63,143.66c1.79,70.53,59.74,126.69,129.9,126.7,1.11,0,2.22,0,3.33-.05A130,130,0,0,0,236.14,46.16,129.13,129.13,0,0,0,146.66,10.38Z"/><path class="cls-1" d="M119.05,240.06A119.27,119.27,0,0,1,0,122.32H1a118.07,118.07,0,1,0,76.9-112l-.36-1A119.09,119.09,0,0,1,227.4,170.46a119.4,119.4,0,0,1-108.35,69.6Z"/><path class="cls-1" d="M147.18,271.12a117.44,117.44,0,0,1-63.63-18.91A125,125,0,0,1,44.28,83.51a116.76,116.76,0,0,1,164-38.19,123.48,123.48,0,0,1,53.61,76.44h0A123.43,123.43,0,0,1,247.59,214a116.9,116.9,0,0,1-100.41,57.11Zm-2.5-243.67a115.79,115.79,0,0,0-26.28,3C55,45.24,15.78,110.31,31,175.53,44.06,231.77,93.41,270,147.4,270.05a115.7,115.7,0,0,0,99.3-56.57A123.91,123.91,0,0,0,207.75,46.2,116.34,116.34,0,0,0,144.68,27.45Z"/><path class="cls-1" d="M145.22,284.73a117.41,117.41,0,0,1-63.63-18.91A125,125,0,0,1,42.31,97.12a116.77,116.77,0,0,1,164-38.19A123.46,123.46,0,0,1,260,135.37h0a123.46,123.46,0,0,1-14.33,92.26,116.91,116.91,0,0,1-100.4,57.1ZM142.71,41.06A115.95,115.95,0,0,0,43.2,97.66a123.91,123.91,0,0,0,39,167.28,116.42,116.42,0,0,0,63.07,18.75,115.95,115.95,0,0,0,99.51-56.6A123.91,123.91,0,0,0,205.78,59.81,116.37,116.37,0,0,0,142.71,41.06Z"/><path class="cls-1" d="M161.07,252.74a117.44,117.44,0,0,1-63.63-18.91A125,125,0,0,1,58.16,65.14a116.76,116.76,0,0,1,164-38.2,123.48,123.48,0,0,1,53.61,76.44h0a123.5,123.5,0,0,1-14.33,92.26,116.91,116.91,0,0,1-100.41,57.1ZM158.35,9.1A115.68,115.68,0,0,0,59.06,65.67a122.42,122.42,0,0,0-14.21,91.49C60,222.37,124,263.43,187.36,248.67s102.62-79.83,87.43-145C261.7,47.38,212.35,9.1,158.35,9.1Z"/><path class="cls-1" d="M176.7,249.06A119.11,119.11,0,0,1,82.8,57a119.12,119.12,0,0,1,210.43,98.73l-1-.23a118.08,118.08,0,1,0-100.43,91.55l.14,1A120.38,120.38,0,0,1,176.7,249.06Z"/><path class="cls-1" d="M167.48,254.85A120.27,120.27,0,0,1,146.41,253,119.09,119.09,0,0,1,99,38.1,119.09,119.09,0,0,1,235.42,233.36,118.29,118.29,0,0,1,167.48,254.85Zm-.31-237.18a118.21,118.21,0,1,0,20.68,1.83A118.25,118.25,0,0,0,167.17,17.67Z"/><path class="cls-1" d="M190,238.22a119.11,119.11,0,0,1-96-189.28A119.23,119.23,0,0,1,212.66,2.11l-.19,1a118.07,118.07,0,0,0-91.76,211.35A118,118,0,0,0,306.9,100.85l1-.16a119.09,119.09,0,0,1-99.24,136.07A120.31,120.31,0,0,1,190,238.22Z"/><path class="cls-1" d="M150.37,264.85a123.32,123.32,0,0,1-84-32.51A116.77,116.77,0,0,1,61.74,64a125,125,0,0,1,173.14-4.81,116.78,116.78,0,0,1,4.68,168.36A123.49,123.49,0,0,1,154,264.8C152.76,264.83,151.56,264.85,150.37,264.85Zm3.56-1.09v0C220.86,261.9,273.85,207.45,272,142.38S214.29,25.9,147.37,27.75,27.44,84.06,29.25,149.13,87,265.61,153.93,263.76Z"/><path class="cls-1" d="M142.23,259.16a123.3,123.3,0,0,1-83.95-32.51A116.76,116.76,0,0,1,53.6,58.29a125,125,0,0,1,173.14-4.81,116.76,116.76,0,0,1,4.68,168.36,123.48,123.48,0,0,1-85.6,37.27l0-.53,0,.53C144.62,259.14,143.42,259.16,142.23,259.16ZM142.75,22c-1.17,0-2.34,0-3.52,0C72.29,23.92,19.3,78.37,21.11,143.44S78.85,259.91,145.79,258.06a122.4,122.4,0,0,0,84.88-36.95,115.59,115.59,0,0,0,33.23-84.42C262.13,72.77,208.11,22,142.75,22Z"/><path class="cls-1" d="M165.43,279.89a123.34,123.34,0,0,1-83.95-32.5A116.77,116.77,0,0,1,76.8,79a125,125,0,0,1,173.14-4.81,116.78,116.78,0,0,1,4.68,168.36A123.44,123.44,0,0,1,169,279.84l0-.52,0,.52C167.82,279.87,166.62,279.89,165.43,279.89ZM166,42.75c-1.17,0-2.34,0-3.52,0C95.49,44.66,42.5,99.11,44.31,164.17c1.78,63.93,55.79,114.68,121.16,114.68,1.17,0,2.34,0,3.52-.05a122.4,122.4,0,0,0,84.88-37,115.62,115.62,0,0,0,33.23-84.42C285.33,93.5,231.31,42.75,166,42.75Z"/><path class="cls-1" d="M162.14,301.06q-4.53,0-9.09-.35a118.74,118.74,0,0,1-39.58-9.94l.43-.95A118.07,118.07,0,1,0,44.24,173.14l-1-.08a119.07,119.07,0,1,1,118.94,128Z"/><circle class="cls-1" cx="155.42" cy="141.35" r="127.02"/><path class="cls-2" d="M108.18,211.91a63.79,63.79,0,0,1-11.72,44.35s-6.35,2.85,13.56,10.17c25.17,9.25,50.78,9.61,72.38,2.39C203.54,261.76,208,256.3,208,256.3s-1.94-3-7.56-21.06c-1.88-6-5.33-28-4.75-32.16s-53.15,23-63.35,19S108.18,211.91,108.18,211.91Z"/><path class="cls-3" d="M115.66,203.72c2,5.9,3.94,11.85,7.29,17.25a31.44,31.44,0,0,0,14.63,12.86c11.69,4.71,26.13.75,35.85-6.7s15.73-17.78,21.51-27.83"/><path class="cls-3" d="M105.38,206.56a145.22,145.22,0,0,0,5.36,14.09,52.59,52.59,0,0,0,7.41,11.7,38.1,38.1,0,0,0,22.13,13.33A47.43,47.43,0,0,0,166.59,243a54.09,54.09,0,0,0,11.47-6.08,65.49,65.49,0,0,0,10.39-9.22c6.22-7,11.05-14.93,15.69-23a11.11,11.11,0,0,0,1.07-8.22,10.89,10.89,0,0,0-4.89-6.37c-5.08-2.68-11.62-1.34-14.59,3.83a151.31,151.31,0,0,1-11,17.19L176.4,209a60.08,60.08,0,0,1-10.51,10.63l2.16-1.66a44.61,44.61,0,0,1-9.31,5.41l2.55-1.08a43.18,43.18,0,0,1-11,3l2.83-.38a35.74,35.74,0,0,1-8.89,0l2.83.38a29.21,29.21,0,0,1-7.05-1.91l2.55,1.08a29.14,29.14,0,0,1-6.15-3.6l2.15,1.67a34.24,34.24,0,0,1-6-6l1.67,2.16a47.37,47.37,0,0,1-5.71-10.06l1.08,2.55c-1.42-3.37-2.58-6.83-3.73-10.29a11.32,11.32,0,0,0-4.9-6.37,10.65,10.65,0,0,0-14.58,3.82,10.76,10.76,0,0,0-1.08,8.22Z"/><path class="cls-2" d="M92,174.77s1.46,28.1,18.48,43.13,33.43,34.54,63.16,18.23,40.29-46.88,42.93-54.52a65.85,65.85,0,0,0,3.22-13.23s8,2.06,8.44-10.25,3-18.06,3.43-27.66,1.79-20-7.11-19.06c0,0-1.45-3.61-3.06-16.67s-.89-35.76-23-48.93S166,26.69,136.2,35.86,93.58,71.51,91.57,86,87.28,108.34,87,113.13c0,0-6.56-1.93-6.18,4.12s3.27,14.68,2.63,22S82,161,82.6,166.09,91,173,92.54,169.45Z"/><path class="cls-3" d="M115.14,138.24a4.29,4.29,0,0,0,2.07,1.66,25.5,25.5,0,0,0,2.7,1.11,1,1,0,0,0,1.1-.45,1,1,0,0,0-.15-1.19l-1.81-2.25a2.3,2.3,0,0,0-.57-.55,1.39,1.39,0,0,0-1.11-.12,1.92,1.92,0,0,0-1.21,1.43,1,1,0,0,0,.68,1.2,1,1,0,0,0,1.21-.68c0-.05,0-.09,0-.14s0-.09,0,0a.41.41,0,0,1,.05-.09c0-.06,0,0-.06,0,.08-.07.06-.06,0,0s-.16.06-.09,0,0,0-.11,0a.56.56,0,0,1-.41-.16s.32.38.34.41l.33.41,1.4,1.74,1-1.63c-.4-.14-.79-.28-1.18-.44,0,0-.36-.14-.12-.05l-.29-.13-.57-.26a9.56,9.56,0,0,1-1-.53l-.1-.07,0,0s-.16-.13-.19-.16l-.09-.1c-.07-.08-.05-.06,0,.06a2.14,2.14,0,0,1-.13-.22,1,1,0,0,0-1.34-.35,1,1,0,0,0-.36,1.34Z"/><path class="cls-3" d="M116.9,140.43c6.38,5.27,14.07.38,21-.47,1.06-.13,3.54.39,4-1s-1.82-2-2.78-2.36a43.51,43.51,0,0,0-11.39-2.42c-1.16-.09-1.26,1.59-.26,1.93l9.37,3.18.26-1.93c-3.18.13-6.42.35-9.22,2l1.19,1.54a9.35,9.35,0,0,0,2.48-3.17l-1.11.45,2.45.64.26-1.93-2.33-.15c-1.26-.08-1.26,1.88,0,2l2.33.15a1,1,0,0,0,.26-1.92l-2.45-.64a1,1,0,0,0-1.1.45,8,8,0,0,1-2.18,2.77c-.86.72.25,2.1,1.19,1.54,2.5-1.48,5.4-1.62,8.23-1.74a1,1,0,0,0,.26-1.92L128,134.21l-.26,1.92a42.6,42.6,0,0,1,6.54,1c1,.24,1.94.52,2.9.82.55.18,1.09.36,1.63.56a7,7,0,0,1,1.34.47l-.09-.76,0,.17.45-.58c-.25.18-1.08,0-1.4.05s-.87.06-1.3.11a27.46,27.46,0,0,0-2.85.52c-1.92.46-3.79,1.09-5.71,1.59-3.58.94-7.86,1.47-10.94-1.07-1-.8-2.36.58-1.38,1.38Z"/><path class="cls-3" d="M172.82,137.53c2.31-3.57,8.07-2.74,11.7-2.65,3.88.11,8.69-.11,11.53,3,.8.88,2-.23,1.54-1.18a7.06,7.06,0,0,0-5.09-3.62,38.38,38.38,0,0,0-8.62-.92c-3.75,0-11.58.28-10.38,6.07l1.44-1.11a.55.55,0,0,1-.42-.6,1,1,0,0,0-2,0c-.22,2.24,1.87,3.37,3.8,3.6,2.84.34,5.73.43,8.58.64,4.7.35,10.32,1.58,14.33-1.59.79-.63-.07-1.9-1-1.64a41.42,41.42,0,0,1-14.12,1.78,17.24,17.24,0,0,1-6.25-1.45,10.92,10.92,0,0,1-1.43-.79c.07-.17,1.11-.4,1.3-.46a13,13,0,0,1,3.61-.5l-.26-1.92-5.3,2.19a1,1,0,0,0,.26,1.93l8,.37-.26-1.92a18.67,18.67,0,0,1-6.18.58l.26,1.93a89.64,89.64,0,0,1,13.5-.92l-.26-1.92-3.16.91a1,1,0,0,0,.27,1.92L195,139v-2l-6.92.5c-1.25.09-1.27,2,0,2l6-.31c.77,0,1.4-1.09.7-1.67-4.2-3.48-9.65-2.59-14.53-1.31l.52,1.89a24.91,24.91,0,0,1,6.68-1.68c1.79-.18,4.7-.61,5.94,1l1.19-1.54a22.24,22.24,0,0,0-6.91-2.06,20.57,20.57,0,0,0-3.68-.15,5.6,5.6,0,0,0-3,.67,1.77,1.77,0,0,0,.91,3.25c1.39.16,2.86,0,4.25.07l4.4.06-.49-1.83a14.67,14.67,0,0,1-5.2,1.62l.26,1.92a10.44,10.44,0,0,1,4.41-.39c1.25.15,1.24-1.82,0-2a11.91,11.91,0,0,0-4.93.46c-1,.31-.89,2.06.26,1.93a17.32,17.32,0,0,0,6.19-1.89,1,1,0,0,0-.5-1.82l-5.38-.07a11.55,11.55,0,0,0-2.69,0c-.53.14,0,.1.18.11.43,0,.94-.1,1.37-.13a19.77,19.77,0,0,1,9.6,2,1,1,0,0,0,1.19-1.54c-1.47-1.89-4.29-1.76-6.43-1.63a26.19,26.19,0,0,0-8.1,1.82c-1.14.46-.73,2.22.52,1.89,4.08-1.07,9-2.16,12.62.81l.69-1.68-6,.31v2L195,139c1.24-.09,1.27-2,0-2l-6.63.25.26,1.93,3.15-.91a1,1,0,0,0-.26-1.93,92.65,92.65,0,0,0-14,1c-1.15.17-.77,1.85.26,1.92a20.19,20.19,0,0,0,6.7-.65,1,1,0,0,0-.26-1.93l-8-.37.26,1.92,5.3-2.19c1-.4.94-1.93-.26-1.93a15,15,0,0,0-4.55.7c-1,.32-2.19.74-2.44,1.87-.53,2.4,4.2,3.6,5.83,4,6,1.43,12.73.42,18.58-1.29l-1-1.64c-3.09,2.45-7.85,1.4-11.45,1.13l-6.21-.45c-1.39-.11-5.92.25-5.7-1.94h-2a2.58,2.58,0,0,0,1.39,2.3,1,1,0,0,0,1.44-1.11c-.89-4.27,7.66-3.65,10-3.56a37.87,37.87,0,0,1,6.2.72c1.81.38,3.54,1,4.35,2.82l1.54-1.19c-3.33-3.66-8.86-3.49-13.41-3.6-4.4-.1-10.16-.6-12.9,3.63-.69,1.06,1,2.05,1.69,1Z"/><path class="cls-3" d="M124.75,195.1c.3,0,15.21-6.57,27.08-1.23,0,0,9.51-2.6,18.18-.17,0,0,7,1.56,10.22.16s6.69-2.37,4.81-1.3-9.27,4.88-13.17,7.52-7.07,7.94-15.22,8.18-17.05.37-22.7-7S124.75,195.1,124.75,195.1Z"/><path class="cls-4" d="M225.19,111s-4.81,13.45-5.71,18.74-3.2-11.87-2-19.94,1.08-25.08,1-27.63S205.65,56.1,196.85,47s5.92,1.42,5.92,1.42a45,45,0,0,1,16.56,27.44C222.49,93.9,224.1,103.51,225.19,111Z"/><path class="cls-4" d="M220,144S202.81,207.88,192,213.68,172.06,234.52,157.52,230c0,0-3-4.5-4.72-2.47s-4.36,2.11-7.64,1.21S124,224.63,112.7,210.59s-15-11.74-17-23.39-3.61-15.37-4.08-14.47S93.06,198.52,103,208s22.2,30.05,36.05,32.81,29,1,38.16-6.08,33-27.21,36-37.64S223.07,160.78,220,144Z"/><path class="cls-4" d="M118.47,194.2c9.49-4.2,20.09-8.69,30.51-5.14a16.29,16.29,0,0,0,3.23.9,9.28,9.28,0,0,0,3.66-.43,36.27,36.27,0,0,1,7.66-1.34,69.06,69.06,0,0,1,15.84,1.36c2.5.43,5.77.58,7.81,2.26a4.49,4.49,0,0,1,.57,6.13c-.79,1,.59,2.37,1.39,1.39a6.49,6.49,0,0,0-2.65-10.16c-2.49-1-5.35-1.31-8-1.75-2.88-.48-5.77-.9-8.68-1.11a44.82,44.82,0,0,0-8.59.12,33.84,33.84,0,0,0-4.14.74,15.5,15.5,0,0,1-4.23.89,15.94,15.94,0,0,1-4-1.1,23.32,23.32,0,0,0-4-.89,30.88,30.88,0,0,0-8.48.08c-6.63.94-12.79,3.67-18.86,6.36-1.15.51-.15,2.2,1,1.69Z"/><path class="cls-4" d="M189.6,198.11c2.06-2.82,4.14-6,3.46-9.67-.65-3.49-3.69-5.06-7-5.07-2,0-4,.33-6,.48-2.27.16-4.54.24-6.81.22a84.75,84.75,0,0,1-13.77-1.26c-1.23-.22-1.76,1.67-.52,1.89a86.65,86.65,0,0,0,23.52.9c2.84-.29,7.08-1,8.39,2.36s-1.13,6.61-3,9.16c-.74,1,1,2,1.7,1Z"/><path class="cls-4" d="M157.71,182.59a11.86,11.86,0,0,1-6.53,1.1c-2.14-.25-4-1.26-5.91-2.09-4.23-1.79-8.46-.33-12.7.68-4,1-8.52,1.58-12.29,3.4-3.22,1.55-5.65,4.67-5.09,8.37.18,1.25,2.07.72,1.89-.52-.63-4.17,4-6.35,7.25-7.24,4-1.08,8-1.94,12-2.89,2.14-.52,4.38-1.1,6.58-.56,1.79.44,3.38,1.48,5.11,2.11a13.79,13.79,0,0,0,10.67-.67c1.14-.55.14-2.24-1-1.69Z"/><path class="cls-4" d="M120.35,190.07a54,54,0,0,1,20.17-5.51l-.26-1.93a52.55,52.55,0,0,0-12.58,3.24,25.67,25.67,0,0,0-5.24,3.17c-1.67,1.26-3.33,2.51-5.46,2.81l1,1.63,3.53-2.81c.76-.6-.06-2-.95-1.64l-3.71,1.4,1,1.64c3.91-3.24,9.31-3.11,14.08-3.71a28.49,28.49,0,0,0,7-1.76c2.39-.93,4.93-2.09,7.55-1.54l.52-1.89A32.08,32.08,0,0,0,122.76,189a1,1,0,0,0,1,1.7,42.64,42.64,0,0,1,31.41-1.85l.53-1.89a39.12,39.12,0,0,1-9.24-2.67l-.76,1.79a42.55,42.55,0,0,0,18.25.17c1.07-.22.85-2.06-.26-1.93l-7.12.83a1,1,0,0,0,0,2l2.09.19v-2l.13.25-.85.48a79.08,79.08,0,0,1,31.56,5.65c.85.34,1.48-.76,1.11-1.44a11.5,11.5,0,0,0-12.23-5.69c-1.18.23-.73,1.79.26,1.92a21.83,21.83,0,0,1,9.22,3.46c.79.51,1.94-.55,1.35-1.34l-2-2.67-1.11,1.44a4,4,0,0,1,3,4.56,1,1,0,0,0,1.89.52,6,6,0,0,0-7.35-7.55,1,1,0,0,0,.52,1.89,4,4,0,0,1,4.94,5.14l1.89.52a6,6,0,0,0-4.4-7c-.75-.18-1.65.71-1.1,1.44l2,2.66,1.34-1.34a24.09,24.09,0,0,0-10.21-3.72l.26,1.93a9.49,9.49,0,0,1,10,4.79l1.11-1.44a80.44,80.44,0,0,0-32.09-5.72,1,1,0,0,0-.84.49,1.81,1.81,0,0,0,1.56,2.7c1.27.08,1.24-1.84,0-2l-2.09-.2v2l7.12-.84-.26-1.92a40.28,40.28,0,0,1-17.21-.17c-1-.23-1.82,1.34-.75,1.8a41.59,41.59,0,0,0,9.7,2.86,1,1,0,0,0,.53-1.89,44.69,44.69,0,0,0-32.93,2l1,1.7a30.12,30.12,0,0,1,22.61-5.64c1.22.2,1.77-1.63.52-1.89-2.64-.55-5.1.18-7.56,1.14a32.93,32.93,0,0,1-8.4,2.2c-5.1.56-10.42.75-14.55,4.17a1,1,0,0,0,.95,1.64l3.71-1.39-1-1.64-3.53,2.81c-.87.69.12,1.75,1,1.64,4-.55,6.87-4.14,10.41-5.83,4-1.92,8.52-2.65,12.87-3.39,1.09-.18.84-2-.26-1.92a56.38,56.38,0,0,0-21.16,5.78c-1.13.56-.14,2.25,1,1.69Z"/><path class="cls-3" d="M124.05,196.54l8.25.69a1,1,0,0,0,1-1,1,1,0,0,0-1-1l-8.25-.69a1,1,0,0,0,0,2Z"/><path class="cls-3" d="M183.75,192l-16.38,4c-1.22.3-.7,2.19.53,1.89l16.37-4c1.22-.3.71-2.19-.52-1.9Z"/><path class="cls-4" d="M146.87,215.14a23.1,23.1,0,0,1,9.79.38,1,1,0,0,0,.52-1.89,25.53,25.53,0,0,0-10.83-.38,1,1,0,1,0,.52,1.89Z"/><path class="cls-4" d="M115.74,214.14c1.83-1,3.75-2.12,4.77-4a5.23,5.23,0,0,0,.62-3,10.09,10.09,0,0,0-1.11-3.32,1,1,0,1,0-1.69,1c.73,1.51,1.28,3.08.34,4.62a9.59,9.59,0,0,1-3.92,3.08c-1.11.6-.12,2.29,1,1.69Z"/><path class="cls-4" d="M118.69,201.77a33.4,33.4,0,0,0,16.24,27.42l1-1.69a28.76,28.76,0,0,1-14.22-18.07,1,1,0,0,0-1.64-.44l-4.79,5.83,1.64,1,.57-2.28h-1.89l1.83,5.79c.26.84,1.74,1,1.89,0l.77-5.32h-1.89l2.49,7.3a1,1,0,0,0,1.89-.52L121.1,211l-1.89.52a34.83,34.83,0,0,0,5.47,11.3c.73,1,2.33.13,1.69-1a37.49,37.49,0,0,1-4.57-13.56c-.17-1.24-2.06-.71-1.89.52a38.68,38.68,0,0,0,4.77,14l1.69-1A33.44,33.44,0,0,1,121.1,211c-.35-1.25-2.08-.7-1.89.52l1.47,9.79,1.89-.52-2.49-7.3c-.28-.82-1.74-1-1.89,0l-.77,5.32h1.89L117.48,213a1,1,0,0,0-1.89,0l-.57,2.28c-.22.88,1,1.75,1.64,1l4.79-5.83-1.64-.43a30.71,30.71,0,0,0,15.12,19.24,1,1,0,0,0,1-1.69,31.37,31.37,0,0,1-15.27-25.73c0-1.26-2-1.27-2,0Z"/><path class="cls-4" d="M177.53,227.62c4.54-6.91,12.07-13.15,10.83-22.29-.14-1.09-2-.84-1.92.26a20,20,0,0,0,4,10.63l1.1-1.44a3,3,0,0,1-2.31-3.38c.13-1.16-1.58-1.24-1.93-.26l-2.63,7.45,1.92.26a4.3,4.3,0,0,1,.37-1.58c.13-.24.72-.85,1-.43.69,1,2.39.07,1.7-1a2.44,2.44,0,0,0-3.29-.72c-1.32.75-1.58,2.35-1.73,3.72-.13,1.16,1.58,1.24,1.93.26l2.64-7.45-1.93-.26a5,5,0,0,0,3.75,5.28c.75.18,1.66-.72,1.11-1.44a18.14,18.14,0,0,1-3.74-9.65l-1.93.26c1.12,8.29-6.53,14.53-10.63,20.78-.7,1.06,1,2,1.69,1Z"/><path class="cls-4" d="M172.9,129.44a31.52,31.52,0,0,1,28.91-6.93v-1.89a89.54,89.54,0,0,1-29.39,6.59l.26,1.93c7.8-3.24,16.29-7.62,25-6v-1.89l-18.35,3.82c-1.23.26-.71,2.15.53,1.89l18.34-3.82a1,1,0,0,0,0-1.89c-9.15-1.72-17.81,2.57-26,6-.93.39-.95,2,.26,1.93a91.32,91.32,0,0,0,29.91-6.67,1,1,0,0,0,0-1.89,33.53,33.53,0,0,0-30.82,7.44c-.94.84.45,2.23,1.39,1.38Z"/><path class="cls-4" d="M134.4,129.28a78.12,78.12,0,0,0-14.75-6.63c-4.25-1.39-9.8-2.6-12.76,1.77a1,1,0,0,0,.59,1.44c4,1.67,8.47-.08,12.56,1.44s7.64,4.49,12.2,3.91a1,1,0,0,0,.26-1.93l-11.61-4.6c-3.44-1.37-7.19-2.72-10.82-1.24-1.16.47-.65,2.37.52,1.89,3.62-1.47,7.31.26,10.69,1.6l10.7,4.24.26-1.92c-4.47.57-8.08-2.63-12.1-4s-8.29.3-12.14-1.29l.59,1.44c2.71-4,8.76-1.52,12.29-.27A75.48,75.48,0,0,1,133.41,131a1,1,0,0,0,1-1.7Z"/><path class="cls-4" d="M91.77,82.88a64.15,64.15,0,0,0-.83,48.38,1,1,0,0,0,1.9-.52,197.17,197.17,0,0,1-.93-47.32c.13-1.26-1.84-1.25-2,0a200,200,0,0,0,1,47.84l1.9-.52a62.13,62.13,0,0,1,.63-46.87c.49-1.15-1.2-2.15-1.7-1Z"/><path class="cls-4" d="M88,102.3l-1.06,16.31h2l0-11a1,1,0,0,0-1.93-.26c-1.76,7.57-3.44,17,3.09,22.87a1,1,0,0,0,1.54-1.18A20.07,20.07,0,0,1,90,112.2l-1.93-.27.45,11c0,1.26,2,1.26,2,0l-.45-11a1,1,0,0,0-1.92-.26,22,22,0,0,0,1.69,18.4l1.54-1.18c-6-5.38-4.18-14.1-2.58-21l-1.92-.26,0,11a1,1,0,0,0,2,0l1.06-16.31C90,101,88,101,88,102.3Z"/><path class="cls-4" d="M169,143.83a29.06,29.06,0,0,0,28.58,5c1.17-.44.67-2.33-.52-1.89a27.08,27.08,0,0,1-26.67-4.46c-1-.8-2.35.58-1.39,1.39Z"/><path class="cls-4" d="M140,142.2a26,26,0,0,1-26.51,7.68,1,1,0,0,0-.52,1.89,27.94,27.94,0,0,0,28.41-8.18c.83-1-.55-2.34-1.38-1.39Z"/><path class="cls-4" d="M108,142.48a10.25,10.25,0,0,1,1.25-1,12.84,12.84,0,0,1,1.52-.89,11.83,11.83,0,0,1,3.19-1,1,1,0,0,0,.43-1.64l-1-1a1,1,0,0,0-1.38,0,1,1,0,0,0,0,1.38l.95,1,.43-1.64a13.77,13.77,0,0,0-6.83,3.44,1,1,0,1,0,1.39,1.39Z"/><path class="cls-4" d="M167.69,139A18.51,18.51,0,0,1,178,133.77a1,1,0,0,0,0-1.89,10.49,10.49,0,0,0-12.09,6.77,1,1,0,0,0,1.89.52,8.65,8.65,0,0,1,9.68-5.4v-1.89a20.22,20.22,0,0,0-11.2,5.77,1,1,0,0,0,1.39,1.38Z"/><path class="cls-4" d="M193.6,134.48a35.73,35.73,0,0,1,8.26,6.9l.95-1.64a17.16,17.16,0,0,1-6-4.09c-.87-.91-2.26.48-1.38,1.39a19.46,19.46,0,0,0,6.9,4.59,1,1,0,0,0,1.11-.45,1,1,0,0,0-.16-1.19,37.18,37.18,0,0,0-8.65-7.2,1,1,0,0,0-1,1.69Z"/><path class="cls-4" d="M171.38,136.76l-1.25.91a2.81,2.81,0,0,0-.84.73,1.17,1.17,0,0,0,.3,1.53,1.65,1.65,0,0,0,.86.3l.76.11,1.55.23a1.16,1.16,0,0,0,.64,0,1,1,0,0,0,.47-.4,1,1,0,0,0-.16-1.19c-.12-.13-.24-.27-.35-.41l.16.2a5.83,5.83,0,0,1-.72-1.23l.1.23a5.29,5.29,0,0,1-.21-.6,1,1,0,0,0-1.89.52,6.55,6.55,0,0,0,1.53,2.67l.95-1.63-1.44-.21-.7-.11a2.77,2.77,0,0,1-.64-.11l.24.1-.06,0,.19.15,0-.05.15.2,0,0,.1.23v0l0,.26v0l0,.26a.08.08,0,0,1,0-.07l-.1.23a.16.16,0,0,1,0-.07l-.15.2.09-.09-.19.15c.53-.4,1.07-.78,1.61-1.17a1,1,0,0,0,.45-.58,1,1,0,0,0-.68-1.21,1,1,0,0,0-.76.1Z"/><path class="cls-4" d="M226.72,119.16c.27-.67.91-2,1.69-1.09a5.67,5.67,0,0,1,.92,2.31,14.9,14.9,0,0,1,.09,4.85c-.41,3.65-1.2,7.28-1.83,10.89h1.89c-1-5.86,2.1-13.2-3.14-17.78l-.43,1.64,1.41-.54-1.11-.45,2.68,5.8a1,1,0,0,0,1.83-.5,18.21,18.21,0,0,0-2.28-7.32,1,1,0,0,0-1.7,1,15.79,15.79,0,0,1,2,6.33l1.83-.49-2.68-5.8a1,1,0,0,0-1.11-.45l-1.41.54a1,1,0,0,0-.44,1.64c2.19,1.91,2.68,4.81,2.65,7.58,0,3.13-.55,6.21,0,9.33a1,1,0,0,0,1.89,0c.46-2.62.91-5.24,1.37-7.87a29.23,29.23,0,0,0,.64-7c-.13-1.83-.57-4.43-2.19-5.58a2.42,2.42,0,0,0-2.67-.11,4.67,4.67,0,0,0-1.8,2.54c-.47,1.17,1.43,1.67,1.89.52Z"/><path class="cls-4" d="M224.38,129.59c-2.08,1.3-4.29,2.88-4.62,5.51a5.24,5.24,0,0,0,1,3.46,6.06,6.06,0,0,1,1.09,3.68c-.08,1.23-.82,2.37-.4,3.6a2,2,0,0,0,2.63,1.26c2.58-.92,2.48-4.36,2.08-6.52a27.54,27.54,0,0,1-.61-4.78,20.54,20.54,0,0,1,.52-4.94,1,1,0,0,0-1.64-1c-1.72,1.88-3.56,4.15-3,6.89.23,1.2,1,2.19,1.15,3.42a29.45,29.45,0,0,1-.07,4.2,1,1,0,0,0,1.83.5,6.81,6.81,0,0,0,.67-4.79c-.29-1.84-1.07-3.69-.62-5.56.3-1.23-1.59-1.75-1.89-.52a11.39,11.39,0,0,0,.37,5.34c.34,1.5.64,3.16-.22,4.54l1.82.49c0-1.21.13-2.44.1-3.66a8.29,8.29,0,0,0-.84-3.27c-1.11-2.47.51-4.43,2.13-6.19l-1.64-1a22.94,22.94,0,0,0-.31,8.62,19.21,19.21,0,0,1,.57,4.19,3.06,3.06,0,0,1-.59,1.78c-.4.46-.65.44-.55-.19s.37-1.3.46-2a7.41,7.41,0,0,0,0-1.94,9.61,9.61,0,0,0-1.49-3.59c-1.6-2.72,1.07-4.64,3.15-5.94,1.07-.67.09-2.37-1-1.7Z"/><path class="cls-4" d="M140.48,177.07c1.58-.74,3.46.14,4.84.92a15.4,15.4,0,0,0,5,2.24l.27-1.92a8.19,8.19,0,0,1-5.33-1.72c-1.52-1-3.59-1.94-5.27-.69a1,1,0,0,0-.35,1.34,1,1,0,0,0,1.34.35c1.38-1,3.06.59,4.21,1.28a9,9,0,0,0,5.4,1.4,1,1,0,0,0,1-.85,1,1,0,0,0-.7-1.08c-2-.31-3.56-1.59-5.33-2.46a6.84,6.84,0,0,0-6-.51,1,1,0,0,0,1,1.7Z"/><path class="cls-4" d="M159.47,179.41a8.52,8.52,0,0,1,3.23-2,8.73,8.73,0,0,1,1.83-.45,8.43,8.43,0,0,1,1-.06,4.34,4.34,0,0,1,.51,0,.94.94,0,0,1,.36.06l-.43-.25c-.22-.42-.17-.71.17-.89l-.12,0a1.69,1.69,0,0,0-.38,0l-1,.15c-.61.09-1.22.22-1.82.36a23.94,23.94,0,0,0-3.53,1.17,1,1,0,0,0-.69,1.21,1,1,0,0,0,1.21.68,24.15,24.15,0,0,1,3.89-1.25c.65-.15,1.31-.27,2-.36s1.53-.14,1.92-.85a1.33,1.33,0,0,0-.72-2,5.28,5.28,0,0,0-1.86-.11,10.84,10.84,0,0,0-3.62.87,10.46,10.46,0,0,0-3.32,2.26,1,1,0,0,0,1.38,1.38Z"/><path class="cls-4" d="M145.87,143.52,144,167.29,146,167c-1-2.53-2.45-5.44-5.56-5.63-2.94-.18-4.08,2.57-4.53,5l1.79-.24c-1.33-2.1,1.1-4.1,2.38-5.48a13.36,13.36,0,0,0,2.81-4.8c1.54-4.32,2.69-8.82,4-13.22L145,142.4l-2.62,20.93,1.24-.94a2.2,2.2,0,0,1-.42-4l-1.44-.59.71,5c.16,1.18,1.81.74,1.92-.26l.44-4.06h-2l.68,5.43a1,1,0,0,0,2,0c.13-1.73.1-3.89-1.59-4.91a2.72,2.72,0,0,0-3.73.67c-.74,1,1,2,1.7,1,.47-.65,1.38.32,1.54.73a5.83,5.83,0,0,1,.12,2.53h2l-.67-5.43a1,1,0,0,0-2,0l-.43,4.06,1.93-.26-.71-5.05a1,1,0,0,0-1.44-.58,4.18,4.18,0,0,0,.89,7.54c.66.24,1.17-.37,1.24-.95l2.62-20.93c.14-1.13-1.62-1.28-1.92-.26l-2.24,7.44a52.36,52.36,0,0,1-2.33,7.15c-1.52,3.21-7,6.28-4.44,10.42a1,1,0,0,0,1.79-.23c.28-1.48.69-3.78,2.69-3.54s2.95,2.51,3.62,4.17a1,1,0,0,0,1.92-.26l1.83-23.77c.1-1.26-1.87-1.26-2,0Z"/><path class="cls-4" d="M86.49,124.3A12.68,12.68,0,0,0,82.8,119a1,1,0,0,0-1.19-.15,1,1,0,0,0-.45,1.11,15.64,15.64,0,0,1,1.16,7.19,6.14,6.14,0,0,0,.19,2.45,1,1,0,0,0,1.89,0l.66-1.94a13.53,13.53,0,0,0,.59-1.87A1.63,1.63,0,0,0,85,124a1.39,1.39,0,0,0-1.72.19,1,1,0,0,0,1.38,1.39c-.64.65-.8-.27-.89-.16a3.23,3.23,0,0,0-.15.47c-.12.36-.24.71-.35,1.06L82.51,129H84.4a5.78,5.78,0,0,1-.1-2.27,14.66,14.66,0,0,0-.06-2.48,17.08,17.08,0,0,0-1.19-4.89l-1.64,1a10.81,10.81,0,0,1,3.19,4.48,1,1,0,1,0,1.89-.52Z"/><path class="cls-4" d="M90.31,132.62A28.11,28.11,0,0,0,85,136.27a8.22,8.22,0,0,0,2.91,13.45c.62.26,1.22-.38,1.24-.94l.41-12.39c0-1.19-1.54-1.21-1.93-.26l-.83,2,1.79-.23-1.3-2a1,1,0,0,0-1.79.23,14.49,14.49,0,0,0,0,9.89,1,1,0,0,0,1.92-.26l.89-8c.14-1.25-1.82-1.24-2,0l-.89,8,1.93-.26a12.71,12.71,0,0,1,0-8.85l-1.79.24,1.3,2.05a1,1,0,0,0,1.79-.24l.83-2-1.93-.26-.4,12.39,1.24-.95A6.32,6.32,0,0,1,84.7,141c.66-3.47,3.87-4.94,6.6-6.66,1.06-.67.08-2.36-1-1.69Z"/><path class="cls-4" d="M177.69,132.6h9.18c2.84,0,5.8-.09,8.41,1.21.28.14.53-.28.25-.42-2.48-1.24-5.25-1.28-8-1.28h-9.87a.25.25,0,0,0,0,.49Z"/><path class="cls-4" d="M112.5,137.83a23.91,23.91,0,0,1,8.87-3.62,29,29,0,0,1,10.82.42,71.12,71.12,0,0,1,9.56,2.9c.36.13,2.61.67,2.3,1.35-.12.26-2,.43-2.29.5l-5,1.11.24.41a7.1,7.1,0,0,1,7-2v-.47l-4.21.79c-.31.06-.18.53.13.47L144,139a.25.25,0,0,0-.06-.48l-4.68.32.07.48,2.43-.5c.31-.06.18-.53-.13-.47l-2.44.5a.25.25,0,0,0,.07.48l4.68-.32-.07-.48-4.12.71.13.47,4.21-.79a.24.24,0,0,0,0-.47,7.59,7.59,0,0,0-7.46,2.11.25.25,0,0,0,.24.41L143,139.6c.48-.1,2.61-.37,1.74-1.38a3.4,3.4,0,0,0-1.33-.59c-1-.39-2.08-.77-3.13-1.14-1.95-.68-3.91-1.32-5.91-1.84a32.86,32.86,0,0,0-11.71-1.12,24.18,24.18,0,0,0-10.44,3.88c-.26.17,0,.59.25.42Z"/><path class="cls-4" d="M109.73,140.94c3.2,2,6.54,4,10.34,4.54a15.09,15.09,0,0,0,10-2.18.25.25,0,0,0-.25-.43,14.58,14.58,0,0,1-10.1,2.06c-3.56-.6-6.68-2.54-9.7-4.42-.27-.16-.51.26-.25.43Z"/><path class="cls-4" d="M175.23,142a30,30,0,0,0,16,.78c.31-.07.18-.54-.13-.47a29.59,29.59,0,0,1-15.75-.78c-.3-.1-.42.37-.13.47Z"/><path class="cls-4" d="M175.22,140.2a52.08,52.08,0,0,0,12.42,1.53c4.13-.16,7.93-1.67,11.89-2.7a.24.24,0,0,0-.13-.47c-3.91,1-7.67,2.52-11.76,2.68a52.08,52.08,0,0,1-12.29-1.51c-.3-.06-.44.41-.13.47Z"/><path class="cls-4" d="M114.25,139.55a17.54,17.54,0,0,0,10.37,3.61,17.73,17.73,0,0,0,5.46-.83c2.29-.7,4.48-1.67,6.9-1.79a.25.25,0,0,0,0-.49c-4,.2-7.57,2.5-11.65,2.61a17,17,0,0,1-10.83-3.54c-.25-.19-.5.24-.25.43Z"/><path class="cls-4" d="M135.58,169.05a4.76,4.76,0,0,0,2.93,7.25c.31.07.44-.4.13-.47A4.28,4.28,0,0,1,136,169.3c.18-.27-.25-.52-.42-.25Z"/><path class="cls-4" d="M151.22,179.59c3.23,1.28,6.26-.78,9.06-2.16a10.75,10.75,0,0,1,5.6-1.12,8.57,8.57,0,0,0,4.62-.58,6.24,6.24,0,0,0,2.81-6.91c-.69-3.17-3.18-5.44-5.87-7a.25.25,0,0,0-.25.43c2.58,1.52,5,3.68,5.65,6.73.73,3.35-1.27,6.73-4.85,6.92-1.47.08-2.94-.21-4.42,0a10.91,10.91,0,0,0-3.37,1.09c-2.74,1.33-5.69,3.45-8.85,2.2-.3-.11-.42.36-.13.47Z"/><path class="cls-4" d="M113.85,101.8a462.34,462.34,0,0,0,54.33-.28c.31,0,.31-.51,0-.49a462.34,462.34,0,0,1-54.33.28c-.32,0-.32.47,0,.49Z"/><path class="cls-4" d="M118.25,109.7c4.8,0,9.85-.06,14.18,2.31.27.15.52-.27.25-.42-4.41-2.42-9.54-2.43-14.43-2.38a.25.25,0,0,0,0,.49Z"/><path class="cls-4" d="M182.87,107.82a28.79,28.79,0,0,1,14.62-2.41c.32,0,.31-.46,0-.49a29.35,29.35,0,0,0-14.87,2.48c-.29.13,0,.55.25.42Z"/><path class="cls-4" d="M175.05,93.5a119.68,119.68,0,0,1,28.84,4.32.24.24,0,0,0,.13-.47,120.26,120.26,0,0,0-29-4.34c-.31,0-.31.48,0,.49Z"/><path class="cls-4" d="M219.6,131.32a82.79,82.79,0,0,1,2.93-11.73c.62-1.88,1.31-3.75,2.08-5.58s2.43-4.54,4.6-2.89c.25.19.5-.23.25-.42a2.91,2.91,0,0,0-3.89.63c-1.34,1.47-1.95,3.77-2.62,5.59a81.88,81.88,0,0,0-3.82,14.27c-.06.31.42.44.47.13Z"/><path class="cls-4" d="M219.46,167.76a6.06,6.06,0,0,0,9.63-3.55c.06-.26-.31-.44-.44-.19a10.22,10.22,0,0,1-3,3.94,5.2,5.2,0,0,1-4.81.43c-.29-.12-.42.36-.13.48a5.68,5.68,0,0,0,5.06-.41,10.43,10.43,0,0,0,3.32-4.19l-.45-.19a5.58,5.58,0,0,1-8.92,3.26c-.25-.19-.49.23-.24.42Z"/><path class="cls-4" d="M82.34,157.73a9.33,9.33,0,0,0,9.23,14.78l-.13-.48a6.17,6.17,0,0,1-6.31-1.57,9.67,9.67,0,0,1-2.74-6.76c-.24-5.15,1.91-10.08,1.5-15.24,0-.31-.51-.32-.49,0,.48,5.93-2.52,11.76-1.18,17.68.92,4.06,4.94,8,9.35,6.37a.25.25,0,0,0-.13-.48A8.83,8.83,0,0,1,82.76,158c.18-.26-.24-.5-.42-.25Z"/><path class="cls-4" d="M86.34,151.63a16.65,16.65,0,0,1,3.16,8.92.25.25,0,0,0,.49,0,17.11,17.11,0,0,0-3.22-9.16c-.19-.26-.61,0-.43.24Z"/><path class="cls-4" d="M92.06,173.74a62.35,62.35,0,0,1,.29-14.83h-.47A61.15,61.15,0,0,1,92.29,177h.49l0-13.44a.25.25,0,0,0-.49,0l-.86,12c0,.31.47.31.49,0l.9-12.38h-.49a163,163,0,0,0,6.57,36.12.24.24,0,0,0,.47-.13,162.49,162.49,0,0,1-6.55-36,.25.25,0,0,0-.49,0l-.9,12.38H92l.86-12h-.49l0,13.44c0,.32.45.3.49,0a61.36,61.36,0,0,0-.43-18.25c0-.23-.44-.24-.47,0a62.4,62.4,0,0,0-.31,15c0,.31.52.31.49,0Z"/><path class="cls-4" d="M105.67,123a3.69,3.69,0,0,1,2.3-1.61c.3-.07.17-.54-.13-.47a4.16,4.16,0,0,0-2.59,1.83c-.17.27.25.52.42.25Z"/><path class="cls-4" d="M200.45,118.7a7,7,0,0,1,3.32,1.74c.23.22.57-.13.34-.34a7.34,7.34,0,0,0-3.53-1.87c-.3-.07-.44.4-.13.47Z"/><path class="cls-4" d="M201.16,138.25a6.4,6.4,0,0,0,4.19-.15c.29-.12.17-.59-.13-.48a5.83,5.83,0,0,1-3.93.15c-.3-.09-.43.38-.13.48Z"/><path class="cls-4" d="M202.31,139.81a4.64,4.64,0,0,0,3.53.47.24.24,0,0,0-.13-.47,4.18,4.18,0,0,1-3.15-.42.24.24,0,0,0-.25.42Z"/><path class="cls-4" d="M201.09,138.25a4.65,4.65,0,0,0,3.61-2.84.25.25,0,0,0-.48-.13,4.13,4.13,0,0,1-3.26,2.49.25.25,0,0,0-.17.3.26.26,0,0,0,.3.18Z"/><path class="cls-4" d="M112.17,137.83a13.65,13.65,0,0,1-5.72-.41.25.25,0,0,0-.13.48,14.21,14.21,0,0,0,6,.4c.31-.05.18-.52-.13-.47Z"/><path class="cls-4" d="M110.28,138.35a8.7,8.7,0,0,1-4.73.58c-.31-.05-.44.42-.13.47a9.17,9.17,0,0,0,5-.58c.29-.12.16-.59-.13-.47Z"/><path class="cls-4" d="M181.64,132.8a5.58,5.58,0,0,0,.49,6.58,4.74,4.74,0,0,0,6.44.87,6.23,6.23,0,0,0,1.7-2.74,5.27,5.27,0,0,0,.43-3.33,3,3,0,0,0-2.62-2,11.23,11.23,0,0,0-4,.18,3.06,3.06,0,0,0-2.69,2.73c-.11,1.45.87,2.62,1.8,3.6a1,1,0,0,0,1.68-.69l0-4a1,1,0,0,0-1.92-.26l-.63,2.81.45-.59c.28-.15.41,0,.48.25,0,0,.07-.09,0,0s0,0,0,0c-.14.05.11,0,.05,0,.52-.08,1.15.42,1.62.7a2.68,2.68,0,0,1,.73.56.79.79,0,0,1,.22.48.19.19,0,0,1,0,.07c0,.06,0,.06,0,0l-.07.06s.06,0,.11,0c-.15,0,0,0,.13,0-.15,0-.05,0,0,0s.07.19,0,0l-.1.76,1.84-3.69-1.83-.49a6.29,6.29,0,0,1-.87,4.08,1,1,0,0,0,.25,1.27,1,1,0,0,0,1.29-.08,13.29,13.29,0,0,0,2.61-4.78l-1.92-.26a4.55,4.55,0,0,1-1.21,2.84,1,1,0,0,0,0,1.39,1,1,0,0,0,1.38,0,6.51,6.51,0,0,0,1.79-4.23,1,1,0,0,0-1.93-.26,11,11,0,0,1-2.1,3.91l1.54,1.19a8.13,8.13,0,0,0,1.13-5.07,1,1,0,0,0-.72-.95,1,1,0,0,0-1.1.45L185,136.53c-.2.39-.4.79-.59,1.18a1.34,1.34,0,0,0,.07,1.45,1.83,1.83,0,0,0,2.33.59,2.13,2.13,0,0,0,1.08-2,3.06,3.06,0,0,0-1.34-2.19,9.15,9.15,0,0,0-2-1.13,2.53,2.53,0,0,0-2.57.29,1.87,1.87,0,0,0-.47,2.32c.5.81,2,1.27,2.59.27a3.21,3.21,0,0,0,.24-.87l.16-.7.33-1.47-1.93-.26,0,4,1.67-.7a9.25,9.25,0,0,1-.79-.9,2.56,2.56,0,0,1-.43-.91.84.84,0,0,1,.16-.77,1.4,1.4,0,0,1,.81-.41,9.36,9.36,0,0,1,2.89-.25l.35,0s.19,0,.06,0a3.86,3.86,0,0,1,.57.12l.1,0a1.43,1.43,0,0,1,.27.15l0,0c.07.09.09.1,0,0a1.32,1.32,0,0,1,.12.2c-.05-.11,0,.09,0,.12,0,.18,0-.2,0,.12a1.93,1.93,0,0,1,0,.34c0,.2,0,.13,0,.08a7.69,7.69,0,0,1-.36,1.33,5.42,5.42,0,0,1-1,1.85,2.11,2.11,0,0,1-1.92.66,3.23,3.23,0,0,1-1.75-.84,3.58,3.58,0,0,1-.53-4.56,1,1,0,1,0-1.69-1Z"/><path class="cls-4" d="M180.86,132.77a6.64,6.64,0,0,0,0,6,4.69,4.69,0,0,0,5,2.35c2-.41,3.37-2.53,3.6-4.48a2.9,2.9,0,0,0-1.25-2.77,4.59,4.59,0,0,0-2.9-.61,2.57,2.57,0,0,0-1.86.58,1.32,1.32,0,0,0,.26,2,3.46,3.46,0,0,0,1.75.24l1.92,0a1,1,0,1,0,0-2l-2.47-.06h-.28c-.15,0,0,0,0,0l.14.53c.26.31.24.53,0,.64.06-.06.16,0,.06,0a6.73,6.73,0,0,1,1.19-.07,2.84,2.84,0,0,1,.87.15c.17.06-.16-.1.11.05l.18.1a.88.88,0,0,1,.27.26c-.09-.13.09.19.06.12a.9.9,0,0,1,.06.22c0-.11,0,.07,0,.08a2.38,2.38,0,0,1-.15.89,4,4,0,0,1-.84,1.49,1.93,1.93,0,0,1-.58.46,1.22,1.22,0,0,1-.34.14l-.21.06-.13,0a2.71,2.71,0,0,1-2.71-1.46,4.61,4.61,0,0,1,0-4.05,1,1,0,0,0-.36-1.34,1,1,0,0,0-1.34.35Z"/><path class="cls-4" d="M119.31,135.15a5.78,5.78,0,0,0,1.6,5.44,5.6,5.6,0,0,0,9.35-3,4.07,4.07,0,0,0-.38-3,2.85,2.85,0,0,0-3-.95c-.63.1-1.26.23-1.88.34a11.69,11.69,0,0,0-1.93.43,2.47,2.47,0,0,0-1.77,2.93l1.21-1.2c.08,0,.1.2,0,0,0,.1,0-.16,0,0,0-.22,0,0,0-.1s0-.05.13-.13c.47-.39,1.29-.16,1.81-.05l.52-1.89a6.53,6.53,0,0,0-3-.1,3.11,3.11,0,0,0-2,1.69,2.52,2.52,0,0,0,.46,2.62,5,5,0,0,0,2.34,1.36,1,1,0,0,0,1.2-.68l1.16-2.78-1.79.24a1.21,1.21,0,0,1-1,2,1,1,0,0,0-1,.85,1,1,0,0,0,.7,1.07,3.31,3.31,0,0,0,4-1.43,4.91,4.91,0,0,0,.37-1s0,0,0-.07,0-.18-.45,0-.46.18-.47,0c0,0,0,.25,0,.35a1.79,1.79,0,0,1-.91,1.4l1,1.69a6.53,6.53,0,0,0,2.86-5.31h-2c.06.43.3,1.56-.21,1.8-.11,0-.17,0-.27-.16a2.24,2.24,0,0,1-.26-1.11,1,1,0,0,0-1-1,1,1,0,0,0-1,1,4.36,4.36,0,0,0,.64,2.26,2.19,2.19,0,0,0,2.19.94,2.4,2.4,0,0,0,1.61-1.3,4.2,4.2,0,0,0,.22-2.43,1,1,0,0,0-2,0,4.5,4.5,0,0,1-1.89,3.62,1,1,0,0,0,1,1.69,3.73,3.73,0,0,0,1.8-2.44c.2-1,0-2.74-1.44-2.72a1.46,1.46,0,0,0-1.32.89,5.75,5.75,0,0,1-.41,1.05,1.36,1.36,0,0,1-1.66.39l-.26,1.93a3.23,3.23,0,0,0,2.84-1.64,3.19,3.19,0,0,0-.19-3.29,1,1,0,0,0-1.79.23l-1.16,2.78,1.21-.69c-.5-.17-1.9-.65-1.49-1.39s1.88-.55,2.65-.4a1,1,0,1,0,.52-1.89c-1.42-.3-3.09-.41-4,.93a2.07,2.07,0,0,0,1,3.17,1,1,0,0,0,1.2-1.21c0-.15,0-.24.16-.37a2,2,0,0,1,.91-.34c.86-.18,1.73-.32,2.59-.48.43-.08,1.26-.35,1.48.16a2.51,2.51,0,0,1,0,1.58,3.68,3.68,0,0,1-2.42,2.65,3.66,3.66,0,0,1-4.69-4.32c.28-1.23-1.6-1.75-1.89-.52Z"/><path class="cls-3" d="M113.8,138.07a6.4,6.4,0,0,0,3.74,2.93,1,1,0,0,0,.53-1.89,6.08,6.08,0,0,1-.6-.21l.24.1a5.82,5.82,0,0,1-1.21-.71l.2.15a5.45,5.45,0,0,1-1-1l.16.2a4.81,4.81,0,0,1-.4-.6,1,1,0,0,0-1.7,1Z"/><path class="cls-3" d="M114.89,138.52c.4-.22.81-.42,1.22-.62l.58-.26s.26-.11.11,0l.33-.14a24.69,24.69,0,0,1,2.51-.85,1,1,0,0,0,.68-1.2,1,1,0,0,0-1.2-.69,25.71,25.71,0,0,0-5.22,2.11,1,1,0,0,0-.35,1.34,1,1,0,0,0,1.34.35Z"/><path class="cls-3" d="M118.13,136.88a12.8,12.8,0,0,0,3.21,5.6,1,1,0,0,0,1.39,0,1,1,0,0,0,0-1.39c-.17-.17-.34-.35-.5-.53l-.22-.26-.13-.17c.06.07,0,.06,0,0a11.14,11.14,0,0,1-.8-1.22c-.12-.2-.22-.4-.33-.6s-.11-.24-.16-.35a1.11,1.11,0,0,1-.07-.16c-.07-.14,0,.14,0,0a14.12,14.12,0,0,1-.48-1.43,1,1,0,0,0-1.2-.68,1,1,0,0,0-.69,1.2Z"/><path class="cls-4" d="M133.39,200.6c4.68,6.42,13.28,8.32,20.83,7.91a24.75,24.75,0,0,0,10.43-2.76c3.54-1.93,5.9-5.49,9.57-7.15.29-.13,0-.56-.25-.43-3.33,1.51-5.48,4.64-8.54,6.56A23.05,23.05,0,0,1,155,208c-7.56.61-16.49-1.13-21.2-7.61-.19-.25-.61,0-.43.25Z"/><path class="cls-4" d="M130.18,193.54c5.14-.72,10.38-1.44,15.56-.73,2.32.32,4.52,1.23,6.88,1.06,2.62-.19,5.23-.49,7.84-.74.31,0,.32-.52,0-.49-2.61.25-5.22.54-7.84.74s-5-.86-7.55-1.14c-5-.57-10.06.13-15,.82-.31.05-.18.52.13.48Z"/><path class="cls-5" d="M107.06,142.05c2.54-1.71,5-3.49,7.62-5.12a16.35,16.35,0,0,1,8.85-2.3,28.79,28.79,0,0,1,8.83.72,16.86,16.86,0,0,1,4.07,1.81,16.37,16.37,0,0,1,1.8,1.29c.15.12.73.47.76.68l-.87,1.49a5.1,5.1,0,0,1-.89-.48c-.27-.17-.52.25-.25.42.77.48,2,1.05,2.69.16s-.54-2.18-1.25-2.75a17.72,17.72,0,0,0-9.67-3.76,49.5,49.5,0,0,0-6.09,0,17.35,17.35,0,0,0-5.4.88,23.7,23.7,0,0,0-4.92,2.85l-5.52,3.72c-.26.18,0,.6.24.43Z"/><path class="cls-5" d="M130.76,134.9A21.26,21.26,0,0,1,144.92,140c.24.2.59-.14.35-.35a21.8,21.8,0,0,0-14.51-5.22.25.25,0,0,0,0,.49Z"/><path class="cls-5" d="M119.41,134.67a5.19,5.19,0,0,0,2.35,6.78,5.69,5.69,0,0,0,7.28-2.2,6.36,6.36,0,0,0,.77-4.53.24.24,0,0,0-.48.06,9.2,9.2,0,0,1-.82,4.67,4.58,4.58,0,0,1-4.33,2.09,5.78,5.78,0,0,1-4.46-2.21,4.07,4.07,0,0,1-.06-4.3c.17-.27-.26-.52-.42-.25a4.51,4.51,0,0,0-.45,3.69,4.71,4.71,0,0,0,2.56,2.83c2.6,1.24,6.24,1,7.7-1.81a10.2,10.2,0,0,0,.77-4.71l-.49.07a5.46,5.46,0,0,1-5.16,6.66,4.68,4.68,0,0,1-4.34-6.6c.13-.28-.29-.53-.42-.24Z"/><path class="cls-5" d="M123.46,136.88a1.76,1.76,0,0,0,.77-.39.49.49,0,0,1,.62,0,.93.93,0,0,1,.07,1.34,1,1,0,0,1-1.41,0,.58.58,0,0,1-.08-.67.36.36,0,0,1,.51-.14.29.29,0,0,1,.13.26s0,0,0,0,0,.05,0,0a.31.31,0,0,1-.09.07l0,0h-.1s-.07,0,0,0a.19.19,0,0,1-.07-.08.3.3,0,0,1,0-.16.53.53,0,0,1,.42-.5.36.36,0,0,1,.4.55.26.26,0,0,1-.21.15l-.12,0a.38.38,0,0,1-.13-.06.29.29,0,0,1-.11-.21.33.33,0,0,1,.13-.24.22.22,0,0,1,.23,0,.26.26,0,0,1,.12.41l-.12.06a.12.12,0,0,1-.08,0,.11.11,0,0,1,0-.08v0h0v0a.18.18,0,0,1,.16,0,.26.26,0,0,1,.14.24.24.24,0,0,1-.13.24s-.09,0-.12-.06.2-.37.36-.28,0,0,0,0v0s0,0,0,0a.26.26,0,0,0-.08.34.25.25,0,0,0,.33.09A.53.53,0,0,0,125,137a.62.62,0,0,0-.6-.32.73.73,0,0,0-.62,1.08.56.56,0,0,0,.64.25.76.76,0,0,0,.47-.53.73.73,0,0,0-.84-.91.57.57,0,0,0-.43.52.64.64,0,0,0,.35.59.69.69,0,0,0,.95-.7.77.77,0,0,0-1-.64.78.78,0,0,0-.33,1.14.81.81,0,0,0,1.19.16.85.85,0,0,0,.06-1.2,1,1,0,0,0-1.44,1.26.7.7,0,0,0,1.08-.18.76.76,0,0,0-.54-1.08.9.9,0,0,0-1,.74,1.17,1.17,0,0,0,.62,1.22,1.49,1.49,0,0,0,1.39,0,1.53,1.53,0,0,0,.75-1.11,1.34,1.34,0,0,0-.47-1.23,1,1,0,0,0-.66-.23,1.15,1.15,0,0,0-.61.26,1.18,1.18,0,0,1-.45.27.25.25,0,0,0-.25.24.26.26,0,0,0,.25.25Z"/><path class="cls-5" d="M179.74,133.77a6.38,6.38,0,0,0,.93,4.56c.68,1.11,1.15,2.21,2.51,2.59a7.6,7.6,0,0,0,3.7,0,5.36,5.36,0,0,0,3.06-1.7c1.09-1.42.9-3.43.46-5.05-.07-.27-.52-.22-.49.06.17,1.81.36,3.88-.85,5.41-.94,1.18-2.54,1.28-3.95,1.27a3.63,3.63,0,0,1-1.94-.44,5.74,5.74,0,0,1-1.4-1.38,6.42,6.42,0,0,1-1.69-4.86c0-.32-.47-.31-.5,0a6.51,6.51,0,0,0,1,4.21A14.91,14.91,0,0,0,182,140a3.94,3.94,0,0,0,1.29,1,6.52,6.52,0,0,0,3.48.23,3.83,3.83,0,0,0,3-1.74c1-1.59.86-3.53.69-5.33l-.49.07c.44,1.62.64,3.79-.76,5a6.57,6.57,0,0,1-4,1.34,5.82,5.82,0,0,1-2-.22,2.65,2.65,0,0,1-1.5-1.35,13,13,0,0,1-1.21-2.27,5.64,5.64,0,0,1-.23-2.88c.06-.31-.42-.44-.48-.13Z"/><path class="cls-5" d="M183.13,135.54a1.61,1.61,0,0,1,1.63-.57c.24.06.64.24.61.54s-.45.58-.69.72a1.33,1.33,0,0,1-1.06.18.64.64,0,0,1-.44-.72.44.44,0,0,1,.26-.27.26.26,0,0,1,.32.08c0,.05,0,.15,0,.15s-.11-.12-.11-.17.18-.25.3-.29a.62.62,0,0,1,.53,0c.1.07.09.17,0,.21a2,2,0,0,1-.64,0l.07.48a2,2,0,0,1,1,0l-.11-.41a.79.79,0,0,1-.81.11l.11.41a1.14,1.14,0,0,1,.83-.23l-.07-.48-1.15.26a.25.25,0,0,0-.05.45l.48.21.06-.45-.45.11a.25.25,0,0,0,.13.48l.45-.12c.19,0,.26-.36.06-.44l-.49-.21-.06.44,1.16-.25a.25.25,0,0,0,.17-.27.27.27,0,0,0-.24-.22,1.65,1.65,0,0,0-1.17.37c-.16.13,0,.35.1.41a1.25,1.25,0,0,0,1.29-.24.25.25,0,0,0-.11-.41,2.44,2.44,0,0,0-1.23,0,.25.25,0,0,0,.07.48,2.3,2.3,0,0,0,.87-.07.59.59,0,0,0,.34-.67c-.17-.64-1-.61-1.46-.32a.81.81,0,0,0-.41.66.67.67,0,0,0,.4.61.53.53,0,0,0,.68-.27.62.62,0,0,0-.16-.74.85.85,0,0,0-1.32.43,1.11,1.11,0,0,0,.73,1.34,1.88,1.88,0,0,0,1.69-.34c.45-.32.93-.82.63-1.41a1.6,1.6,0,0,0-1.52-.67,2.08,2.08,0,0,0-1.47.75.26.26,0,0,0,0,.35.24.24,0,0,0,.35,0Z"/><path class="cls-5" d="M166.35,137.35a29.2,29.2,0,0,1,8.26-4.08c3.14-.78,6.46-.35,9.65-.12l4.46.31a10.34,10.34,0,0,1,4.81,1.08c2.18,1.36,3.29,4,6,4.49.31.06.44-.42.13-.47-2.92-.54-4.07-3.72-6.67-4.85a12.93,12.93,0,0,0-4.28-.74l-4.93-.35c-3.17-.22-6.42-.59-9.53.24a30.4,30.4,0,0,0-8.16,4.07c-.27.17,0,.59.25.42Z"/><path class="cls-5" d="M221.71,124.16c1.32-2.46,2.6-4.94,3.95-7.38.66-1.2,1.65-2.74,3.23-2.56s2.05,2.08,2,3.46c0,2.66-.36,5.35-.55,8l-.61,8.58c0,.32.47.32.49,0L231,123.9c.13-1.73.26-3.46.37-5.18a6.32,6.32,0,0,0-.48-3.65c-1.16-2-3.48-1.53-4.76.06a25.19,25.19,0,0,0-2.37,4.17l-2.47,4.61c-.15.28.28.54.43.25Z"/><path class="cls-5" d="M223.46,117.57a4.43,4.43,0,0,1,3.38-5.7c2.4-.42,4.64,1.28,5.69,3.32,2.07,4,1,9.29-.15,13.45-1.2,4.33-2.89,8.5-3.81,12.91a61.55,61.55,0,0,0-1.1,13.55c.05,2.64.44,5.33.31,8a6.19,6.19,0,0,1-1.3,3.87,3,3,0,0,1-4.27.53c-.24-.21-.59.14-.35.35a3.45,3.45,0,0,0,4.58-.14c1.74-1.54,1.92-4,1.82-6.2-.3-6.25-.55-12.44.57-18.63,1-5.63,3.4-10.86,4.62-16.43,1-4.35,1.59-10.54-2.29-13.72a5.26,5.26,0,0,0-5.92-.78,4.94,4.94,0,0,0-2.26,5.79.25.25,0,0,0,.48-.14Z"/><path class="cls-5" d="M220.73,133.36a4.85,4.85,0,0,1,2.49-1.93A1.92,1.92,0,0,1,225.5,133a13.89,13.89,0,0,1,0,6.81c-.07.31.41.45.48.13a15.62,15.62,0,0,0,.38-4.2,9.12,9.12,0,0,0-.66-3.51,2.26,2.26,0,0,0-2.44-1.33,5.06,5.06,0,0,0-2.92,2.1c-.2.25.15.6.36.35Z"/><path class="cls-5" d="M226.91,119.48a21.89,21.89,0,0,0,1.64,13.2c.13.29.56,0,.43-.26a21.3,21.3,0,0,1-1.59-12.81c.06-.32-.42-.45-.48-.13Z"/><path class="cls-5" d="M87.9,125.2c-1-1.77-2.09-3.51-3.19-5.24-.36-.57-.75-1.31-1.46-1.48a1,1,0,0,0-1.22.6c-.24.7.29,1.63.45,2.3a16.08,16.08,0,0,1-.35,8.86c-.1.31.38.44.48.13a16.61,16.61,0,0,0,.3-9.32c-.13-.49-1-2.48.31-2,.69.24,1.17,1.37,1.53,2,.94,1.49,1.84,3,2.72,4.5a.25.25,0,0,0,.43-.25Z"/><path class="cls-5" d="M82.58,146.47c2.5,6-2,12-1.25,18.08a7.72,7.72,0,0,0,9.44,6.84c.31-.07.18-.55-.13-.48A7.24,7.24,0,0,1,83.82,169c-2-2-2.27-5-1.95-7.67.58-5,3.26-10,1.19-14.95-.13-.29-.61-.16-.48.13Z"/><path class="cls-5" d="M112.27,138.55l2.9,3.06c.8.85,1.7,1.78,3,1.59l-.13-.48c-1.53.26-2.62-1.21-3.2-2.41-.33-.67-.59-1.37-1-2a1,1,0,0,0-.65-.57.61.61,0,0,0-.67.29.26.26,0,0,0,.22.38.75.75,0,0,1,.79.76L114,139l-1-.84c-.24-.21-.6.14-.35.35l1,.85a.25.25,0,0,0,.42-.18,1.27,1.27,0,0,0-1.29-1.26l.21.37c.18-.32.56.46.62.57.16.32.31.65.45,1a10.83,10.83,0,0,0,1,1.84,3.33,3.33,0,0,0,3.13,1.55c.32-.06.18-.53-.13-.48-1.19.17-2.09-1-2.8-1.78l-2.6-2.74c-.22-.23-.57.12-.35.35Z"/><path class="cls-5" d="M195.47,136.23a8,8,0,0,1-2.66,3.09c-.18.12-.14.5.12.46a3.24,3.24,0,0,0,2-1,4,4,0,0,0,.62-1c.14-.3.4-.81.81-.73l-.15-.36-.05.12a.25.25,0,1,0,.43.25l0-.12a.25.25,0,0,0-.15-.37,1.09,1.09,0,0,0-1.06.44c-.28.34-.39.78-.64,1.14a2.7,2.7,0,0,1-1.89,1.17l.13.46a8.54,8.54,0,0,0,2.84-3.27c.14-.28-.29-.54-.43-.25Z"/><path class="cls-5" d="M171.5,138a6.57,6.57,0,0,0,5.06,3.41c.32,0,.32-.47,0-.5a6,6,0,0,1-4.63-3.16c-.15-.29-.58,0-.43.25Z"/><path class="cls-5" d="M173.18,128.05c2.37-3.54,7.07-3.2,10.77-2.89,3.38.27,7.08.36,9.75-2.07.23-.22-.12-.57-.35-.35-5.7,5.2-15.87-2-20.6,5.06-.18.27.25.52.43.25Z"/><path class="cls-5" d="M177.34,125.12c5.83-2.62,12.23-5.38,18.7-3.49l-.15-.37a10.52,10.52,0,0,1-9.28,5.23c-3.87.08-7.82-.68-11.65-1.12-.32,0-.32.46,0,.5l6.62.76a28.27,28.27,0,0,0,6.56.26,10.79,10.79,0,0,0,8.18-5.38.24.24,0,0,0-.15-.36c-6.61-1.93-13.12.86-19.08,3.54-.29.13,0,.56.25.43Z"/><path class="cls-5" d="M183.16,123.76a39,39,0,0,1,11.9-.6c.32,0,.31-.47,0-.5a39.51,39.51,0,0,0-12,.62c-.31.07-.18.55.13.48Z"/><path class="cls-5" d="M192.26,122.25a11.53,11.53,0,0,1,6.16.89c.29.13.55-.3.25-.43a11.86,11.86,0,0,0-6.41-.95c-.31,0-.32.53,0,.49Z"/><path class="cls-5" d="M191.53,121.81a7.56,7.56,0,0,1,9.32.89.25.25,0,0,0,.35-.36,8.09,8.09,0,0,0-9.93-1c-.26.17,0,.6.26.43Z"/><path class="cls-5" d="M134,130.07a22.47,22.47,0,0,0-11.89-7.48,20.79,20.79,0,0,0-7.2-.54,14.12,14.12,0,0,0-7,3.14c-.26.19,0,.62.25.43a13.78,13.78,0,0,1,7.25-3.11,20.1,20.1,0,0,1,7,.66,22,22,0,0,1,11.29,7.25c.21.25.56-.1.36-.35Z"/><path class="cls-5" d="M106.94,125.05c.62,1.39,2.45,1.8,3.79,2.09a15.34,15.34,0,0,0,5.32.19c.32,0,.18-.53-.13-.48a14.66,14.66,0,0,1-4.9-.15c-1.24-.26-3.07-.6-3.65-1.9-.13-.29-.56,0-.43.25Z"/><path class="cls-5" d="M111.6,125.62c3.36,1.48,7.05-.29,10.49.86s6.46,4.1,10.39,3.59c.32,0,.32-.54,0-.49-3.86.5-6.81-2.42-10.26-3.58s-7.09.63-10.37-.81c-.29-.13-.54.3-.25.43Z"/><path class="cls-5" d="M130.39,127c-6.85.6-12.72-8.48-19.64-4.67a.25.25,0,0,0,.26.43c3.4-1.87,7.16-.1,10.2,1.64,2.84,1.62,5.78,3.4,9.18,3.1.32,0,.32-.52,0-.5Z"/><path class="cls-5" d="M125,195.62c3.74,1.4,7.72,1.27,11.64,1,2.13-.14,4.26-.3,6.4-.25a39,39,0,0,1,6.53,1,10.51,10.51,0,0,0,5.31-.22,31.62,31.62,0,0,1,6.27-1.71c4.26-.44,8.49.59,12.74.71,3.77.11,7.64-.45,10.65-2.89.25-.2-.1-.55-.35-.35-6.42,5.19-15.23,1.45-22.58,2-4.06.3-7.56,2.78-11.69,2a52.74,52.74,0,0,0-5.57-1,45.47,45.47,0,0,0-5.72.06c-4.53.27-9.15.76-13.49-.87-.3-.11-.43.37-.14.48Z"/><path class="cls-5" d="M189.44,184a5.22,5.22,0,0,1,1.88,6.28c-.12.29.31.55.43.25a5.71,5.71,0,0,0-2.06-7c-.27-.17-.51.26-.25.43Z"/><path class="cls-5" d="M117.52,187.25a4.23,4.23,0,0,0-2.48,6.24.25.25,0,0,0,.43-.26,3.81,3.81,0,0,1-.19-3.46,3.75,3.75,0,0,1,2.38-2c.3-.1.17-.58-.14-.48Z"/><path class="cls-5" d="M88.77,134.74c-.65-1.07-2.06-2.71-3.41-1.55a2.69,2.69,0,0,0-.73,1.76,21.72,21.72,0,0,0-.2,3.23c0,3.94,1,8.48,3.58,11.58.2.25.55-.1.35-.35-2.07-2.49-3-6-3.31-9.17a22.47,22.47,0,0,1,0-4.71c.09-.8.17-2.16,1.26-2.21s1.58,1,2,1.67a.25.25,0,0,0,.43-.25Z"/><path class="cls-5" d="M141.41,176.75a2.49,2.49,0,0,1-.81-.06c-.35-.1-.76-.61-.31-.89a2.61,2.61,0,0,1,1.39-.11,13,13,0,0,1,3,.61,12.65,12.65,0,0,1,5.12,3.24c.22.24.58-.12.35-.35a13.07,13.07,0,0,0-7.06-3.81,12.53,12.53,0,0,0-1.92-.21,1.83,1.83,0,0,0-1.4.38.93.93,0,0,0,0,1.21,1.93,1.93,0,0,0,1.6.49.25.25,0,0,0,0-.5Z"/><path class="cls-5" d="M167.11,175.42a16.81,16.81,0,0,0-6.76.62,14.73,14.73,0,0,0-3,1.26c-.7.4-1.35,1.21-.8,2,.18.26.61,0,.43-.25-.95-1.38,3.68-2.62,4.55-2.82a16.24,16.24,0,0,1,5.56-.32c.32,0,.31-.47,0-.5Z"/></g></g></svg>