<svg xmlns="http://www.w3.org/2000/svg" viewBox="0 0 134.32 47.77"><defs><style>.cls-1{fill:#1d1d1b;}</style></defs><g id="Ebene_2" data-name="Ebene 2"><g id="Ebene_1-2" data-name="Ebene 1"><path class="cls-1" d="M15.41,15.43v14.7h2.15v-15q0-4.58-1.71-6.77c-1.13-1.46-2.92-2.19-5.35-2.19A8,8,0,0,0,6.17,7.37a21.36,21.36,0,0,0-3.7,3H2.32l-.2-3.6H.28V30.13H2.42V12.51A22.54,22.54,0,0,1,6.26,9.23a6.81,6.81,0,0,1,3.8-1.1,4.64,4.64,0,0,1,4.11,1.78Q15.42,11.68,15.41,15.43Z"/><path class="cls-1" d="M33.31,6.18A7.29,7.29,0,0,0,29.94,7,9.17,9.17,0,0,0,27,9.47a11.84,11.84,0,0,0-2,3.87,16.17,16.17,0,0,0-.77,5.16A16,16,0,0,0,25,23.63a11.89,11.89,0,0,0,2.06,3.85A9.28,9.28,0,0,0,37.68,30a25.59,25.59,0,0,0,2.76-1.56l-.78-1.66a9.92,9.92,0,0,1-2.54,1.54,8.15,8.15,0,0,1-3.07.56,6.74,6.74,0,0,1-3.22-.76A7.41,7.41,0,0,1,28.38,26a9.9,9.9,0,0,1-1.59-3.22,14.89,14.89,0,0,1-.61-4.06h15a4.31,4.31,0,0,0,.09-.88V17q0-5.16-2.13-8A7,7,0,0,0,33.31,6.18ZM26.18,17A13.43,13.43,0,0,1,27,13.24a9.61,9.61,0,0,1,1.6-2.82,7.05,7.05,0,0,1,2.2-1.78A5.61,5.61,0,0,1,33.35,8a5.28,5.28,0,0,1,4.48,2.22c1.1,1.47,1.66,3.72,1.66,6.74Z"/><path class="cls-1" d="M60.76,19.37a11.5,11.5,0,0,0-2.46-1.31L55.57,17c-.68-.26-1.35-.53-2-.81a9.51,9.51,0,0,1-1.77-.94A4.5,4.5,0,0,1,50.53,14a3.13,3.13,0,0,1-.46-1.72,4.15,4.15,0,0,1,.32-1.56,3.59,3.59,0,0,1,1-1.36A5.08,5.08,0,0,1,53,8.4,6.53,6.53,0,0,1,55.33,8a7.25,7.25,0,0,1,3.11.61,14.22,14.22,0,0,1,2.49,1.48l1.16-1.5a10.33,10.33,0,0,0-3-1.76,10.1,10.1,0,0,0-3.62-.68,9.6,9.6,0,0,0-3.24.49A7,7,0,0,0,49.83,8a5.44,5.44,0,0,0-1.46,2,6,6,0,0,0-.49,2.41A4.71,4.71,0,0,0,48.54,15a6.16,6.16,0,0,0,1.73,1.8,11.72,11.72,0,0,0,2.41,1.29c.89.36,1.77.7,2.65,1,.68.26,1.35.54,2,.83a10.31,10.31,0,0,1,1.82,1,4.73,4.73,0,0,1,1.34,1.41,3.58,3.58,0,0,1,.51,1.9,4.47,4.47,0,0,1-1.38,3.24,5.7,5.7,0,0,1-4.17,1.39A9.4,9.4,0,0,1,51.24,28,15.88,15.88,0,0,1,48,25.9l-1.27,1.6a15.2,15.2,0,0,0,3.75,2.27,12,12,0,0,0,4.82.94,9.71,9.71,0,0,0,3.36-.53,7.82,7.82,0,0,0,2.48-1.44,5.77,5.77,0,0,0,1.53-2.09,6.29,6.29,0,0,0,.51-2.51,5.41,5.41,0,0,0-.68-2.84A6.16,6.16,0,0,0,60.76,19.37Z"/><path class="cls-1" d="M86.19,30.13V6.77H84.05V24a18.7,18.7,0,0,1-3.75,3.62,6.62,6.62,0,0,1-3.8,1.15A4.59,4.59,0,0,1,72.44,27q-1.25-1.77-1.24-5.52V6.77H69.06v15c0,3,.56,5.3,1.7,6.76s2.92,2.19,5.35,2.19a7.88,7.88,0,0,0,4.34-1.21,16.17,16.17,0,0,0,3.6-3.26h.1l.24,3.89Z"/><path class="cls-1" d="M104.74,28.09a10.45,10.45,0,0,1-1.44.51,6,6,0,0,1-1.48.22,4.48,4.48,0,0,1-2-.37,2.89,2.89,0,0,1-1.19-1A4.35,4.35,0,0,1,98,25.87a11.2,11.2,0,0,1-.17-2V8.62h6.77V6.77H97.87V0H96l-.29,6.77L92,7V8.62h3.65v15A14.28,14.28,0,0,0,96,26.53a5.61,5.61,0,0,0,1,2.24,4.42,4.42,0,0,0,1.8,1.43,6.84,6.84,0,0,0,2.82.51,8,8,0,0,0,1.76-.24,15.92,15.92,0,0,0,2-.63Z"/><path class="cls-1" d="M134.24,19.59a11.69,11.69,0,0,0-.07-3.18A12,12,0,0,0,133,9.34l-.21.11A11.82,11.82,0,0,1,134,15.57a10.68,10.68,0,0,0-.33-1.14,11.83,11.83,0,0,0-6.91-7.13,11.78,11.78,0,0,0-4.92-1.77,12.55,12.55,0,0,0-7.17.34c-.13,0-.25.1-.38.15a11.67,11.67,0,0,1,6.59-3l0-.24a12,12,0,0,0-7.16,3.51,12.42,12.42,0,0,0-6.14,5.8,11.78,11.78,0,0,0-.63,9.23,11.67,11.67,0,0,0,1.79,3.32,12.5,12.5,0,0,0,3.65,4.62,12.09,12.09,0,0,0,2.8,1.66,11.8,11.8,0,0,1-10.1-11.14h-.24a11.89,11.89,0,0,0,.88,4,12,12,0,0,0,10.39,7.46,11.76,11.76,0,0,0,3.73.61,12.41,12.41,0,0,0,1.6-.11,11.93,11.93,0,0,0,5.69-2.38A12.41,12.41,0,0,0,133,23.65a12.11,12.11,0,0,0,1-2.87A11.78,11.78,0,0,1,125,32.1a11.89,11.89,0,0,1-4,.24l0,.24a12.22,12.22,0,0,0,1.35.08,12,12,0,0,0,12-13.07Zm-.17-1.22c0-.17,0-.34-.09-.5l-.06-.22c0-.15.07-.3.1-.44A8.93,8.93,0,0,1,134.07,18.37Zm-.62-3.86a11.46,11.46,0,0,1,.47,1.9c0,.26-.08.51-.14.76a12,12,0,0,0-2.27-4.25A12.44,12.44,0,0,0,127.78,8,11.56,11.56,0,0,1,133.45,14.51Zm-8.1,15.26a13.88,13.88,0,0,1-1.78.41,12.07,12.07,0,0,0,3.65-2.09,12.67,12.67,0,0,0,1.7-1.42A11.57,11.57,0,0,1,125.35,29.77Zm-13-21.48,0,0,.49-.17c-.33.28-.65.57-1,.88C112.08,8.78,112.24,8.54,112.39,8.29Zm9.34-2.53a12.37,12.37,0,0,1,2.26.79,12.59,12.59,0,0,0-4.32.13,15.1,15.1,0,0,0-1.77.09,12.56,12.56,0,0,0-2.12.49,13.51,13.51,0,0,0-1.63.27,11.43,11.43,0,0,1,7.58-1.77Zm5.88,2.43A12.27,12.27,0,0,1,131,12.3a12.55,12.55,0,0,0-1.8-1.53,11.68,11.68,0,0,0-3.63-3.64c.37.1.73.22,1.08.35S127.28,7.94,127.61,8.19Zm-19.07,8.07a12.62,12.62,0,0,0,0,3.13,12.42,12.42,0,0,0,5.7,8.94,11.88,11.88,0,0,1-4.2-2.63,12.21,12.21,0,0,1-1.78-4.88h0A12.16,12.16,0,0,1,108.54,16.26ZM122,29.83a11.56,11.56,0,0,1-4.76-.4c-.21-.09-.42-.16-.62-.26a11.88,11.88,0,0,0,1.79.13A12.7,12.7,0,0,0,125.73,27,11.58,11.58,0,0,1,122,29.83Zm-1.05.45q-.61,0-1.23-.15c.27,0,.55,0,.82,0s.57,0,.86-.06l-.1,0ZM109.07,14.65A11.91,11.91,0,0,1,110.55,12a12.19,12.19,0,0,0-.29,3,11.77,11.77,0,0,0,0,7.53c.06.16.13.31.19.47s0,.25.07.37l.07,0a11.67,11.67,0,0,0,3.8,4.79,12.16,12.16,0,0,1-5.63-8.79A12.4,12.4,0,0,1,109.07,14.65Zm10.44-5.74a12,12,0,0,0-8.75,8.26,11.7,11.7,0,0,1-.26-2.12,12.21,12.21,0,0,1,7.06-7.48l.35-.06a11.83,11.83,0,0,1,4,1.08A12.85,12.85,0,0,0,119.51,8.91Zm2.9-.06a11.76,11.76,0,0,1,4.37,16.72A11.8,11.8,0,0,1,111.71,20a12.29,12.29,0,0,1-.84-2.28,11.7,11.7,0,0,1,11.54-8.82Zm-11.79,8.82a11.77,11.77,0,0,0-.32,4,11.47,11.47,0,0,1,0-5.93A11.68,11.68,0,0,0,110.62,17.67Zm.32-6.16a11.42,11.42,0,0,1,5.35-3.62,12.49,12.49,0,0,0-5.8,6.44A11.69,11.69,0,0,1,110.94,11.51Zm8-4.11a11.39,11.39,0,0,1,6.82,1.7,12.38,12.38,0,0,0-3.26-.5A12.26,12.26,0,0,0,118.9,7.4Zm3.59,21a12.25,12.25,0,0,1-6.6.41,11.45,11.45,0,0,1-5.16-5.84,11.7,11.7,0,0,1,0-4.79,11.32,11.32,0,0,0,.74,1.9,11.94,11.94,0,0,0,15,5.88l-.18.25A12.57,12.57,0,0,1,122.49,28.37Zm4.68-3A12,12,0,0,0,122.9,8.85a11.89,11.89,0,0,1,3.53.74,12,12,0,0,1,4.08,5.3,11.59,11.59,0,0,1-1,7.41,12.32,12.32,0,0,1-2.21,3.07Zm2.51-3A11.87,11.87,0,0,0,131,16.52c.05.24.1.49.14.74a11.8,11.8,0,0,1-.85,6.12,11.59,11.59,0,0,1-2.37,1.67A12.11,12.11,0,0,0,129.68,22.41Zm-1.05-11.7a4,4,0,0,1,.34.23c.11.17.21.35.31.53C129.07,11.21,128.86,11,128.63,10.71ZM115.25,28.88a10.81,10.81,0,0,0,2,.79,12.25,12.25,0,0,0,3,.78,11.62,11.62,0,0,1-7.88-2.38A12.55,12.55,0,0,1,111,26.82,12.26,12.26,0,0,0,115.25,28.88Zm6.83,1.18h0c.42-.06.83-.14,1.23-.23a12.55,12.55,0,0,1-1.73.45Zm.72-.37a12,12,0,0,0,3.74-3.34,8.93,8.93,0,0,0,.85-.78l.24-.1A11.72,11.72,0,0,0,130,23.89a11.12,11.12,0,0,1-1.25,2,11.68,11.68,0,0,1-3.18,2.86A11.64,11.64,0,0,1,122.8,29.69Zm6.29-3.54a12.07,12.07,0,0,0,1.61-2.83,12.34,12.34,0,0,1-.86,1.93C129.6,25.56,129.35,25.87,129.09,26.15Zm2.8-8.49a12.68,12.68,0,0,0-1.79-5,12.47,12.47,0,0,0-.65-1.38,11.49,11.49,0,0,1,1.84,1.78,12.15,12.15,0,0,1,.88,3.19,12.55,12.55,0,0,1-.28,4.74A12.72,12.72,0,0,0,131.89,17.66Zm-3.28-7.26h0c-.19-.12-.4-.22-.6-.33a12.33,12.33,0,0,0-4.21-2.6l-.31-.11-.63-.2a12.21,12.21,0,0,0-2.07-.4,11.12,11.12,0,0,1,1.41-.09,12.38,12.38,0,0,1,2.52.26A11.67,11.67,0,0,1,128.61,10.4ZM114.75,7.64a12.21,12.21,0,0,0-2.51,1.44,13,13,0,0,1,1.32-1.16C114,7.81,114.36,7.71,114.75,7.64Zm4,23.23c-.35.05-.7.1-1,.12a11.33,11.33,0,0,1-3.56-1.35A12.1,12.1,0,0,0,118.73,30.87ZM132.41,16.2a12.27,12.27,0,0,0-.61-2.51,11.65,11.65,0,0,1,1.87,4,11.82,11.82,0,0,1-1.6,3.57A12.62,12.62,0,0,0,132.41,16.2Zm-6.89-9.32c-.23-.07-.47-.12-.71-.17a8,8,0,0,0-.71-.38c-.14-.07-.29-.12-.44-.18A11.4,11.4,0,0,1,125.52,6.88ZM114.76,6.1a12.59,12.59,0,0,1,4.09-.69c.31,0,.63,0,.94,0a7.45,7.45,0,0,0-.94.08,11.67,11.67,0,0,0-5.39,2.16c-.3.09-.59.2-.89.31a12.54,12.54,0,0,1,1.28-1.55C114.15,6.33,114.45,6.21,114.76,6.1Zm-7.59,15.11a11.58,11.58,0,0,1,.62-9,12.19,12.19,0,0,1,5.45-5.41,12.18,12.18,0,0,0-1.92,3c-.14.18-.29.34-.43.52v0a12.06,12.06,0,0,0-3.41,10.08,12.19,12.19,0,0,0,.63,2.55c.06.22.13.43.21.65A11.35,11.35,0,0,1,107.17,21.21Zm14.18,9.9a11.42,11.42,0,0,1-2.74,0,11.79,11.79,0,0,0,1.29-.26c.38,0,.77,0,1.15-.08a11.92,11.92,0,0,0,1.35-.26,11.94,11.94,0,0,0,1.88-.24A11.35,11.35,0,0,1,121.35,31.11Zm11.47-7.57A12.11,12.11,0,0,1,128,28.65a12.62,12.62,0,0,0,3.6-6q.15-.34.27-.69a12.23,12.23,0,0,0,1.93-3.83,10.37,10.37,0,0,1,.22,1.45A11.74,11.74,0,0,1,132.82,23.54Z"/><rect class="cls-1" y="38.99" width="0.6" height="8.62"/><path class="cls-1" d="M9.51,41.18a1.91,1.91,0,0,0-1.07.34,6.75,6.75,0,0,0-1.06.94,2,2,0,0,0-.58-.94,1.75,1.75,0,0,0-1.16-.34,2,2,0,0,0-1,.32,4,4,0,0,0-.94.8h0l-.05-1h-.5v6.27h.58V42.88A2.77,2.77,0,0,1,5.53,41.7a1.24,1.24,0,0,1,1.08.48A2.63,2.63,0,0,1,7,43.66v4h.57V42.88A2.77,2.77,0,0,1,9.4,41.7a1.2,1.2,0,0,1,1.06.48,2.55,2.55,0,0,1,.34,1.48v4h.59v-4C11.39,42,10.76,41.18,9.51,41.18Z"/><path class="cls-1" d="M20.13,41.18a1.91,1.91,0,0,0-1.07.34,6.75,6.75,0,0,0-1.06.94,2,2,0,0,0-.58-.94,1.75,1.75,0,0,0-1.16-.34,2,2,0,0,0-1,.32,4,4,0,0,0-.94.8h0l-.05-1h-.5v6.27h.58V42.88a2.75,2.75,0,0,1,1.88-1.18,1.21,1.21,0,0,1,1.07.48,2.55,2.55,0,0,1,.34,1.48v4h.58V42.88A2.77,2.77,0,0,1,20,41.7a1.2,1.2,0,0,1,1.06.48,2.55,2.55,0,0,1,.34,1.48v4H22v-4C22,42,21.38,41.18,20.13,41.18Z"/><path class="cls-1" d="M28.58,42a2.6,2.6,0,0,0-.9-.64,2.74,2.74,0,0,0-2.15,0,2.7,2.7,0,0,0-.9.64,3.21,3.21,0,0,0-.61,1,4.13,4.13,0,0,0-.23,1.41A4,4,0,0,0,24,45.88a3.16,3.16,0,0,0,.61,1,2.7,2.7,0,0,0,.9.64,2.74,2.74,0,0,0,2.15,0,2.6,2.6,0,0,0,.9-.64,3.18,3.18,0,0,0,.62-1,4,4,0,0,0,.23-1.39,4.13,4.13,0,0,0-.23-1.41A3.23,3.23,0,0,0,28.58,42Zm.07,3.57a2.73,2.73,0,0,1-.46.88,2.18,2.18,0,0,1-.71.57,2,2,0,0,1-1.75,0,2,2,0,0,1-.7-.57,2.74,2.74,0,0,1-.47-.88,3.6,3.6,0,0,1-.17-1.12,3.69,3.69,0,0,1,.17-1.14,2.64,2.64,0,0,1,.47-.88,2,2,0,0,1,1.57-.78,2,2,0,0,1,.88.2,2.09,2.09,0,0,1,.71.58,2.63,2.63,0,0,1,.46.88,3.41,3.41,0,0,1,.17,1.14A3.33,3.33,0,0,1,28.65,45.61Z"/><path class="cls-1" d="M34,41.18a2.36,2.36,0,0,0-1.14.29,5.45,5.45,0,0,0-1,.69l0-1.23V38.21h-.57v9.4h.48l.07-.64h0a3.74,3.74,0,0,0,.94.58,2.26,2.26,0,0,0,1,.22,2.55,2.55,0,0,0,1-.23,2.49,2.49,0,0,0,.89-.67,3.14,3.14,0,0,0,.61-1.06,4.25,4.25,0,0,0,.22-1.43,3.9,3.9,0,0,0-.63-2.33A2.16,2.16,0,0,0,34,41.18Zm1.73,4.37a2.87,2.87,0,0,1-.45.91,2.05,2.05,0,0,1-.69.59,1.9,1.9,0,0,1-.88.21,2.5,2.5,0,0,1-.85-.18,3.46,3.46,0,0,1-1-.63V42.72A5.83,5.83,0,0,1,33,42a2.07,2.07,0,0,1,1-.27,2,2,0,0,1,.91.2,1.67,1.67,0,0,1,.62.56,2.67,2.67,0,0,1,.34.86,4.55,4.55,0,0,1,.12,1.07A3.89,3.89,0,0,1,35.76,45.55Z"/><path class="cls-1" d="M38.7,38.79a.52.52,0,0,0-.37.13.47.47,0,0,0-.16.39.44.44,0,0,0,.16.36.53.53,0,0,0,.74,0,.46.46,0,0,0,.15-.36.5.5,0,0,0-.15-.39A.52.52,0,0,0,38.7,38.79Z"/><rect class="cls-1" x="38.4" y="41.34" width="0.58" height="6.28"/><path class="cls-1" d="M42.33,47.26h-.09a.22.22,0,0,1-.19-.1.44.44,0,0,1-.08-.31V38.21h-.58v8.57c0,.66.26,1,.77,1l.24,0,.18,0-.1-.47Z"/><rect class="cls-1" x="44.49" y="41.34" width="0.58" height="6.28"/><path class="cls-1" d="M44.79,38.79a.52.52,0,0,0-.37.13.5.5,0,0,0-.15.39.46.46,0,0,0,.15.36.53.53,0,0,0,.74,0,.44.44,0,0,0,.16-.36.47.47,0,0,0-.16-.39A.52.52,0,0,0,44.79,38.79Z"/><path class="cls-1" d="M49.7,41.18a2.45,2.45,0,0,0-1,.23,2.72,2.72,0,0,0-.87.65,3.06,3.06,0,0,0-.62,1,4.29,4.29,0,0,0,0,2.77,3.11,3.11,0,0,0,.62,1,2.74,2.74,0,0,0,.93.65,2.85,2.85,0,0,0,1.13.22,2.88,2.88,0,0,0,1.14-.2,9.18,9.18,0,0,0,.83-.41l-.23-.45a3.16,3.16,0,0,1-.77.41,2.65,2.65,0,0,1-.92.15,2.19,2.19,0,0,1-1-.2,2.27,2.27,0,0,1-.74-.56,2.59,2.59,0,0,1-.47-.87,3.46,3.46,0,0,1-.19-1.09h4.53a1.79,1.79,0,0,0,0-.23v-.24a3.2,3.2,0,0,0-.64-2.14A2.17,2.17,0,0,0,49.7,41.18Zm-2.15,2.9a3.67,3.67,0,0,1,.24-1,2.55,2.55,0,0,1,.49-.76,1.93,1.93,0,0,1,.66-.48,1.83,1.83,0,0,1,.77-.16,1.65,1.65,0,0,1,1.35.59,2.79,2.79,0,0,1,.49,1.81Z"/><path class="cls-1" d="M56.55,41.18a2.15,2.15,0,0,0-1.16.32,5.57,5.57,0,0,0-1,.8h0l-.05-1h-.5v6.27h.58V42.88a6.06,6.06,0,0,1,1-.88,1.84,1.84,0,0,1,1-.3,1.25,1.25,0,0,1,1.11.48,2.64,2.64,0,0,1,.33,1.48v4h.58v-4A3,3,0,0,0,58,41.77,1.73,1.73,0,0,0,56.55,41.18Z"/><polygon class="cls-1" points="70.03 40.75 67.91 42.96 65.81 40.75 65.47 41.11 67.57 43.3 65.47 45.48 65.81 45.85 67.91 43.65 70.03 45.85 70.37 45.48 68.27 43.3 70.37 41.11 70.03 40.75"/><path class="cls-1" d="M79.42,39l-3,8.62H77l1-3h3.41l1,3h.63L80,39Zm1.28,3.55.55,1.61H78.19l.55-1.61c.18-.52.34-1,.5-1.48s.31-1,.46-1.5h0c.15.53.3,1,.46,1.5S80.53,42,80.7,42.54Z"/><path class="cls-1" d="M86.73,41.18a1.58,1.58,0,0,0-1,.36,3.23,3.23,0,0,0-.77,1h0l-.06-1.16h-.49v6.27h.57V43.34a3,3,0,0,1,.83-1.25,1.48,1.48,0,0,1,.88-.36,1.37,1.37,0,0,1,.31,0,1.3,1.3,0,0,1,.27.08l.13-.52a1.21,1.21,0,0,0-.3-.11Z"/><path class="cls-1" d="M91.66,47.05a2.08,2.08,0,0,1-.93.21,2.06,2.06,0,0,1-1.65-.77,2.73,2.73,0,0,1-.46-.88,3.61,3.61,0,0,1-.16-1.12,3.41,3.41,0,0,1,.18-1.14,2.66,2.66,0,0,1,.48-.88,2.33,2.33,0,0,1,.72-.58,2,2,0,0,1,.89-.2,1.75,1.75,0,0,1,.83.19,2.58,2.58,0,0,1,.67.48l.34-.41a4,4,0,0,0-.76-.54,2.35,2.35,0,0,0-1.09-.23,2.71,2.71,0,0,0-2,.86,3.25,3.25,0,0,0-.63,1,4.13,4.13,0,0,0-.23,1.41,4.23,4.23,0,0,0,.21,1.39,3.14,3.14,0,0,0,.6,1,2.64,2.64,0,0,0,.91.64,2.78,2.78,0,0,0,1.13.22,2.64,2.64,0,0,0,1.1-.23,4.24,4.24,0,0,0,.9-.59l-.3-.41A3.3,3.3,0,0,1,91.66,47.05Z"/><path class="cls-1" d="M97,41.18a2.15,2.15,0,0,0-1.16.32,5.27,5.27,0,0,0-1,.82V38.21h-.58v9.4h.58V42.88a6.06,6.06,0,0,1,1-.88,1.84,1.84,0,0,1,1-.3,1.25,1.25,0,0,1,1.11.48,2.64,2.64,0,0,1,.33,1.48v4h.58v-4a3,3,0,0,0-.46-1.81A1.73,1.73,0,0,0,97,41.18Z"/><path class="cls-1" d="M101.46,38.79a.52.52,0,0,0-.37.13.5.5,0,0,0-.15.39.46.46,0,0,0,.15.36.53.53,0,0,0,.74,0,.46.46,0,0,0,.15-.36.5.5,0,0,0-.15-.39A.52.52,0,0,0,101.46,38.79Z"/><rect class="cls-1" x="101.16" y="41.34" width="0.58" height="6.28"/><path class="cls-1" d="M106.34,47.2a1.43,1.43,0,0,1-.39.06,1.14,1.14,0,0,1-.53-.1.72.72,0,0,1-.32-.27,1.13,1.13,0,0,1-.17-.42,3,3,0,0,1,0-.54v-4.1h1.81v-.49h-1.81V39.52h-.5l-.08,1.82-1,0v.44h1v4a3.67,3.67,0,0,0,.07.77,1.47,1.47,0,0,0,.26.61,1.21,1.21,0,0,0,.48.38,1.84,1.84,0,0,0,.76.14,1.78,1.78,0,0,0,.47-.07c.18,0,.36-.1.55-.16l-.16-.48A1.77,1.77,0,0,1,106.34,47.2Z"/><path class="cls-1" d="M110.3,41.18a2.37,2.37,0,0,0-1,.23,2.76,2.76,0,0,0-.88.65,3,3,0,0,0-.61,1,4.29,4.29,0,0,0,0,2.77,3.11,3.11,0,0,0,.62,1,2.7,2.7,0,0,0,.92.65,2.85,2.85,0,0,0,1.13.22,2.88,2.88,0,0,0,1.14-.2,9.18,9.18,0,0,0,.83-.41l-.23-.45a3.16,3.16,0,0,1-.77.41,2.65,2.65,0,0,1-.92.15,2.14,2.14,0,0,1-1.7-.76,2.45,2.45,0,0,1-.48-.87,3.46,3.46,0,0,1-.18-1.09h4.52a.91.91,0,0,0,0-.23v-.24a3.25,3.25,0,0,0-.64-2.14A2.19,2.19,0,0,0,110.3,41.18Zm-2.14,2.9a3.06,3.06,0,0,1,.24-1,2.53,2.53,0,0,1,.48-.76,2.14,2.14,0,0,1,.66-.48,1.87,1.87,0,0,1,.77-.16,1.65,1.65,0,0,1,1.35.59,2.79,2.79,0,0,1,.5,1.81Z"/><polygon class="cls-1" points="118.77 41.34 118.11 41.34 115.01 45.14 114.98 45.14 114.98 38.21 114.41 38.21 114.41 47.61 114.98 47.61 114.98 45.9 116.39 44.25 118.47 47.61 119.11 47.61 116.73 43.82 118.77 41.34"/><path class="cls-1" d="M122.49,47.2a1.43,1.43,0,0,1-.39.06,1.14,1.14,0,0,1-.53-.1.72.72,0,0,1-.32-.27,1.13,1.13,0,0,1-.17-.42,3,3,0,0,1,0-.54v-4.1h1.81v-.49H121V39.52h-.5l-.08,1.82-1,0v.44h1v4a3.67,3.67,0,0,0,.07.77,1.47,1.47,0,0,0,.26.61,1.21,1.21,0,0,0,.48.38,1.84,1.84,0,0,0,.76.14,1.78,1.78,0,0,0,.47-.07c.18,0,.36-.1.55-.16l-.16-.48A1.77,1.77,0,0,1,122.49,47.2Z"/><path class="cls-1" d="M128.32,46a5,5,0,0,1-1,1,1.81,1.81,0,0,1-1,.31,1.23,1.23,0,0,1-1.09-.48,2.65,2.65,0,0,1-.33-1.49V41.34h-.58v4a3,3,0,0,0,.46,1.82,1.73,1.73,0,0,0,1.44.59,2.1,2.1,0,0,0,1.16-.33,4.34,4.34,0,0,0,1-.87h0l.06,1h.49V41.34h-.58Z"/><path class="cls-1" d="M133.67,41.18a1.58,1.58,0,0,0-1,.36,3.23,3.23,0,0,0-.77,1h0l0-1.16h-.5v6.27h.58V43.34a2.92,2.92,0,0,1,.83-1.25,1.46,1.46,0,0,1,.88-.36,1.32,1.32,0,0,1,.3,0,1.36,1.36,0,0,1,.28.08l.13-.52a1.6,1.6,0,0,0-.3-.11Z"/></g></g></svg>