<svg xmlns="http://www.w3.org/2000/svg" viewBox="0 0 138.9 140.87"><defs><style>.cls-1,.cls-2,.cls-3{fill:none;stroke:#1d1d1b;stroke-miterlimit:10;}.cls-1{stroke-width:1.91px;}.cls-2{stroke-width:1.15px;}.cls-3{stroke-width:3px;}</style></defs><g id="Ebene_2" data-name="Ebene 2"><g id="Ebene_1-2" data-name="Ebene 1"><circle class="cls-1" cx="68.96" cy="75.52" r="56.09"/><path class="cls-2" d="M132.33,31.32A56,56,0,1,1,75.56.57"/><ellipse class="cls-2" cx="64.95" cy="68.24" rx="57.7" ry="56.09" transform="matrix(0.94, -0.33, 0.33, 0.94, -18.77, 25.05)"/><ellipse class="cls-2" cx="80.78" cy="74.11" rx="57.7" ry="56.09" transform="translate(-19.82 30.56) rotate(-19.13)"/><path class="cls-2" d="M27.51,97.05a56,56,0,1,1,48.26,42.89"/><ellipse class="cls-2" cx="73.7" cy="70.89" rx="56.09" ry="57.7" transform="matrix(0.99, -0.13, 0.13, 0.99, -8.74, 10.39)"/><ellipse class="cls-3" cx="70.34" cy="77.88" rx="56.09" ry="57.7" transform="translate(-9.7 10.01) rotate(-7.61)"/><path class="cls-2" d="M35.44,25.74A56,56,0,1,1,.57,80.08"/></g></g></svg>