<svg xmlns="http://www.w3.org/2000/svg" viewBox="0 0 631.37 153.81"><defs><style>.cls-1{fill:#1d1d1b;}.cls-2,.cls-3,.cls-4{fill:none;stroke:#1d1d1b;stroke-miterlimit:10;}.cls-2{stroke-width:1.91px;}.cls-3{stroke-width:1.15px;}.cls-4{stroke-width:3px;}</style></defs><g id="Ebene_2" data-name="Ebene 2"><g id="Ebene_1-2" data-name="Ebene 1"><path class="cls-1" d="M0,31.87H8.71l.92,17h.68a100.78,100.78,0,0,1,17.43-14.1,37.57,37.57,0,0,1,20.4-5.61q17.2,0,25.22,10.31t8,31.87v70.62H71.3V72.67q0-17.64-5.85-26T46.08,38.29A32.37,32.37,0,0,0,28.2,43.45q-8,5.14-18.11,15.47v83H0Z"/><path class="cls-1" d="M158.25,144.66a40.87,40.87,0,0,1-32.14-15.24,56.12,56.12,0,0,1-9.73-18.11,75.72,75.72,0,0,1-3.58-24.19,76.77,76.77,0,0,1,3.58-24.3A57.22,57.22,0,0,1,126,44.59a43.93,43.93,0,0,1,13.72-11.46,33.92,33.92,0,0,1,15.87-4q17.61,0,27.64,13.29t10,37.6v4.13a21.24,21.24,0,0,1-.41,4.12H122a70.43,70.43,0,0,0,2.87,19.15,46.85,46.85,0,0,0,7.47,15.13,34.86,34.86,0,0,0,11.57,9.86A32,32,0,0,0,159.07,136a38,38,0,0,0,14.44-2.63,46,46,0,0,0,12-7.23l3.68,7.8a118,118,0,0,1-13,7.34Q169.11,144.67,158.25,144.66ZM184.67,80q0-21.32-7.79-31.75T155.79,37.83a26.64,26.64,0,0,0-12.07,2.87,32.41,32.41,0,0,0-10.35,8.36,46,46,0,0,0-7.57,13.3A64.19,64.19,0,0,0,122,80Z"/><path class="cls-1" d="M259.29,144.66a56.35,56.35,0,0,1-22.7-4.47,70.84,70.84,0,0,1-17.65-10.66l6-7.56a76.82,76.82,0,0,0,15.13,10q8,4,20,4,13.06,0,19.6-6.53a20.89,20.89,0,0,0,6.54-15.24,16.58,16.58,0,0,0-2.42-8.94,22.39,22.39,0,0,0-6.3-6.65,49.07,49.07,0,0,0-8.59-4.82q-4.71-2.07-9.52-3.9-6.2-2.28-12.5-4.81A55.07,55.07,0,0,1,235.45,79a29.4,29.4,0,0,1-8.14-8.48,22.16,22.16,0,0,1-3.1-12,28.85,28.85,0,0,1,2.29-11.35,25.74,25.74,0,0,1,6.88-9.39,33.56,33.56,0,0,1,11.12-6.31,46,46,0,0,1,15.25-2.29,47.32,47.32,0,0,1,17.08,3.21,49.4,49.4,0,0,1,14.33,8.25l-5.51,7.11a63.88,63.88,0,0,0-11.69-7,34.65,34.65,0,0,0-14.67-2.87,31.25,31.25,0,0,0-11,1.72A24.29,24.29,0,0,0,240.61,44,17,17,0,0,0,236,50.43a19.31,19.31,0,0,0-1.49,7.35,14.5,14.5,0,0,0,2.18,8.13,21.23,21.23,0,0,0,5.84,5.85,44.93,44.93,0,0,0,8.37,4.47q4.7,2,9.52,3.78c4.27,1.69,8.56,3.37,12.84,5a53.79,53.79,0,0,1,11.57,6.19,29.52,29.52,0,0,1,8.37,9q3.21,5.4,3.21,13.41A29.56,29.56,0,0,1,294,125.52a27.28,27.28,0,0,1-7.22,9.86,36.43,36.43,0,0,1-11.69,6.76A45.59,45.59,0,0,1,259.29,144.66Z"/><path class="cls-1" d="M357.19,144.66q-17.2,0-25.22-10.31t-8-31.87V31.87H334v69.24q0,17.65,5.85,26T359,135.5a31.39,31.39,0,0,0,17.88-5.39q8-5.39,17.65-17.08V31.87h10.09v110h-8.48L395,123.57h-.47a74.76,74.76,0,0,1-17,15.36A37,37,0,0,1,357.19,144.66Z"/><path class="cls-1" d="M476.86,144.66a32.19,32.19,0,0,1-13.3-2.4,21.32,21.32,0,0,1-8.48-6.76A26.49,26.49,0,0,1,450.61,125a67.07,67.07,0,0,1-1.26-13.53V40.58h-17.2v-7.8l17.43-.91L451,0h8.71V31.87h31.87v8.71H459.66v71.76a51,51,0,0,0,.81,9.52,19.73,19.73,0,0,0,2.86,7.33A13.93,13.93,0,0,0,469,134a21.51,21.51,0,0,0,9.28,1.71,26.65,26.65,0,0,0,7-1,43.52,43.52,0,0,0,6.76-2.4l2.75,8.25a77.16,77.16,0,0,1-9.63,3A36.69,36.69,0,0,1,476.86,144.66Z"/><circle class="cls-2" cx="561.43" cy="88.46" r="56.09"/><path class="cls-3" d="M624.8,44.26A56,56,0,1,1,568,13.51"/><ellipse class="cls-3" cx="557.42" cy="81.18" rx="57.7" ry="56.09" transform="matrix(0.94, -0.33, 0.33, 0.94, 4.18, 187.13)"/><ellipse class="cls-3" cx="573.25" cy="87.05" rx="57.7" ry="56.09" transform="translate(3.13 192.65) rotate(-19.13)"/><path class="cls-3" d="M520,110a56,56,0,1,1,48.26,42.89"/><ellipse class="cls-3" cx="566.17" cy="83.82" rx="56.09" ry="57.7" transform="matrix(0.99, -0.13, 0.13, 0.99, -6.11, 75.75)"/><ellipse class="cls-4" cx="562.81" cy="90.82" rx="56.09" ry="57.7" transform="translate(-7.07 75.37) rotate(-7.61)"/><path class="cls-3" d="M527.91,38.68A56,56,0,1,1,493,93"/></g></g></svg>