<?xml version="1.0" encoding="utf-8"?>
<!-- Generator: Adobe Illustrator 25.1.0, SVG Export Plug-In . SVG Version: 6.00 Build 0)  -->
<svg version="1.1" id="Ebene_1" xmlns="http://www.w3.org/2000/svg" xmlns:xlink="http://www.w3.org/1999/xlink" x="0px" y="0px"
	 viewBox="0 0 266.5 449.9" style="enable-background:new 0 0 266.5 449.9;" xml:space="preserve">
<style type="text/css">
	.st0{enable-background:new    ;}
	.st1{fill:none;stroke:#ACC0B3;stroke-width:3;stroke-miterlimit:10;}
</style>
<g id="Ebene_2_1_">
	<g id="Ebene_1-2">
		<g class="st0">
			<path class="st1" d="M63.4,174.9c7.3-4.9,14.8-8.7,22.5-11.2c7.7-2.5,16.5-3.8,26.4-3.8c14.6,0,28,2.6,40.2,7.8
				c12.2,5.2,22.8,12.2,31.5,21.1c8.8,8.9,15.6,19.2,20.5,31c4.9,11.8,7.3,24.3,7.3,37.4c0,13.3-2.4,25.9-7.2,37.8
				c-4.8,11.9-11.7,22.4-20.5,31.3c-8.9,9-19.5,16.1-31.9,21.4c-12.4,5.3-26.3,7.9-41.5,7.9c-11.6,0-22.4-1.5-32.4-4.6
				c-10-3.1-19.1-7.4-27.1-12.9c-8.1-5.5-15.1-12.1-21-19.8c-5.9-7.7-10.6-16.1-14.2-25.2l32-16c2.1,6.6,5.1,12.8,9.2,18.5
				c4,5.7,8.8,10.5,14.3,14.6s11.5,7.3,18.2,9.6c6.6,2.3,13.7,3.4,21.1,3.4c9.4,0,18.1-1.7,26.1-5.2c8-3.4,15-8.2,20.9-14.2
				c5.9-6,10.6-13,14-21c3.4-8,5.1-16.6,5.1-25.7c0-9.2-1.7-17.8-5.1-25.7c-3.4-7.9-8.1-14.7-14.1-20.5c-6-5.8-13-10.4-21-13.7
				s-16.6-5-25.9-5c-10.4,0-20,1.9-28.8,5.6s-16.1,8.7-22,14.9l-28.7-4.5V53.5H198v32.4H63.4V174.9z"/>
		</g>
	</g>
</g>
</svg>
