<svg xmlns="http://www.w3.org/2000/svg" viewBox="0 0 164.82 269.6"><defs><style>.cls-1{fill:none;stroke:#000;stroke-miterlimit:10;stroke-width:3px;}</style></defs><g id="Ebene_2" data-name="Ebene 2"><g id="Ebene_1-2" data-name="Ebene 1"><path class="cls-1" d="M127.94,74.3A41.17,41.17,0,0,0,125.12,60a42.32,42.32,0,0,0-8.71-14,47,47,0,0,0-14.87-10.6q-9-4.18-21.11-4.18a46.81,46.81,0,0,0-18.37,3.5q-8.3,3.51-16.49,13.07A35.18,35.18,0,0,0,36.68,69H4.21a62.33,62.33,0,0,1,7.44-26.83,79.44,79.44,0,0,1,16.66-21A78.42,78.42,0,0,1,80.09,1.5a86.88,86.88,0,0,1,33.15,6.07,80.3,80.3,0,0,1,25.38,16.06,71.57,71.57,0,0,1,16.24,22.82,63.6,63.6,0,0,1,5.72,26.14A67.31,67.31,0,0,1,158.53,89a59.15,59.15,0,0,1-6.41,15.64,60,60,0,0,1-11.19,13.75,68.86,68.86,0,0,1-16.58,11.11,58.26,58.26,0,0,1,15.13,8.63,60.22,60.22,0,0,1,12.39,13.25,65,65,0,0,1,8.37,17.43,70.67,70.67,0,0,1,3.08,21.36,74,74,0,0,1-6.5,31,77.36,77.36,0,0,1-17.6,24.69,81,81,0,0,1-26.06,16.33,86.57,86.57,0,0,1-32,5.89,91.73,91.73,0,0,1-31.19-5.55,73.34,73.34,0,0,1-26.24-15.81Q12.93,236.48,7.8,225.38a67.44,67.44,0,0,1-6.15-22H34.46q4.95,15.9,17.69,24.95t32.38,9.06a44.06,44.06,0,0,0,17.35-3.59,47.33,47.33,0,0,0,15-10,50,50,0,0,0,10.43-15,45,45,0,0,0,3.93-18.88,46.85,46.85,0,0,0-3.93-19.48,44.39,44.39,0,0,0-10.6-14.79,48,48,0,0,0-15.46-9.39,52.26,52.26,0,0,0-18.72-3.34H67.79V117h12A57.88,57.88,0,0,0,100,113.7a44.06,44.06,0,0,0,15.12-9.15A40.16,40.16,0,0,0,124.61,91,41.83,41.83,0,0,0,127.94,74.3Z"/></g></g></svg>