<?xml version="1.0" encoding="utf-8"?>
<!-- Generator: Adobe Illustrator 25.1.0, SVG Export Plug-In . SVG Version: 6.00 Build 0)  -->
<svg version="1.1" id="Ebene_1" xmlns="http://www.w3.org/2000/svg" xmlns:xlink="http://www.w3.org/1999/xlink" x="0px" y="0px"
	 viewBox="0 0 266.5 449.9" style="enable-background:new 0 0 266.5 449.9;" xml:space="preserve">
<style type="text/css">
	.st0{enable-background:new    ;}
	.st1{fill:none;stroke:#ACC0B3;stroke-width:3;stroke-miterlimit:10;}
</style>
<g id="Ebene_2_1_">
	<g id="Ebene_1-2">
		<g class="st0">
			<path class="st1" d="M18.7,320.8l104.1-125.8c3.5-4.2,7.2-8.7,11-13.5c3.8-4.8,7.4-9.9,10.7-15.2c3.3-5.3,6.1-10.9,8.2-16.7
				c2.1-5.8,3.2-11.8,3.2-18.1c0-6.5-1.3-12.6-3.9-18.4c-2.6-5.7-6.2-10.7-10.7-15c-4.6-4.3-10-7.7-16.3-10.2
				c-6.3-2.5-13.3-3.7-20.8-3.7c-6.8,0-13.2,1.1-19.2,3.2S73.6,92.8,69.1,97c-4.6,4.2-8.2,9.3-11,15.5c-2.8,6.2-4.3,13.3-4.6,21.4
				H18.3c0.1-12.4,2.5-23.8,7.2-34.3c4.7-10.5,11-19.5,18.8-27.1c7.9-7.6,17-13.5,27.4-17.8c10.4-4.2,21.4-6.3,32.8-6.3
				c13.3,0,25.3,2.1,36.1,6.3c10.8,4.2,20,10.1,27.7,17.5c7.7,7.4,13.6,16.2,17.9,26.4c4.2,10.2,6.3,21.2,6.3,33
				c0,4.7-0.6,9.7-1.7,14.9c-1.1,5.3-3,10.9-5.7,17c-2.7,6.1-6.2,12.5-10.5,19.4c-4.4,6.9-9.9,14.3-16.5,22.3L66,315.2h126.4v34.4
				H18.7V320.8z"/>
		</g>
	</g>
</g>
</svg>
