<svg xmlns="http://www.w3.org/2000/svg" viewBox="0 0 155.63 266.53"><defs><style>.cls-1{fill:none;stroke:#000;stroke-miterlimit:10;stroke-width:3px;}</style></defs><g id="Ebene_2" data-name="Ebene 2"><g id="Ebene_1-2" data-name="Ebene 1"><path class="cls-1" d="M1.86,239.9,93,129.84q4.6-5.46,9.65-11.79a137.23,137.23,0,0,0,9.4-13.33,80.45,80.45,0,0,0,7.18-14.61A45.11,45.11,0,0,0,122,74.3a38.34,38.34,0,0,0-3.42-16.06,41.56,41.56,0,0,0-9.4-13.16,43.93,43.93,0,0,0-14.27-8.89A49.59,49.59,0,0,0,76.71,33a49.72,49.72,0,0,0-16.83,2.82A40.36,40.36,0,0,0,46,44.05a41.14,41.14,0,0,0-9.66,13.59,48.69,48.69,0,0,0-4,18.71H1.52a74.54,74.54,0,0,1,6.32-30A75.53,75.53,0,0,1,24.33,22.61a74.61,74.61,0,0,1,24-15.56A75.65,75.65,0,0,1,77.05,1.5a86.16,86.16,0,0,1,31.62,5.55,72.84,72.84,0,0,1,24.27,15.3,68,68,0,0,1,15.63,23.07,74.42,74.42,0,0,1,5.56,28.88,64.46,64.46,0,0,1-1.45,13.08,76.12,76.12,0,0,1-5,14.86,131.52,131.52,0,0,1-9.23,17,185,185,0,0,1-14.44,19.48L43.21,235H153.79V265H1.86Z"/></g></g></svg>