<svg xmlns="http://www.w3.org/2000/svg" viewBox="0 0 174.8 267.38"><defs><style>.cls-1{fill:none;stroke:#000;stroke-miterlimit:10;stroke-width:3px;}</style></defs><g id="Ebene_2" data-name="Ebene 2"><g id="Ebene_1-2" data-name="Ebene 1"><path class="cls-1" d="M43.42,107.8A79.26,79.26,0,0,1,63.07,98a73.46,73.46,0,0,1,23.07-3.33,89,89,0,0,1,35.21,6.84A85.63,85.63,0,0,1,149,119.93,83.31,83.31,0,0,1,166.89,147a84.51,84.51,0,0,1,6.41,32.73A87.5,87.5,0,0,1,167,212.82,83.16,83.16,0,0,1,149,240.25,85.81,85.81,0,0,1,121.09,259a92.22,92.22,0,0,1-36.32,6.92,96.57,96.57,0,0,1-28.36-4,85.67,85.67,0,0,1-23.76-11.28,80.54,80.54,0,0,1-18.37-17.34A87.26,87.26,0,0,1,1.89,211.19l28-14a57.14,57.14,0,0,0,8,16.15,57.32,57.32,0,0,0,28.37,21.19A59.15,59.15,0,0,0,107.59,233a57.44,57.44,0,0,0,18.29-12.39,58.06,58.06,0,0,0,12.22-18.37,57.16,57.16,0,0,0,4.44-22.47,56.4,56.4,0,0,0-4.44-22.48,54.93,54.93,0,0,0-12.31-17.94,58.49,58.49,0,0,0-41-16.32,64.07,64.07,0,0,0-25.2,4.87A55.59,55.59,0,0,0,40.34,141L15.22,137V1.5h146V29.87H43.42Z"/></g></g></svg>