<?xml version="1.0" encoding="utf-8"?>
<!-- Generator: Adobe Illustrator 25.1.0, SVG Export Plug-In . SVG Version: 6.00 Build 0)  -->
<svg version="1.1" id="Ebene_1" xmlns="http://www.w3.org/2000/svg" xmlns:xlink="http://www.w3.org/1999/xlink" x="0px" y="0px"
	 viewBox="0 0 266.5 449.9" style="enable-background:new 0 0 266.5 449.9;" xml:space="preserve">
<style type="text/css">
	.st0{enable-background:new    ;}
	.st1{fill:none;stroke:#ACC0B3;stroke-width:3;stroke-miterlimit:10;}
</style>
<g id="Ebene_2_1_">
	<g id="Ebene_1-2">
		<g class="st0">
			<path class="st1" d="M153.8,130.8c0-5.1-1.1-10.5-3.2-16.3c-2.1-5.8-5.5-11.1-10-16s-10.2-8.9-17-12.1
				c-6.8-3.2-14.9-4.8-24.1-4.8c-7.7,0-14.7,1.3-21,4c-6.3,2.7-12.6,7.7-18.8,14.9c-6.2,7.3-9.6,15.4-10.2,24.2H12.4
				c0.6-11.3,3.5-21.5,8.5-30.7c5-9.1,11.4-17.1,19-24c7.7-6.9,16.7-12.4,27-16.4c10.3-4,21-6.1,32.2-6.1c13.9,0,26.6,2.3,37.9,6.9
				c11.3,4.6,21,10.7,29,18.4s14.2,16.3,18.6,26.1c4.4,9.8,6.5,19.7,6.5,29.9c0,6.2-0.8,12.5-2.3,18.8s-4,12.2-7.3,17.9
				s-7.6,10.9-12.8,15.7c-5.2,4.8-11.5,9.1-18.9,12.7c6.1,2.3,11.9,5.6,17.3,9.9c5.4,4.2,10.1,9.3,14.2,15.1
				c4,5.9,7.2,12.5,9.6,19.9s3.5,15.6,3.5,24.4c0,12.8-2.5,24.6-7.4,35.4c-5,10.9-11.7,20.3-20.1,28.2c-8.5,7.9-18.4,14.2-29.8,18.7
				c-11.4,4.5-23.6,6.7-36.6,6.7c-12,0-23.9-2.1-35.6-6.3c-11.8-4.2-21.8-10.3-30-18.1s-14.3-15.9-18.2-24.4
				c-3.9-8.5-6.2-16.9-7-25.2H47c3.8,12.1,10.5,21.6,20.2,28.5c9.7,6.9,22,10.4,37,10.4c6.8,0,13.4-1.4,19.8-4.1s12.1-6.5,17.1-11.4
				c4.9-4.9,8.9-10.6,11.9-17.2c3-6.6,4.5-13.8,4.5-21.6c0-8.2-1.5-15.6-4.5-22.3c-3-6.6-7-12.3-12.1-16.9
				c-5.1-4.6-11-8.2-17.7-10.7c-6.7-2.5-13.8-3.8-21.4-3.8H85.1v-29.5h13.7c8.6,0,16.3-1.3,23.1-3.8s12.6-6,17.3-10.4
				c4.7-4.4,8.3-9.6,10.8-15.5C152.6,143.9,153.8,137.6,153.8,130.8z"/>
		</g>
	</g>
</g>
</svg>
